<?xml version="1.0" encoding="UTF-8"?>
<svg width="38px" height="38px" viewBox="0 0 38 38" version="1.1" xmlns="http://www.w3.org/2000/svg" xmlns:xlink="http://www.w3.org/1999/xlink">
    <!-- Generator: Sketch 52.5 (67469) - http://www.bohemiancoding.com/sketch -->
    <title>icon-linkedin</title>
    <desc>Created with Sketch.</desc>
    <g id="Page-1" stroke="none" stroke-width="1" fill="none" fill-rule="evenodd">
        <g id="Desktop-HD-Copy-2" transform="translate(-642.000000, -2984.000000)">
            <g id="Footer" transform="translate(0.000000, 2789.000000)">
                <g id="Group-2" transform="translate(556.000000, 197.000000)">
                    <g id="icon-linkedin" transform="translate(88.000000, 0.000000)">
                        <path d="M34.3338536,17.1734766 C34.3338536,26.654512 26.6479719,34.3403937 17.1669365,34.3403937 C7.68590101,34.3403937 1.92923562e-05,26.654512 1.92923562e-05,17.1734766 C1.92923562e-05,7.69244112 7.68590101,0.00655940105 17.1669365,0.00655940105 C26.6479719,0.00655940105 34.3338536,7.69244112 34.3338536,17.1734766" id="Fill-13" stroke="#33AAAA" stroke-width="3"></path>
                        <path d="M25.2912437,18.4242618 L25.2912437,23.8478455 L22.1469929,23.8478455 L22.1469929,18.7875008 C22.1469929,17.5163009 21.692211,16.6487567 20.5540964,16.6487567 C19.6852903,16.6487567 19.1682631,17.2334179 18.9408039,17.7989793 C18.8578558,18.0011652 18.8365049,18.2825816 18.8365049,18.565601 L18.8365049,23.8478455 L15.6911968,23.8478455 C15.6911968,23.8478455 15.7335576,15.2772825 15.6911968,14.3893082 L18.8361979,14.3893082 L18.8361979,15.730018 C18.8298199,15.7400455 18.8215319,15.7508574 18.8155291,15.7605779 L18.8361979,15.7605779 L18.8361979,15.730018 C19.2540421,15.0864541 20.0002679,14.1671015 21.6705531,14.1671015 C23.7399236,14.1670674 25.2912437,15.5189643 25.2912437,18.4242618 Z M12.4010706,9.82982397 C11.3250648,9.82982397 10.621268,10.5355989 10.621268,11.463717 C10.621268,12.3716097 11.3047029,13.0988039 12.3593237,13.0988039 L12.3803336,13.0988039 C13.4771787,13.0988039 14.1593176,12.3717462 14.1593176,11.463717 C14.1386488,10.5355989 13.4771787,9.82982397 12.4010706,9.82982397 Z M10.8080717,23.8478455 L13.9521861,23.8478455 L13.9521861,14.3893082 L10.8080717,14.3893082 L10.8080717,23.8478455 Z" id="LinkedIn" fill="#FFFFFF" fill-rule="nonzero"></path>
                    </g>
                </g>
            </g>
        </g>
    </g>
</svg>