<?xml version="1.0" encoding="utf-8"?>
<!-- Generator: Adobe Illustrator 25.2.3, SVG Export Plug-In . SVG Version: 6.00 Build 0)  -->
<svg version="1.1" id="Ebene_1" xmlns="http://www.w3.org/2000/svg" xmlns:xlink="http://www.w3.org/1999/xlink" x="0px" y="0px"
	 viewBox="0 0 38 38" style="enable-background:new 0 0 38 38;" xml:space="preserve">
<style type="text/css">
	.st0{fill:none;stroke:#33AAAA;stroke-width:3;}
	.st1{fill:#FFFFFF;}
</style>
<desc>Created with Sketch.</desc>
<g id="Page-1">
	<g id="Desktop-HD-Copy-2" transform="translate(-554.000000, -2985.000000)">
		<g id="Footer" transform="translate(0.000000, 2789.000000)">
			<g id="Group-2" transform="translate(556.000000, 197.466683)">
				<g id="icon-twitter">
					<path id="Fill-6" class="st0" d="M34.3,17.3c0,9.5-7.7,17.2-17.2,17.2S0,26.8,0,17.3S7.7,0.2,17.2,0.2S34.3,7.9,34.3,17.3"/>
				</g>
			</g>
		</g>
	</g>
</g>
<g>
	<path class="st1" d="M16.1,26.8c-0.5-0.1-1.1-0.1-1.6-0.2c-1.3-0.3-2.3-1-2.8-2.3c-0.3-0.7-0.5-1.5-0.5-2.3c0-1.7,0-3.4,0-5.1
		c0-0.8,0-1.5,0.2-2.3c0.3-1.3,1-2.3,2.3-2.9c0.8-0.4,1.6-0.5,2.4-0.5c1.6,0,3.2,0,4.8,0c0.8,0,1.7,0,2.5,0.2
		c1.5,0.3,2.6,1.2,3.1,2.7c0.3,0.7,0.3,1.4,0.3,2.2c0,1.8,0,3.7,0,5.5c0,0.6,0,1.1-0.2,1.7c-0.3,1.4-1,2.4-2.3,3
		c-0.6,0.3-1.2,0.4-1.9,0.4C22.2,26.8,16.2,26.8,16.1,26.8z M22.9,25.3c1.2-0.1,2-0.9,2.3-2.1c0.1-0.5,0.2-1,0.2-1.6
		c0-1.3,0-2.6,0-3.9c0-0.9,0-1.7-0.1-2.6c-0.1-1.3-0.9-2.1-2.2-2.4c-0.6-0.1-1.2-0.1-1.8-0.2c-1.3,0-2.6,0-4,0c-0.8,0-1.6,0-2.3,0.1
		c-1.2,0.2-2,1-2.3,2.1c-0.1,0.5-0.1,1.1-0.2,1.6c0,1.3,0,2.5,0,3.8c0,0.9,0,1.8,0.1,2.6c0.1,0.9,0.5,1.6,1.3,2.1
		c0.5,0.3,1.1,0.4,1.6,0.4C16.8,25.4,22,25.4,22.9,25.3z"/>
	<path class="st1" d="M15,19c0-2.2,1.8-4,4-4c2.2,0,4.1,1.8,4,4c0,2.2-1.8,4-4,4C16.8,23,15,21.2,15,19z M19,21.6
		c1.4,0,2.6-1.2,2.6-2.6c0-1.4-1.1-2.6-2.6-2.6c-1.4,0-2.6,1.1-2.6,2.6C16.4,20.4,17.6,21.6,19,21.6z"/>
	<path class="st1" d="M24.1,14.8c0,0.5-0.4,0.9-0.9,0.9c-0.5,0-0.9-0.4-0.9-0.9c0-0.5,0.4-0.9,0.9-0.9
		C23.7,13.9,24.1,14.3,24.1,14.8z"/>
</g>
<desc>Created with Sketch.</desc>
</svg>
