<?xml version="1.0" encoding="UTF-8"?>
<svg width="18px" height="15px" viewBox="0 0 18 15" version="1.1" xmlns="http://www.w3.org/2000/svg" xmlns:xlink="http://www.w3.org/1999/xlink">
    <!-- Generator: Sketch 52.5 (67469) - http://www.bohemiancoding.com/sketch -->
    <title>icon-mail</title>
    <desc>Created with Sketch.</desc>
    <g id="Page-1" stroke="none" stroke-width="1" fill="none" fill-rule="evenodd">
        <g id="Desktop-Unternehmen-Copy-4" transform="translate(-821.000000, -814.000000)" fill="#004477" fill-rule="nonzero">
            <g id="Group-4" transform="translate(820.000000, 358.720498)">
                <path d="M16.4378691,456.132021 L3.07910915,456.132021 C1.93269733,456.132021 1,457.027724 1,458.128661 L1,467.439911 C1,468.540847 1.93269733,469.43655 3.07910915,469.43655 L16.4378691,469.43655 C17.5842809,469.43655 18.5169324,468.540847 18.5169324,467.439911 L18.5169324,458.128661 C18.5169324,457.027724 17.5842809,456.132021 16.4378691,456.132021 Z M15.44,466.882777 L4.08,466.882777 C3.61,466.882777 3.362801,466.668437 3.362801,466.248437 L3.362801,460.474542 L8.80461288,465.114119 C9.53,465.672877 9.99,465.672877 10.712182,465.114119 L16.154269,460.474358 L16.154269,466.248437 C16.1541773,466.668437 15.91,466.882777 15.44,466.882777 Z M9.7584662,462.753698 L4.65548916,458.430922 L14.8614432,458.430922 L9.7584662,462.753698 Z" id="icon-mail"></path>
            </g>
        </g>
    </g>
</svg>