<?xml version="1.0" encoding="UTF-8"?>
<svg width="38px" height="38px" viewBox="0 0 38 38" version="1.1" xmlns="http://www.w3.org/2000/svg" xmlns:xlink="http://www.w3.org/1999/xlink">
    <!-- Generator: Sketch 52.5 (67469) - http://www.bohemiancoding.com/sketch -->
    <title>icon-facebook</title>
    <desc>Created with Sketch.</desc>
    <g id="Page-1" stroke="none" stroke-width="1" fill="none" fill-rule="evenodd">
        <g id="Desktop-HD-Copy-2" transform="translate(-598.000000, -2985.000000)">
            <g id="Footer" transform="translate(0.000000, 2789.000000)">
                <g id="Group-2" transform="translate(556.000000, 197.466683)">
                    <g id="icon-facebook" transform="translate(44.179495, 0.000000)">
                        <path d="M34.3338536,17.3434422 C34.3338536,26.8244777 26.6479719,34.5103594 17.1669365,34.5103594 C7.68590101,34.5103594 1.9292356e-05,26.8244777 1.9292356e-05,17.3434422 C1.9292356e-05,7.86240677 7.68590101,0.176525058 17.1669365,0.176525058 C26.6479719,0.176525058 34.3338536,7.86240677 34.3338536,17.3434422" id="Fill-13" stroke="#33AAAA" stroke-width="3"></path>
                        <path d="M18.2135854,24.7786776 L18.2135854,17.9956782 L20.4904692,17.9956782 L20.8311722,15.3520466 L18.2135854,15.3520466 L18.2135854,13.6643513 C18.2135854,12.8988307 18.4261871,12.3773583 19.5237293,12.3773583 L20.9235826,12.3767795 L20.9235826,10.0123083 C20.6812706,9.98028303 19.8503488,9.90812962 18.8838018,9.90812962 C16.8654355,9.90812962 15.483717,11.1401395 15.483717,13.4025541 L15.483717,15.3520466 L13.2010454,15.3520466 L13.2010454,17.9956782 L15.483717,17.9956782 L15.483717,24.7786776 L18.2135854,24.7786776 Z" id="Fill-18" fill="#FFFFFF"></path>
                    </g>
                </g>
            </g>
        </g>
    </g>
</svg>