<?xml version="1.0" encoding="utf-8"?>
<!-- Generator: Adobe Illustrator 25.2.2, SVG Export Plug-In . SVG Version: 6.00 Build 0)  -->
<svg version="1.1" id="Ebene_1" xmlns="http://www.w3.org/2000/svg" xmlns:xlink="http://www.w3.org/1999/xlink" x="0px" y="0px"
	 viewBox="0 0 374.5 390.8" style="enable-background:new 0 0 374.5 390.8;" xml:space="preserve">
<style type="text/css">
	.st0{clip-path:url(#SVGID_2_);fill:url(#SVGID_3_);}
	.st1{clip-path:url(#SVGID_5_);fill:#FFFFFF;}
	.st2{clip-path:url(#SVGID_7_);fill:#FFFFFF;}
	.st3{clip-path:url(#SVGID_9_);fill:url(#SVGID_10_);}
</style>
<g>
	<g>
		<defs>
			<path id="SVGID_1_" d="M109.8,20c-2.2,0-40.9,1.1-40.9,41v156c0,0,0,41,41,41h156c0,0,41,0,41-41V61c0,0,0-40.8-40.7-41H109.8z"
				/>
		</defs>
		<clipPath id="SVGID_2_">
			<use xlink:href="#SVGID_1_"  style="overflow:visible;"/>
		</clipPath>
		
			<linearGradient id="SVGID_3_" gradientUnits="userSpaceOnUse" x1="-876.6686" y1="231.0839" x2="-875.6686" y2="231.0839" gradientTransform="matrix(140.7433 254.956 -254.956 140.7433 182431.9062 191023.3281)">
			<stop  offset="3.592456e-04" style="stop-color:#606060"/>
			<stop  offset="0.9996" style="stop-color:#999999"/>
		</linearGradient>
		<polygon class="st0" points="251.3,-80.7 407.5,202.4 124.5,358.6 -31.8,75.5 		"/>
	</g>
</g>
<g>
	<g>
		<defs>
			<rect id="SVGID_4_" x="19.1" y="20" width="337.2" height="357.2"/>
		</defs>
		<clipPath id="SVGID_5_">
			<use xlink:href="#SVGID_4_"  style="overflow:visible;"/>
		</clipPath>
		<path class="st1" d="M202.1,65.5c4.3,4.3,8,10.1,11.2,17.2c1.1,2.6,2.8,6.9,2.9,7.5c0.1,0.5,0,0.6-0.5,0.8
			c-2.3,0.9-12.5,2.3-22.1,2.8c-0.9,0.1-2.1,0.1-2.5,0.2l-0.9,0.1l0.1-17.3c0-12.7,0.1-17.4,0.3-17.8l0.2-0.4l0.9,0.3
			c0.5,0.1,1.5,0.5,2.2,0.7C196.4,60.7,199.4,62.7,202.1,65.5 M184,94h-1.5c-4.8,0-20.6-1.8-23.7-2.7c-0.7-0.2-0.9-0.3-0.9-0.7
			c0-0.9,2.4-7,4.4-10.9c4.3-8.7,10.1-15.7,15.6-18.8c2-1.1,4.2-2,4.9-2c0.5,0,0.6,0.1,0.8,0.9c0.2,0.7,0.2,3.7,0.3,17.5L184,94z
			 M166.6,61.4c-0.2,0.3-1.1,1.5-2.1,2.7s-2.3,2.9-2.9,3.8c-2.8,3.8-6.3,10.9-8.8,17.3c-1.4,3.7-1.5,3.9-2.6,3.9
			c-0.5,0-5.1-1.4-8.2-2.6c-4.5-1.7-9.3-3.9-9.5-4.3c-0.1-0.3,3.3-3.6,5.8-5.8c4.8-4.1,10.6-8,16.1-10.7c2.3-1.1,4.3-1.9,10.9-4.4
			C166.9,60.8,167,60.8,166.6,61.4 M147.9,95.3c0.5,0.1,1.1,0.4,1.2,0.5c0.3,0.3,0.2,0.6-0.5,3.8c-1.6,6.7-2.8,15.1-3.4,24.3
			c-0.1,2-0.3,4.2-0.4,4.9l-0.1,1.2h-16.2h-16.2l0.1-1.8c0.7-11.5,4.5-23.5,10.7-33.8c1.6-2.7,4.4-6.8,4.7-6.8
			c0.1,0,0.7,0.3,1.4,0.7C134.6,90.9,142,93.7,147.9,95.3 M220.8,59.2c-7.8-3.6-16.1-6-23.5-6.8c-3.7-0.4-14.4-0.7-17-0.4
			c-8.5,0.8-15.7,2.6-23.2,5.6c-8,3.2-16,7.9-22.1,13c-3.6,3-8.9,8.5-11.7,12c-5,6.3-9.9,15.1-12.9,23.3c-2,5.6-3.7,12.4-4.3,18.1
			c-0.1,0.9-0.2,4.1-0.3,7.1c-0.1,5.7,0.1,10.1,0.5,13.4c1.9,13.4,7.6,26.9,16,38.1c1.6,2.1,3.8,4.6,6.2,7.1c0.3-3.5,1.1-9,0.9-8.9
			l-1.7-1.8l-0.9-1.3c-8.3-11.2-13.6-25.8-14.4-39.5l-0.1-1.9h16.2c8.9,0,16.2,0.1,16.2,0.1s0.1,2.2,0.3,4.9
			c0.1,1.9,0.3,3.6,0.4,5.2c1.8-2.2,3.9-4.4,6.1-6.5c0,0,0-0.1,0-0.1l-0.1-3.5l4.3,0c0.2-0.2,0.4-0.4,0.6-0.5
			c2.8-2.2,5.3-4.1,7.5-5.8h-12.5l0.1-3.4c0.2-7.7,1.4-16.7,3-24.2c0.7-3.3,1-4.2,1.4-4.6c0.4-0.4,0.3-0.4,2.2,0
			c6,1.3,18.7,2.6,24.5,2.7h1.3v14.8v2.3c2-1,4-1.8,6.3-3v-14l4.2-0.2c6.5-0.3,15-1.3,19.8-2.2c0.6-0.6,1.3-1.5,1.8-2.4
			c2.5-4.4,4.2-7.6,5.4-10.3c-1.2-3.1-2.3-5.6-4.2-9.4c-2.7-5.4-3.9-7.3-8.1-12.6c-1.6-2-1.9-2.5-1.8-2.5c0,0,1.1,0.4,2.5,0.8
			c4.5,1.5,8.6,3.3,12.4,5.3C221.9,64.8,221.4,62.2,220.8,59.2"/>
	</g>
	<g>
		<defs>
			<rect id="SVGID_6_" x="19.1" y="20" width="337.2" height="357.2"/>
		</defs>
		<clipPath id="SVGID_7_">
			<use xlink:href="#SVGID_6_"  style="overflow:visible;"/>
		</clipPath>
		<path class="st2" d="M268.6,134.8c0.1,1.2-0.1,2.8,0.1,3.8c-0.2,2.2,0,4.7-0.2,6.9c-0.4,0.6-0.1,2-0.2,2.9
			c-0.4,0.3-0.1,1.3-0.2,1.9c-0.4,0.4-0.1,1.3-0.3,1.9c-0.3,0.6-0.3,1.4-0.4,2.2c-0.2-0.1,0,0.2-0.2,0.1c0.2,1.5-0.5,2.2-0.5,3.6
			c-0.3,0.1-0.1,0.7-0.2,1c-0.2-0.1,0,0.2-0.2,0.1c0,0.4,0,0.8-0.3,0.9c0.1,0.8-0.2,1.1-0.2,1.8c-0.2-0.1,0,0.2-0.2,0.1
			c0.1,0.8-0.4,0.8-0.3,1.6c-0.2-0.1,0,0.2-0.2,0.1v0.7c-0.4,0.3-0.3,1.2-0.7,1.5v0.6c-0.2-0.1,0,0.2-0.2,0.1v0.6
			c-0.2,0.3-0.5,0.6-0.5,1.2c-0.2-0.1,0,0.2-0.2,0.1v0.6c-0.3,0.1-0.2,0.6-0.5,0.6v0.5c-0.2-0.1,0,0.2-0.2,0.1v0.6
			c-0.4,0.5-0.5,1.3-0.9,1.7v0.5c-0.3,0.3-0.3,0.9-0.7,1.1v0.5c-0.6,0.7-0.8,1.8-1.4,2.5v0.4c-0.6,0.6-0.7,1.6-1.3,2.1v0.4
			c-0.5,0.5-0.6,1.3-1.2,1.7v0.4h-0.2c-0.1,0.7-0.7,0.8-0.7,1.6c-0.6,0.3-0.7,1.1-1.2,1.5c0.1,0.5-0.4,0.4-0.4,0.8h-0.2
			c-0.2,0.9-1,1.2-1.2,2.1c-0.9,0.8-1.3,2.1-2.3,2.8v0.3c-0.3,0.2-0.6,0.4-0.7,0.8c-0.3,0.2-0.6,0.5-0.7,0.9h-0.2
			c-0.1,0.5-0.7,0.5-0.7,1.1c-0.3,0.4-0.9,0.7-1.2,1.1c0,0,0,0.2,0,0.2c-0.2,0.2-0.5,0.5-0.8,0.6c0,0.1,0,0.1-0.1,0.1v0.3
			c-1.2,1.1-2.4,2.3-3.5,3.5c-0.5,0.2-0.8,0.5-1.1,0.9c-0.3,0-0.4,0.1-0.4,0.4c-0.9,0.6-1.5,1.4-2.5,1.9c-0.1,0,0,0.1-0.1,0.2
			c-0.3,0-0.4,0.3-0.6,0.5c-0.6,0.3-1.1,0.8-1.6,1.2c-0.3,0-0.4,0.2-0.5,0.4c-0.4,0.1-0.6,0.3-0.8,0.6c-1,0.4-1.6,1.1-2.5,1.5
			c-0.1,0,0,0.1-0.1,0.2h-0.4c-0.3,0.3-0.6,0.6-1.1,0.7c-0.3,0.3-0.8,0.6-1.2,0.9c-0.6,0-0.6,0.6-1.3,0.5c-0.1,0,0,0.1-0.1,0.2
			c-0.6,0.1-0.9,0.6-1.6,0.7c-0.1,0.3-0.4,0.4-0.8,0.4c-0.5,0.4-1.1,0.8-1.8,0.9c-0.1,0.1-0.2,0.1-0.3,0.3h-0.4
			c-0.7,0.4-1.4,0.9-2.4,1.1c-0.3,0.4-1.1,0.3-1.4,0.7c-0.5,0-0.9,0.2-1.2,0.5c-0.5-0.1-0.5,0.3-1.1,0.2c-0.4,0.3-0.9,0.5-1.5,0.5
			c0,0.1-0.2,0.1-0.2,0.2c-0.6,0.1-1.2,0.1-1.5,0.5c-0.6,0-1,0.1-1.3,0.4c-0.4,0-0.8-0.1-0.9,0.2c-0.5,0-0.9,0-1,0.3
			c-0.6,0-0.9,0.3-1.7,0.2c-0.1,0,0,0.1,0,0.2c-0.8,0.1-1.7,0.1-2.3,0.5c-0.9-0.1-1.3,0.3-2.2,0.2c-0.9,0.4-2.3,0.5-3.6,0.5
			c0,0.1-0.2,0.1-0.2,0.2c-0.9-0.1-1.9,0.1-2.8,0.2c-1.6,0.1-3.6,0-5.6,0c-2.3,0-4.5,0.1-6.3-0.1c-0.6-0.1-1.2-0.2-1.8-0.1
			c0.1-0.2-0.3,0-0.2-0.2c-1.4,0.1-2.4-0.2-3.6-0.3c0.1-0.2-0.2,0-0.1-0.2c-0.4,0-0.8,0.1-1.2,0c-0.2,0-0.3-0.2-0.5-0.2
			c-0.3,0-0.5,0-0.8,0c-0.1,0-0.1-0.2-0.2-0.2c-0.5-0.1-1.1,0-1.5-0.3c-0.2-0.1-0.2,0.1-0.4,0.1c-0.2-0.4-0.8-0.3-1.4-0.3
			c0.1-0.2-0.2,0-0.1-0.2c-0.9,0.1-1.1-0.4-2-0.3c0.1-0.2-0.2,0-0.1-0.2h-0.8c-0.4-0.4-1.4-0.3-1.8-0.7c-1.2,0-1.9-0.6-3.1-0.7
			c0.1-0.2-0.2,0-0.1-0.2h-0.4c-0.1-0.2-0.3-0.2-0.6-0.2c-0.8-0.5-2.1-0.5-2.7-1.2c-0.6,0-1-0.1-1.3-0.4c-0.9,0.1-1.1-0.5-1.8-0.5
			c0-0.2-0.3-0.2-0.5-0.2c-0.2-0.4-1-0.3-1.2-0.7h-0.5c0.1-0.2-0.2,0-0.1-0.2c-0.6-0.1-0.9-0.5-1.5-0.5c0.1-0.2-0.2,0-0.1-0.2
			c-0.7,0-0.9-0.5-1.6-0.6c0-0.2-0.3-0.1-0.3-0.3h-0.5c-0.7-0.6-1.7-0.8-2.4-1.4h-0.4c0.1-0.2-0.2,0-0.1-0.2c-0.6,0-0.7-0.5-1.3-0.5
			c-0.7-0.6-1.8-0.9-2.5-1.6h-0.5c-0.2-0.5-1-0.4-1.2-0.9c-0.5,0-0.6-0.4-1-0.4c-0.2-0.4-0.7-0.5-1.2-0.7c-0.4-0.5-1.1-0.7-1.7-1
			v-0.2c-0.3,0-0.3-0.3-0.7-0.3c-0.9-0.7-2-1.2-2.8-2c-0.8,0-0.8-0.8-1.8-0.7c-0.7,0.7-1.8,1-2.5,1.8h-0.3c-0.1,0.2-0.4,0.3-0.5,0.5
			h-0.3c-0.1,0.1-0.3,0.2-0.4,0.4c-0.8,0.2-1,1.1-1.8,1.2c0,0.1-0.2,0.1-0.1,0.3c-0.3,0.1-0.5,0.3-0.7,0.6h-0.3
			c-0.3,0.3-0.6,0.7-1,0.9c-0.1,0,0,0.1-0.1,0.2c-0.2,0.2-0.5,0.3-0.6,0.5c-0.6,0.3-1.2,1.1-1.7,1.6c-0.6,0.6-1.1,1-1.6,1.5v0.2
			c-0.2,0.1-0.3,0.2-0.4,0.4h-0.2c-0.4,0.8-1.1,1.3-1.7,1.9v0.3c-1,0.7-1.4,2-2.3,2.7v0.3c-0.2,0.1-0.3,0.3-0.5,0.4v0.3
			c-0.5,0.2-0.4,0.9-0.9,1.1c-0.3,1-1,1.5-1.3,2.5c-0.2,0-0.1,0.2-0.3,0.2v0.3c-0.5,0.5-0.9,1.2-1.1,2c-0.6,0.5-0.7,1.6-1.2,2.1
			c0,0.4-0.1,0.8-0.4,1c-0.1,0.5-0.2,1-0.5,1.2v0.4c-0.2-0.1,0,0.2-0.2,0.1v0.5c-0.2-0.1,0,0.2-0.2,0.1c0.1,0.7-0.4,0.7-0.3,1.3
			c-0.2-0.1,0,0.2-0.2,0.1v0.6c-0.2-0.1,0,0.2-0.2,0.1c0,0.7-0.7,0.7-1,1.1c-0.6,0.1-1.3,0.2-1.7,0.5h-2.7c-0.2-0.3-0.5-0.3-0.9-0.4
			c0-0.2-0.2-0.1-0.2-0.3c-0.6-0.2-1-0.5-1.3-1.1c0-0.1-0.1,0-0.2-0.1c-0.1-0.2-0.1-0.5-0.1-0.8c0.2,0,0.1-0.2,0.3-0.2
			c0.1-0.5,0.3-0.9,0.7-1.2c0.2-0.9,0.9-1.4,1.1-2.3c0.2,0,0.1-0.2,0.3-0.2c-0.1-0.5,0.5-0.4,0.4-0.9c0.4-0.4,0.6-1,1.1-1.4v-0.3
			c0.2,0,0.1-0.2,0.3-0.2v-0.3c0.3-0.4,0.7-0.7,0.8-1.2c0.4-0.2,0.6-0.6,0.8-1.1h0.2v-0.3c0.5-0.5,0.8-1.2,1.4-1.6v-0.3
			c0.2,0,0.2-0.3,0.4-0.3c0.1-0.7,0.7-0.8,0.9-1.4h0.2c0.1-0.5,0.4-0.8,0.8-1c0-0.7,0.8-0.7,0.9-1.3h0.2c-0.1-0.4,0.3-0.3,0.3-0.7
			c0.6-0.2,0.7-1,1.3-1.2c0.7-1.1,1.8-1.8,2.5-2.9h0.3c1.2-1.4,2.6-2.6,3.9-3.9c0.2,0.1,0.2-0.1,0.4-0.1c0.4-0.5,0.9-0.9,1.4-1.3
			c0.5-0.7,1.4-1.1,2-1.8h0.3c0.6-0.7,1.5-1.2,2.2-1.9h0.3c0.1-0.4,0.7-0.4,0.8-0.8c0.2,0.1,0.2-0.1,0.4-0.1c0.6-0.7,1.6-1,2.2-1.7
			c0.4,0,0.6-0.3,0.7-0.5c0.4,0,0.6-0.3,0.7-0.5c0.8-0.4,1.5-0.8,2.1-1.4h0.3c0.2-0.2,0.5-0.4,0.8-0.5c0.1,0,0-0.1,0.1-0.2
			c0.8-0.4,1.6-0.8,2.2-1.4c0.4-0.1,0.7-0.2,0.9-0.5h0.3c0.3-0.4,0.9-0.5,1.2-0.9c0.4,0.1,0.3-0.3,0.7-0.2c0.3-0.5,1-0.5,1.4-0.9
			c0.6,0,0.6-0.5,1.2-0.5c0.1-0.2,0.4-0.2,0.5-0.4c0.4-0.1,0.7-0.3,0.9-0.5h0.4c0.1,0,0-0.1,0.1-0.2c1-0.5,2.1-0.9,2.9-1.6h0.4
			c0.3-0.5,1.1-0.4,1.5-0.9h0.4c0.5-0.4,1.1-0.6,1.6-1h0.5c0.5-0.4,1.1-0.8,1.8-0.9c0.1-0.2,0.4-0.2,0.6-0.4c1.2-0.3,2-1.1,3.2-1.4
			c0.3-0.3,0.7-0.4,1.1-0.5c0-0.1,0.2-0.1,0.2-0.2c0.5,0,0.8-0.2,1-0.5c0.2,0,0.4,0,0.4-0.2h0.4c0.1-0.1,0.2-0.1,0.3-0.3
			c1.1-0.1,1.6-0.9,2.8-1.1c0-0.1,0.2-0.1,0.1-0.2c0.8-0.1,1.1-0.6,1.9-0.7c0.2-0.3,0.6-0.4,1-0.5c0-0.2,0.3-0.2,0.4-0.4
			c0.4,0.1,0.6,0,0.7-0.3c0.4,0,0.8-0.1,0.9-0.4c0.4-0.1,0.8-0.2,1-0.5c0.4,0,0.6-0.2,0.8-0.4h0.4c0.2-0.2,0.3-0.3,0.7-0.3
			c0.2-0.2,0.5-0.4,0.9-0.4c0.7-0.6,1.8-0.8,2.5-1.4c0.7,0,1.1-0.3,1.4-0.7c0.9-0.1,1.3-0.8,2.2-0.9c0.1,0,0-0.1,0.1-0.2h0.4
			c0.3-0.4,1.1-0.4,1.4-0.9c0.7,0.1,0.7-0.5,1.3-0.5c0.2-0.3,0.8-0.3,1.1-0.7c0.4,0,0.7-0.2,0.9-0.5c0.3-0.1,0.6-0.2,0.7-0.4
			c0.4,0.1,0.6-0.3,0.9-0.5c0.3-0.2,0.6-0.1,0.7-0.4h0.3c0.4-0.4,1.1-0.5,1.5-1c0.4-0.1,0.8-0.2,1-0.6h0.3c0.6-0.5,1.5-0.8,2.1-1.4
			h0.3c0.3-0.4,0.9-0.4,1.2-0.9h0.3c0.5-0.6,1.4-0.8,1.9-1.4h0.3c0.7-0.6,1.6-1.1,2.3-1.8h0.3c0.1-0.1,0.2-0.1,0.3-0.3h0.3
			c0.3-0.4,0.6-0.7,1.1-0.9c0.3-0.3,0.5-0.6,1-0.7c0.1,0,0-0.1,0.1-0.2c0.4-0.1,0.6-0.4,0.8-0.7c0.6-0.2,1-0.8,1.4-1.2
			c0.2,0.1,0.2-0.1,0.4-0.1c0.5-0.6,1.2-1,1.7-1.6c0.2,0.1,0.2-0.1,0.4-0.1c0.1-0.3,0.5-0.3,0.6-0.7c0.4-0.2,0.9-0.7,1.3-1.1
			c0.4-0.4,0.8-0.7,1.1-1.1c0.3,0,0.4-0.1,0.4-0.4c0.2-0.1,0.5-0.2,0.5-0.5c0.4-0.4,0.9-0.7,1.1-1.2c0.1-0.1,0.3-0.2,0.3-0.4
			c0.6,0,0.5-0.7,1.1-0.8c0-0.3,0.1-0.4,0.4-0.4c0-0.4,0.3-0.4,0.3-0.7c0.3,0,0.4-0.3,0.5-0.6c0.1-0.1,0.3-0.1,0.4-0.2
			c0.3-0.6,0.8-1,1.3-1.4v-0.3c0.5-0.2,0.5-0.8,1-1c0.1-0.5,0.5-0.6,0.6-1.1h0.2c0.1-0.4,0.5-0.5,0.5-1c0.4-0.1,0.5-0.4,0.6-0.8
			c0.1,0,0.1-0.2,0.3-0.1v-0.4h0.2c0.2-0.5,0.5-0.9,0.9-1.2c0-0.4,0.3-0.5,0.5-0.7v-0.4c0.5-0.2,0.5-0.8,0.9-1.1
			c-0.1-0.1-0.1-0.1-0.2-0.2c-0.2,0.1-0.4,0.2-0.4,0.5h-0.2v0.4c-0.4,0.2-0.5,0.6-0.9,0.8v0.3c-0.6,0.4-1,1.1-1.6,1.5
			c0.1,0.2-0.1,0.3-0.1,0.4h-0.3c-0.4,0.8-1.2,1.1-1.6,1.9c-0.5,0.1-0.5,0.7-1.1,0.7c0,0.4-0.3,0.6-0.6,0.7c0,0.3-0.2,0.4-0.5,0.4
			c-1.4,1.6-3.3,2.8-4.8,4.3c-0.5,0.1-0.8,0.5-1.1,0.8c-0.3,0-0.4,0.3-0.6,0.5c-0.4,0.1-0.6,0.3-0.8,0.6c-0.3,0-0.4,0.2-0.5,0.4
			h-0.3c-0.3,0.2-0.3,0.5-0.7,0.5c-0.5,0.5-1.2,0.8-1.7,1.3c-0.2-0.1-0.2,0.1-0.4,0.1c-0.5,0.6-1.4,0.8-1.9,1.4
			c-0.6,0.2-1,0.5-1.4,0.9h-0.2c-0.1,0.1-0.2,0.1-0.3,0.3c-0.6,0.2-1.1,0.5-1.4,0.9c-0.6,0.3-1.3,0.6-1.8,1.1
			c-0.5,0.1-0.9,0.4-1.2,0.7c-0.9,0.2-1.3,0.9-2.3,1.1c-0.2,0.3-0.6,0.4-0.9,0.7c-0.8,0-0.9,0.7-1.7,0.7c-0.5,0.6-1.4,0.6-1.9,1.2
			h-0.4c-0.3,0.3-0.7,0.5-1.2,0.6c-0.5,0.6-1.4,0.7-1.9,1.2c-0.6,0.1-1.1,0.4-1.5,0.7h-0.5c-0.4,0.4-0.9,0.7-1.6,0.9
			c-0.1,0,0,0.1-0.1,0.2c-0.9,0-1.1,0.7-2,0.7c-0.5,0.5-1.1,0.7-1.8,0.9c-0.8,0.5-1.9,0.9-2.7,1.4h-0.4c-0.3,0.2-0.6,0.5-1.1,0.5
			c-0.2,0.2-0.5,0.4-0.9,0.4c-0.3,0.2-0.6,0.4-1,0.5c-0.1,0,0,0.1-0.1,0.2c-0.6,0.2-1.1,0.3-1.5,0.7h-0.5c-0.3,0.3-0.9,0.4-1.2,0.7
			h-0.4c-0.6,0.5-1.5,0.7-2.2,1.1H166c-0.1,0.1-0.2,0.1-0.3,0.3c-0.6,0.1-1,0.3-1.3,0.6c-0.4,0-0.6,0.1-0.7,0.3
			c-0.6,0.1-0.9,0.4-1.5,0.5c0,0.1-0.2,0.1-0.2,0.2c-0.3,0-0.5,0-0.5,0.2h-0.4c-0.4,0.4-1.3,0.5-1.7,0.9c-0.5,0-0.9,0.2-1.1,0.5
			c-0.2,0-0.6-0.1-0.5,0.2h-0.4c-0.2,0.4-1.1,0.2-1.3,0.7c-0.5,0-0.8,0.2-1,0.5c-0.3,0-0.5,0-0.5,0.2h-0.5c-0.2,0.4-0.9,0.3-1.2,0.7
			H153c0,0.1-0.2,0.1-0.2,0.2c-0.9,0.2-1.4,0.7-2.3,0.9c-0.2,0.3-0.6,0.3-0.8,0.5h-0.4c-0.2,0.2-0.4,0.4-0.8,0.4
			c-0.6,0.5-1.6,0.6-2.2,1.2c-0.8,0.1-1.1,0.6-1.9,0.7c-0.2,0.2-0.4,0.4-0.8,0.4c-0.1,0.1-0.2,0.1-0.3,0.3c-0.4-0.1-0.4,0.2-0.8,0.2
			c-0.1,0.4-0.9,0.2-1.1,0.7c-1,0.2-1.4,0.9-2.4,1.1c-0.3,0.2-0.5,0.5-1,0.5c-0.2,0.1-0.2,0.4-0.6,0.4c-0.1,0.1-0.2,0.1-0.3,0.3
			c-0.9,0.4-1.6,0.9-2.4,1.4c-0.6,0.1-1,0.5-1.3,0.9c-0.4,0-0.5,0.2-0.6,0.4h-0.3c-0.3,0.2-0.4,0.5-1,0.5c0.1-0.6,0.1-1.1,0.1-1.8
			c0.2,0.1,0-0.2,0.2-0.1c-0.1-1.8,0.5-2.8,0.5-4.5c0.4-0.2,0.1-1,0.2-1.5c0.4-0.4,0.4-1.1,0.5-1.8c0.1-0.4,0.3-0.9,0.2-1.3
			c0.2,0.1,0-0.2,0.2-0.1v-0.7c0.2,0.1,0-0.2,0.2-0.1c0.1-0.5,0.1-0.9,0.1-1.5c0.3-0.4,0.4-0.9,0.4-1.6c0.4-0.4,0.2-1.3,0.7-1.6
			v-0.7c0.2,0.1,0-0.2,0.2-0.1c0.2-0.9,0.6-1.7,0.7-2.7c0.2,0.1,0-0.2,0.2-0.1c-0.1-0.7,0.2-1.1,0.5-1.4c0-0.9,0.6-1.1,0.5-2
			c0.3,0,0.2-0.3,0.2-0.6c0.5-0.4,0.4-1.3,0.9-1.6v-0.5c0.2-0.3,0.5-0.6,0.5-1.1c0.2,0,0.2-0.3,0.2-0.5c0.5-0.5,0.6-1.4,1.1-1.9
			v-0.4c0.3-0.2,0.5-0.5,0.5-1h0.2c0-0.6,0.5-0.7,0.5-1.3c0.5-0.2,0.5-1,0.9-1.2v-0.3c0.3-0.2,0.4-0.6,0.5-0.9h0.2v-0.3
			c0.6-0.4,0.6-1.2,1.2-1.6v-0.3c0.3-0.2,0.6-0.4,0.6-0.9c0.2-0.2,0.5-0.3,0.5-0.6h0.2c0.1-0.9,0.9-1,1-1.8h0.2
			c0-0.4,0.4-0.3,0.4-0.7c0.1-0.1,0.3-0.2,0.3-0.4c0.3-0.3,0.7-0.5,0.8-1c0.3-0.3,0.7-0.5,0.8-0.9h0.2v-0.3c0.3-0.3,0.7-0.5,0.9-1
			c0.4-0.4,0.9-0.7,1.2-1.3c0.3-0.3,0.7-0.5,0.9-1c0.3,0.1,0.4-0.4,0.6-0.5c0.1-0.1,0.4,0,0.3-0.4c0.2-0.1,0.5-0.1,0.5-0.4
			c0.6-0.3,1-0.8,1.4-1.3c0.3,0,0.4-0.1,0.4-0.4c0.5-0.1,0.5-0.7,1.1-0.7c0-0.1,0.2-0.2,0.2-0.4c0.3,0,0.4,0,0.4-0.3
			c0.3,0,0.3-0.3,0.7-0.3c0.7-0.8,1.6-1.5,2.5-2c0.9-1,2.2-1.6,3.2-2.5h0.3c0.1-0.1,0.2-0.1,0.3-0.3h0.3c0.5-0.4,1-0.9,1.6-1.1
			c0.1,0,0-0.1,0.1-0.2c0.7-0.2,0.9-0.8,1.7-0.9c0.1-0.1,0.2-0.3,0.4-0.3c0.1,0,0-0.1,0.1-0.2c0.2,0,0.3-0.1,0.3-0.2h0.3
			c0.8-0.6,1.8-0.9,2.6-1.6h0.3c0.1-0.2,0.2-0.3,0.5-0.3c0.1,0,0-0.1,0.1-0.2c0.6-0.1,0.9-0.6,1.6-0.7c0.1,0,0-0.1,0.1-0.2
			c0.7-0.3,1.4-0.6,1.9-1.1c0.6,0,0.8-0.5,1.4-0.5c0.5-0.6,1.4-0.7,2-1.2h0.3c0.6-0.5,1.3-0.9,2.2-1.1c0.2-0.2,0.4-0.5,0.8-0.5
			c0.1,0,0-0.1,0.1-0.2h0.4c0.8-0.6,1.8-0.8,2.6-1.4c0.6-0.2,1.2-0.5,1.6-0.9c0.5,0.1,0.4-0.3,0.9-0.2c0.1-0.1,0.2-0.1,0.3-0.3
			c0.4,0,0.5-0.2,0.7-0.4c0.6-0.1,1.1-0.3,1.4-0.7c0.4-0.1,0.7-0.3,0.9-0.5c0.5-0.1,0.9-0.3,1.1-0.6c0.4-0.1,0.7-0.3,0.9-0.5
			c1.1-0.2,1.7-0.9,2.7-1.2c0.1-0.2,0.3-0.4,0.6-0.4c0.3-0.3,0.7-0.5,1.2-0.7c0.1,0,0-0.1,0.1-0.2c0.6,0,0.7-0.5,1.4-0.5
			c0.1,0,0-0.1,0.1-0.2c0.8-0.3,1.3-1,2.3-1.2c0.3-0.4,0.8-0.6,1.3-0.8c0.6-0.5,1.2-0.9,1.9-1.3c0.1-0.1,0.2-0.1,0.1-0.3
			c0.5,0,0.6-0.5,1.1-0.6c0.4-0.7,1.3-0.8,1.8-1.5h0.3c0.8-0.8,2-1.2,2.5-2.3h0.3c0.5-0.6,1.2-1,1.8-1.5c0.1-0.2,0.2-0.4,0.5-0.4
			c0.4-1.1,1.5-1.5,1.9-2.5h0.3c0.4-0.6,0.9-1.2,1.5-1.7v-0.3c0.6-0.4,0.7-1.3,1.4-1.5c0.1-0.5,0.3-0.9,0.7-1.2v-0.3
			c0.4-0.2,0.6-0.6,0.7-1.1c0.5-0.3,0.4-1.1,0.9-1.3v-0.4h0.2c0.1-0.5,0.3-1,0.7-1.2V92c0.4-0.4,0.5-1.2,0.9-1.6v-0.5
			c0.2,0,0.1-0.2,0.3-0.2v-0.6c0.5-0.5,0.4-1.5,0.9-1.9c-0.1-1,0.5-1.3,0.4-2.2c0.4-0.1,0.3-0.6,0.3-1.1c0.2,0.1,0-0.2,0.2-0.1V83
			c0.2,0.1,0-0.3,0.2-0.2c-0.1-1,0.5-1.2,0.3-2.2c0.1-0.1,0.1-0.3,0.2-0.3c-0.1-1.1,0.3-1.7,0.2-2.7c0.2,0.1,0-0.3,0.2-0.2
			c-0.1-1.1,0.1-1.8,0.1-2.8c0.2,0.1,0-0.3,0.2-0.2c-0.1-3.6,0.2-7.7-0.3-10.9c0.1-0.9-0.1-1.6-0.1-2.5c0.1,0,0.1,0,0.1-0.1
			c0.4,0.1,0.6,0.4,0.8,0.7c0.3,0,0.5,0.1,0.6,0.4c0.2-0.1,0.2,0.2,0.4,0.1c0.3,0.4,0.7,0.8,1.2,0.9c0.2,0.3,0.4,0.5,0.8,0.6
			c0.2,0.2,0.3,0.5,0.6,0.5v0.2c0.4,0,0.4,0.3,0.7,0.3v0.2c0.8,0.4,1.3,1.1,2,1.5c-0.1,0.2,0.1,0.2,0.1,0.3c0.6,0,0.6,0.6,1.1,0.7
			v0.2c0.2-0.1,0.2,0.2,0.4,0.1c0.1,0.2,0.2,0.4,0.5,0.4c0.4,0.4,0.7,0.9,1.3,1.1c0.6,0.6,1.1,1.3,1.9,1.8c0,0.4,0.4,0.4,0.7,0.6
			v0.3c0,0.1,0.1,0,0.1,0.1c1.1,0.6,1.7,1.8,2.7,2.5v0.2c0.1,0,0.1,0,0.1,0.1c0.7,0.5,1,1.2,1.7,1.7v0.2c0.1,0,0.1,0,0.1,0.1
			c0.8,0.7,1.4,1.6,2.2,2.3c0,0.4,0.5,0.4,0.5,0.8c0.1,0.1,0.3,0.1,0.4,0.2c0.1,0.4,0.4,0.6,0.7,0.8v0.3c0.5,0.2,0.5,0.9,1.1,1.1
			c-0.1,0.2,0.1,0.2,0.1,0.4c0.7,0.5,1,1.4,1.7,2c0.3,0.7,0.8,1.2,1.3,1.7v0.3c1,1.1,1.7,2.5,2.7,3.7v0.3c0.7,0.6,0.9,1.6,1.6,2.2
			c0.2,0.6,0.5,1.1,0.9,1.5c-0.1,0.5,0.4,0.3,0.3,0.8c0,0.1,0.1,0,0.2,0c0.2,0.8,0.7,1.2,0.9,2c0.6,0.6,0.8,1.7,1.4,2.3
			c0.1,0.9,0.8,1.2,0.9,2.2c0,0.1,0.1,0,0.2,0.1c-0.1,0.4,0.1,0.5,0.3,0.6c0.1,0.6,0.3,1,0.6,1.3c0,0.4,0,0.6,0.3,0.7
			c0.1,0.6,0.3,1.2,0.7,1.6c0,0.2,0,0.5,0.2,0.5v0.4c0.5,0.6,0.5,1.7,1.1,2.3c-0.1,0.7,0.4,0.7,0.3,1.4c0.2,0.1,0.1,0.5,0.4,0.6
			c0.1,0.8,0.4,1.4,0.5,2.2c0.1,0,0.1,0.2,0.2,0.2c0,0.8,0.6,1,0.5,2c0.1,0,0.1,0.2,0.2,0.2c0.1,1.2,0.8,1.9,0.7,3.3
			c0,0.1,0.1,0,0.2,0.1v0.6c0.4,0.2,0.1,1.1,0.5,1.4c-0.1,0.4,0.1,0.7,0.2,1c0.1,0.4-0.1,0.9,0.2,1.1c0,0.5,0,0.9,0.3,1.1
			c0.1,0.4-0.2,1.2,0.2,1.3c0.1,0.4-0.2,1,0.2,1.1v1.7c0.2,0.1,0.1,0.3,0.3,0.4c0.1,2,0.5,3.7,0.4,5.9c0.1,0,0.1,0.2,0.2,0.2
			C268.6,134,268.4,134.6,268.6,134.8"/>
	</g>
</g>
<g>
	<g>
		<defs>
			<path id="SVGID_8_" d="M139.8,344.4l0,1.6h8.9l0-1.5c0.1-2.8,1-9.4,8.4-9.4c7.2,0,7.8,5,7.8,6.6c0,3.7-1.5,5.7-10.6,10.7
				c-7.8,4.2-15.3,9.2-15.3,20.3v4.4h34.5v-8.6h-24.9c1.2-3.1,4.8-5.7,10-8.7c8.5-4.8,15.2-8.5,15.2-18.2c0-8.8-6.8-14.9-16.5-14.9
				C147,326.8,139.9,334,139.8,344.4 M204.6,324.2v35h9.6V324c0-11.3,7.2-16.8,18.5-15.8v-9c-1.3-0.2-2.6-0.2-3.9-0.2
				C215.2,299,204.6,307.9,204.6,324.2 M19.1,329.8c0,17,13.3,30.7,29.5,30.7c13.1,0,23.5-7.8,27.4-19.7H65.6
				c-3.2,6.4-9.3,10.4-17,10.4c-10.9,0-19.8-9.6-19.8-21.5s8.9-21.7,19.8-21.7c7.7,0,13.7,4,17,10.4H76c-4-11.9-14.3-19.7-27.4-19.7
				C32.3,298.8,19.1,312.8,19.1,329.8 M88.6,329.9c0-12.2,8.9-22.2,19.8-22.2c11,0,19.9,9.9,19.9,22.2c0,12-8.9,21.7-19.9,21.7
				C97.6,351.6,88.6,341.9,88.6,329.9 M78.8,329.9c0,16.9,12.9,30.6,29.6,30.6c16.8,0,29.6-13.7,29.6-30.6
				c0-17.1-12.8-31.1-29.6-31.1C91.7,298.8,78.8,312.8,78.8,329.9 M264.3,307.6c8.6,0,16.6,6.4,19,16h-38.2
				C247.6,313.6,256.1,307.6,264.3,307.6 M234.7,329.8c0,17.3,13.3,30.7,30.2,30.7c13.6,0,23.7-7.1,27.8-19.7h-10.3
				c-3.2,6.9-9.1,10.9-17.5,10.9c-9.7,0-19.1-7.2-20.3-19.4H294c0.1-20.9-14.5-33.5-29.7-33.5C247.9,298.8,234.7,312.8,234.7,329.8
				 M326.5,307.6c8.6,0,16.6,6.4,19,16h-38.2C309.8,313.6,318.4,307.6,326.5,307.6 M296.9,329.8c0,17.3,13.3,30.7,30.2,30.7
				c13.6,0,23.7-7.1,27.8-19.7h-10.3c-3.2,6.9-9.1,10.9-17.5,10.9c-9.7,0-19.1-7.2-20.3-19.4h49.5c0.1-20.9-14.5-33.5-29.7-33.5
				C310.2,298.8,296.9,312.8,296.9,329.8 M184.6,279.2c-4.5,4-6.7,10.5-6.7,19.1v60.9h9.6v-49.4h13.4v-9.3h-13.4v-2.3
				c0-4,0.7-9.4,3.7-12.1c2.3-2.2,5.5-3,9.9-2.6v-8.8c-1.2-0.1-2.4-0.2-3.5-0.2C192.3,274.5,188,276.1,184.6,279.2"/>
		</defs>
		<clipPath id="SVGID_9_">
			<use xlink:href="#SVGID_8_"  style="overflow:visible;"/>
		</clipPath>
		
			<linearGradient id="SVGID_10_" gradientUnits="userSpaceOnUse" x1="-876.1528" y1="234.0346" x2="-875.1525" y2="234.0346" gradientTransform="matrix(337.1819 0 0 337.1819 295441.9375 -78586.4141)">
			<stop  offset="0" style="stop-color:#606060"/>
			<stop  offset="1" style="stop-color:#999999"/>
		</linearGradient>
		<rect x="19.1" y="274.5" class="st3" width="337.3" height="102.6"/>
	</g>
</g>
</svg>
