<?xml version="1.0" encoding="utf-8"?>
<!-- Generator: Adobe Illustrator 25.2.3, SVG Export Plug-In . SVG Version: 6.00 Build 0)  -->
<svg version="1.1" id="Ebene_1" xmlns="http://www.w3.org/2000/svg" xmlns:xlink="http://www.w3.org/1999/xlink" x="0px" y="0px"
	 viewBox="0 0 1138.4 259.6" style="enable-background:new 0 0 1138.4 259.6;" xml:space="preserve">
<style type="text/css">
	.st0{fill:#575757;}
	.st1{fill:#7B7B7B;}
	.st2{fill:#BBBBBB;}
	.st3{fill:#B6B6B6;}
</style>
<g id="Ebene_2_1_">
	<g id="Ebene_1-2">
		<path d="M324.8,104.1h8l35.5,29.7c1,0.9,2,1.7,3,2.6s1.9,1.8,2.8,2.9c-0.1-2.1-0.2-3.9-0.3-5.3s-0.1-2.6-0.1-3.4v-26.5h10.6v50.4
			h-8l-37-31.2c-0.7-0.7-1.4-1.3-2.1-2s-1.4-1.4-2.1-2.2c0.2,2,0.3,3.6,0.4,4.9s0.1,2.4,0.1,3.1v27.3h-10.6V104.1z"/>
		<path d="M440.1,110.2c0.3-1.4,1.1-2.7,2.1-3.7c1.1-0.9,2.4-1.6,3.9-1.8c1.9-0.4,3.9-0.6,5.9-0.5h37.1c2,0,4,0.1,5.9,0.5
			c1.4,0.3,2.8,0.9,3.9,1.8c1,1,1.8,2.3,2.1,3.7c0.5,1.9,0.7,3.9,0.6,5.9v26.6c0,2-0.2,3.9-0.6,5.9c-0.3,1.4-1.1,2.7-2.1,3.7
			c-1.1,0.9-2.4,1.6-3.8,1.8c-1.9,0.4-3.9,0.6-5.9,0.5H452c-2,0-4-0.1-5.9-0.5c-1.4-0.3-2.8-0.9-3.9-1.9c-1-1-1.8-2.3-2.1-3.7
			c-0.5-1.9-0.7-3.9-0.6-5.9v-26.6C439.4,114.1,439.6,112.1,440.1,110.2z M489.9,145.1v-31.9h-38.7v31.9H489.9z"/>
		<path d="M545,104.1h13.4l20.4,36.4l19.4-36.4H610l-27.8,50.4h-8.1L545,104.1z"/>
		<path d="M673.2,104.1h11.3l28.9,50.4h-13.2l-6.1-11h-31.9l-5.9,11h-11.7L673.2,104.1z M689.3,134.4l-10.8-20.5l-11.2,20.5H689.3z"
			/>
		<path d="M771.1,112.9v10.8h31.5c2,0,4,0.1,6,0.5c1.4,0.3,2.8,0.9,3.9,1.9c1,1,1.8,2.3,2.1,3.7c0.5,1.9,0.7,3.9,0.6,5.9v6.9
			c0,2-0.2,3.9-0.6,5.9c-0.3,1.4-1.1,2.7-2.1,3.7c-1.1,0.9-2.5,1.6-3.9,1.9c-2,0.4-4,0.6-6,0.5h-31.2c-2,0-4-0.1-6-0.5
			c-1.4-0.3-2.8-0.9-3.9-1.9c-1-1-1.8-2.3-2.1-3.7c-0.5-1.9-0.7-3.9-0.6-5.9v-1.4l10.4-2.1v6h35.7v-11.6h-31.5c-2,0-4-0.1-5.9-0.5
			c-1.4-0.3-2.8-0.9-3.9-1.9c-1-1-1.8-2.3-2.1-3.7c-0.5-1.9-0.7-3.9-0.6-5.9v-5.6c0-2,0.2-3.9,0.6-5.9c0.3-1.4,1.1-2.7,2.1-3.7
			c1.1-0.9,2.4-1.6,3.9-1.8c1.9-0.4,3.9-0.6,5.9-0.5H802c1.9,0,3.8,0.1,5.7,0.5c1.4,0.2,2.8,0.9,3.9,1.8c1,0.9,1.8,2.1,2.2,3.4
			c0.5,1.7,0.7,3.6,0.7,5.4v1.1l-10.3,2.4v-5.8L771.1,112.9z"/>
		<path d="M893.7,154.6H882v-41.4h-23.2v-9h58.1v9h-23.2V154.6z"/>
		<path d="M961.6,110.2c0.3-1.4,1.1-2.7,2.1-3.7c1.1-0.9,2.4-1.6,3.9-1.8c1.9-0.4,3.9-0.6,5.9-0.5h37.1c2,0,4,0.1,5.9,0.5
			c1.4,0.3,2.8,0.9,3.9,1.8c1,1,1.8,2.3,2.1,3.7c0.5,1.9,0.7,3.9,0.6,5.9v26.6c0,2-0.2,3.9-0.6,5.9c-0.3,1.4-1.1,2.7-2.1,3.7
			c-1.1,0.9-2.4,1.6-3.9,1.9c-1.9,0.4-3.9,0.6-5.9,0.5h-37.1c-2,0-4-0.1-5.9-0.5c-1.4-0.3-2.8-0.9-3.9-1.9c-1-1-1.8-2.3-2.1-3.7
			c-0.5-1.9-0.7-3.9-0.6-5.9v-26.6C961,114.1,961.2,112.1,961.6,110.2z M1011.4,145.1v-31.9h-38.7v31.9H1011.4z"/>
		<path d="M1078.6,104.1h43.2c3.9,0,6.8,0.7,8.6,2.2c1.8,1.5,2.7,4,2.7,7.5v11.8c0,3.5-0.9,6-2.7,7.5s-4.7,2.2-8.6,2.2h-6.6
			l23.2,19.1h-16.8l-20.3-19.1h-11.1v19.1h-11.5V104.1z M1090.1,112.8v14.1h26.4c1.4,0.1,2.7-0.2,4-0.7c0.8-0.5,1.3-1.6,1.3-3.3
			v-6.1c0-1.7-0.4-2.8-1.3-3.3c-1.3-0.6-2.6-0.8-4-0.7L1090.1,112.8z"/>
		<path class="st0" d="M180.1,132.8c-0.1,2.2,0.3,4.3,0.9,6.4c0.8,2.2,2,4.2,3.7,5.9l1.9,1.7l18,16.3c1.7,1.5,3.4,3.1,5.1,4.6
			c3.2,2.8,7,5,11.1,6.2c5.5,1.7,11,3.3,16.5,5l31.9,9.6l33.1,10l3.4,1c1.1,0.5,2.2,0.8,3.4,0.8c1.5-0.2,2.6-1.7,2.3-3.2
			c-0.1-0.7-0.5-1.4-1.1-1.8l-31.3-22l-9.8-6.9c-3.5-2.3-5.9-5.9-6.8-10c-0.3-1.9-0.3-3.7-0.2-5.6v-44.8c-0.1-2.9,0.5-5.9,1.8-8.5
			c1.7-3.1,4.2-4.9,7-6.8l12.2-8.8L300,70l4-3c1.3-0.9,2.7-1.8,3.9-2.8c1.1-1,1.2-2.8,0.2-3.9c-0.6-0.6-1.4-1-2.2-0.9
			c-1.3,0.3-2.7,0.7-3.9,1.3l-4,1.4l-8.7,3l-18.1,6.3l-28.9,10.1c-1.6,0.6-3.2,1.1-4.9,1.7c-2.9,1.2-5,3.9-5.4,7
			c-0.1,1.6-0.1,3.1,0,4.7l0.1,55.1v0.1c0,0.8-0.1,1.6-0.4,2.3c-0.7,1.3-2.4,1.8-3.7,1.1c-0.1,0-0.2-0.1-0.2-0.1
			c-0.6-0.4-1.1-0.9-1.6-1.4l-7.4-6.2l-25.2-21l-7.3-6.1c-0.7-0.7-1.5-1.3-2.4-1.8c-1.4-0.5-3,0.3-3.5,1.7c0,0.1,0,0.1-0.1,0.2
			c-0.1,0.5-0.2,0.9-0.1,1.4L180.1,132.8L180.1,132.8z"/>
		<path class="st1" d="M225.2,126.9c0.1-2.2-0.2-4.4-0.9-6.4c-0.8-2.2-2-4.2-3.7-5.9c-0.6-0.6-1.3-1.1-1.9-1.7l-18-16.3
			c-1.7-1.5-3.4-3.1-5.1-4.6c-3.2-2.8-7-5-11.1-6.2c-5.5-1.7-11-3.3-16.5-5l-31.9-9.6l-33.1-10l-3.4-1c-1.1-0.5-2.2-0.7-3.4-0.8
			c-1.5,0.2-2.6,1.6-2.4,3.2c0.1,0.7,0.5,1.4,1.1,1.8l31.3,22l9.8,6.9c3.5,2.3,5.9,5.9,6.8,10c0.3,1.9,0.3,3.7,0.2,5.6v44.8
			c0.1,2.9-0.5,5.9-1.8,8.5c-1.7,3.1-4.2,4.9-7,6.8l-12.2,8.8l-16.7,12l-4.2,3c-1.3,0.9-2.7,1.8-3.9,2.8c-1.2,1-1.3,2.8-0.2,3.9
			c0.6,0.6,1.4,1,2.2,0.9c1.3-0.3,2.7-0.7,3.9-1.3l4.1-1.4l8.7-3l18.1-6.3l28.9-10c1.6-0.6,3.2-1.1,4.9-1.7c2.9-1.2,5-3.9,5.4-7
			c0.1-1.6,0.1-3.1,0-4.7l-0.1-55.1v-0.1c0-0.8,0.1-1.6,0.4-2.3c0.7-1.3,2.4-1.8,3.7-1.1c0.1,0,0.1,0.1,0.2,0.1
			c0.6,0.4,1.1,0.9,1.6,1.4l7.4,6.2l25.2,21l7.3,6.1c0.7,0.7,1.5,1.3,2.4,1.8c1.4,0.5,3-0.2,3.5-1.7c0-0.1,0-0.1,0.1-0.2
			c0.1-0.5,0.2-1,0.1-1.4L225.2,126.9L225.2,126.9z"/>
		<path class="st2" d="M384.7,98.7h0.1c0.8,0,1.5-0.3,2-0.9c27.4-31.9,25.1-65.3-11.2-84c-49.4-25.6-143-14.4-209.1,24.9
			c-1.1,0.6-2.1,1.3-3.1,2c65.3-35.2,153-44.4,200.3-19.9c32.5,16.8,37.7,45.3,18.8,74c-0.7,1.3-0.3,2.9,1,3.6
			C383.8,98.6,384.2,98.7,384.7,98.7z"/>
		<path class="st2" d="M352.6,48.2c-1.4-2-3-3.7-4.8-5.3c-1.8-1.6-3.6-3.2-5.6-4.6c-4.1-2.9-8.4-5.4-13-7.4
			c-9.3-4.1-19.1-7.1-29.2-8.7c-20.4-3.6-41.4-3.5-61.9-1c-20.7,2.4-41,7.3-60.5,14.6c-8.6,3.2-17.3,6.8-25.2,11.5
			c-3.8,2.2-7.5,4.7-11,7.4c-1.3,1-2.4,2.4-1.5,4.1c0.4,0.6,1,1.1,1.7,1.3c6.3,2.1,12.7,3.8,19.1,5.7l28,8.4
			c2.1,0.6,4.2,1.3,6.4,1.9s3.9-1.6,5.4-2.9c2.1-1.7,4.4-3.2,6.7-4.6c14.5-8.4,30.1-14.7,46.4-18.8c16.2-4.1,32.8-6.1,49.5-6
			c14.5,0.2,29.3,2,42.9,7.2c1.3,0.5,3.1,1.7,4.5,1.5c1.5-0.1,2.6-1.5,2.4-3C353,49.1,352.8,48.6,352.6,48.2z"/>
		<path class="st3" d="M20.7,161h-0.1c-0.8,0-1.5,0.3-2,0.9c-27.4,32-25.1,65.3,11.2,84c49.4,25.6,143,14.4,209.1-24.9
			c1.1-0.6,2.1-1.3,3.1-1.9C176.6,254.3,89,263.4,41.7,239C9.3,222.2,4,193.7,22.9,165c0.8-1.2,0.4-2.9-0.9-3.6
			C21.6,161.1,21.2,161,20.7,161z"/>
		<path class="st3" d="M52.8,211.4c1.4,2,3,3.7,4.8,5.3c1.8,1.6,3.6,3.2,5.6,4.6c4.1,2.9,8.4,5.4,13,7.4c9.3,4.1,19.1,7,29.2,8.7
			c20.4,3.6,41.4,3.4,61.9,1c20.7-2.4,40.9-7.2,60.4-14.5c8.6-3.3,17.3-6.8,25.3-11.6c3.8-2.3,7.5-4.7,11-7.4c1.3-1,2.4-2.4,1.5-4.1
			c-0.4-0.6-1-1.1-1.7-1.3c-6.3-2.1-12.7-3.8-19.1-5.7l-28-8.4c-2.1-0.6-4.2-1.4-6.4-1.9s-3.9,1.6-5.5,2.9c-2.1,1.7-4.4,3.2-6.7,4.6
			c-14.5,8.4-30.1,14.7-46.4,18.8c-16.2,4.1-32.8,6.1-49.4,6c-14.5-0.1-29.3-2-42.9-7.2c-1.3-0.5-3.1-1.7-4.5-1.5
			c-1.5,0.1-2.6,1.5-2.4,3C52.4,210.6,52.5,211,52.8,211.4z"/>
	</g>
</g>
</svg>
