<svg xmlns="http://www.w3.org/2000/svg" viewBox="0 0 87.69 87"><defs><style>.cls-1{fill:#047;}.cls-1,.cls-2{stroke:#047;stroke-linecap:round;stroke-linejoin:round;stroke-width:4px;}.cls-2{fill:none;}</style></defs><g id="Ebene_2" data-name="Ebene 2"><g id="Ebene_1-2" data-name="Ebene 1"><polygon class="cls-1" points="43.85 8.87 40.96 10.88 41.98 7.52 39.18 5.39 42.69 5.32 43.85 2 45 5.32 48.52 5.39 45.72 7.52 46.73 10.88 43.85 8.87"/><polygon class="cls-1" points="43.85 82.99 40.96 85 41.98 81.63 39.18 79.51 42.69 79.44 43.85 76.12 45 79.44 48.52 79.51 45.72 81.63 46.73 85 43.85 82.99"/><polygon class="cls-1" points="23.39 12.71 20.59 10.58 24.1 10.51 25.26 7.19 26.41 10.51 29.93 10.58 27.13 12.71 28.14 16.07 25.26 14.06 22.37 16.07 23.39 12.71"/><polygon class="cls-1" points="23.39 76.63 20.59 74.5 24.1 74.43 25.26 71.11 26.41 74.43 29.93 74.5 27.13 76.63 28.14 79.99 25.26 77.98 22.37 79.99 23.39 76.63"/><polygon class="cls-1" points="11.63 27.52 8.74 29.53 9.76 26.16 6.96 24.04 10.48 23.97 11.63 20.65 12.79 23.97 16.3 24.04 13.5 26.16 14.52 29.53 11.63 27.52"/><polygon class="cls-1" points="11.63 64.41 8.74 66.42 9.76 63.05 6.96 60.93 10.48 60.85 11.63 57.53 12.79 60.85 16.3 60.93 13.5 63.05 14.52 66.42 11.63 64.41"/><polygon class="cls-1" points="6.67 46.25 3.78 48.26 4.8 44.9 2 42.77 5.51 42.7 6.67 39.38 7.82 42.7 11.34 42.77 8.54 44.9 9.56 48.26 6.67 46.25"/><polygon class="cls-1" points="60.57 12.71 57.76 10.58 61.28 10.51 62.44 7.19 63.59 10.51 67.11 10.58 64.3 12.71 65.32 16.07 62.44 14.06 59.55 16.07 60.57 12.71"/><polygon class="cls-1" points="60.57 76.63 57.76 74.5 61.28 74.43 62.44 71.11 63.59 74.43 67.11 74.5 64.3 76.63 65.32 79.99 62.44 77.98 59.55 79.99 60.57 76.63"/><polygon class="cls-1" points="74.19 26.16 71.39 24.04 74.91 23.97 76.06 20.65 77.22 23.97 80.73 24.04 77.93 26.16 78.95 29.53 76.06 27.52 73.17 29.53 74.19 26.16"/><polygon class="cls-1" points="74.19 63.05 71.39 60.93 74.91 60.85 76.06 57.53 77.22 60.85 80.73 60.93 77.93 63.05 78.95 66.42 76.06 64.41 73.17 66.42 74.19 63.05"/><polygon class="cls-1" points="81.02 46.25 78.14 48.26 79.16 44.9 76.35 42.77 79.87 42.7 81.02 39.38 82.18 42.7 85.69 42.77 82.89 44.9 83.91 48.26 81.02 46.25"/><path class="cls-2" d="M34.44,59.05c0,3.62,4.31,6.55,9.63,6.55s9.63-2.93,9.63-6.55a5.84,5.84,0,0,0-3.09-4.8L37.08,47A5.87,5.87,0,0,1,34,42.22c0-3.39,3.78-6.17,8.62-6.52"/><path class="cls-2" d="M53.25,28c0-3.62-4.31-6.55-9.63-6.55S34,24.33,34,28a5.84,5.84,0,0,0,3.09,4.8L50.61,40a5.87,5.87,0,0,1,3.09,4.81c0,3.37-3.74,6.15-8.56,6.51"/></g></g></svg>