<svg xmlns="http://www.w3.org/2000/svg" viewBox="0 0 82.74 82.74"><defs><style>.cls-1{fill:none;stroke:#047;stroke-linecap:round;stroke-linejoin:round;stroke-width:4px;}</style></defs><g id="Ebene_2" data-name="Ebene 2"><g id="Ebene_1-2" data-name="Ebene 1"><line class="cls-1" x1="45.43" y1="2" x2="45.43" y2="7.29"/><line class="cls-1" x1="27.77" y1="6.73" x2="30.42" y2="11.31"/><line class="cls-1" x1="60.44" y1="63.31" x2="63.09" y2="67.89"/><line class="cls-1" x1="14.85" y1="19.66" x2="19.43" y2="22.3"/><line class="cls-1" x1="71.43" y1="52.32" x2="76.01" y2="54.97"/><line class="cls-1" x1="75.45" y1="37.31" x2="80.74" y2="37.31"/><line class="cls-1" x1="71.43" y1="22.3" x2="76.01" y2="19.66"/><line class="cls-1" x1="60.44" y1="11.31" x2="63.09" y2="6.73"/><path class="cls-1" d="M38.52,67.52A49.93,49.93,0,0,1,25,57.8a50,50,0,0,1-9.73-13.58L21.43,38,9.3,25.88,2.11,34.62C1.18,45,6,57.29,15.7,67S37.76,81.56,48.12,80.63l8.74-7.19L44.73,61.31Z"/><path class="cls-1" d="M11.37,28A35.32,35.32,0,1,1,54.78,71.37"/><polyline class="cls-1" points="59.77 41.75 45.8 41.75 56.02 27.9 56.02 46.72"/><path class="cls-1" d="M31.09,33.92a6,6,0,0,1,6-6l.49,0a5.09,5.09,0,0,1,3.16,8.51L31.4,46.72H42.34"/></g></g></svg>