<svg xmlns="http://www.w3.org/2000/svg" viewBox="0 0 112.94 69.56"><defs><style>.cls-1{fill:none;stroke:#047;stroke-linecap:round;stroke-linejoin:round;stroke-width:4px;}</style></defs><g id="Ebene_2" data-name="Ebene 2"><g id="Ebene_1-2" data-name="Ebene 1"><path class="cls-1" d="M94.84,34.8c11.89,0,16.1,11.34,16.1,16.4a17.36,17.36,0,0,1-4.11,11.33c-5,5-12.81,5-13.21,5H21.82C18.37,67.56,2,63.78,2,44.89a23.48,23.48,0,0,1,6.6-16.4,22.14,22.14,0,0,1,16.52-6.31,2.25,2.25,0,0,0,2-1.25A32.24,32.24,0,0,1,56.47,2c16.92,0,31,13.45,32.18,30.68,0,.84-.07,1.66.85,2.12.52.26,4.12,0,5.34,0"/><line class="cls-1" x1="31.45" y1="38.35" x2="31.45" y2="49.98"/><line class="cls-1" x1="25.63" y1="44.17" x2="37.26" y2="44.17"/></g></g></svg>