<svg xmlns="http://www.w3.org/2000/svg" viewBox="0 0 98.38 98.38"><defs><style>.cls-1{isolation:isolate;}.cls-2{fill:#047;}</style></defs><g id="Ebene_2" data-name="Ebene 2"><g id="Ebene_1-2" data-name="Ebene 1"><g class="cls-1"><path class="cls-2" d="M55.34,28.69A14.35,14.35,0,1,0,69.69,43,14.44,14.44,0,0,0,55.34,28.69Zm0,32.8A18.45,18.45,0,1,1,73.79,43,18.37,18.37,0,0,1,55.34,61.49Z"/><path class="cls-2" d="M8.2,18.45a4.16,4.16,0,0,0-4.1,4.1,4,4,0,0,0,4.1,4.1,4,4,0,0,0,4.1-4.1A4.16,4.16,0,0,0,8.2,18.45Zm0,12.29A8.31,8.31,0,0,1,0,22.55a8.31,8.31,0,0,1,8.2-8.2,8.31,8.31,0,0,1,8.2,8.2A8.31,8.31,0,0,1,8.2,30.74Z"/><path class="cls-2" d="M90.18,4.1a4.16,4.16,0,0,0-4.1,4.1,4.1,4.1,0,1,0,8.2,0A4.16,4.16,0,0,0,90.18,4.1Zm0,12.3A8.32,8.32,0,0,1,82,8.2a8.2,8.2,0,1,1,16.4,0A8.32,8.32,0,0,1,90.18,16.4Z"/><path class="cls-2" d="M8.2,86.08a4.16,4.16,0,0,0-4.1,4.1,4,4,0,0,0,4.1,4.1,4,4,0,0,0,4.1-4.1A4.16,4.16,0,0,0,8.2,86.08Zm0,12.3A8.2,8.2,0,1,1,8.2,82a8.2,8.2,0,1,1,0,16.4Z"/><path class="cls-2" d="M55.34,86.08a4.16,4.16,0,0,0-4.1,4.1,4.1,4.1,0,1,0,8.2,0A4.16,4.16,0,0,0,55.34,86.08Zm0,12.3a8.2,8.2,0,1,1,8.2-8.2A8.32,8.32,0,0,1,55.34,98.38Z"/><polygon class="cls-2" points="14.01 87.45 11.27 84.38 42.36 53.29 45.09 56.37 14.01 87.45"/><polygon class="cls-2" points="68.32 33.14 65.59 30.06 84.38 11.27 87.45 14.01 68.32 33.14"/><polygon class="cls-2" points="39.63 38.6 12.98 27.33 14.69 23.57 40.99 34.84 39.63 38.6"/><polygon class="cls-2" points="83.35 59.44 68.66 53.29 70.37 49.53 85.06 55.68 83.35 59.44"/><rect class="cls-2" x="53.29" y="59.44" width="4.1" height="24.6"/><path class="cls-2" d="M90.18,55.34a4.16,4.16,0,0,0-4.1,4.1,4.1,4.1,0,1,0,8.2,0A4.16,4.16,0,0,0,90.18,55.34Zm0,12.3a8.2,8.2,0,1,1,8.2-8.2A8.32,8.32,0,0,1,90.18,67.64Z"/></g></g></g></svg>