<svg xmlns="http://www.w3.org/2000/svg" viewBox="0 0 112.83 78.03"><defs><style>.cls-1{fill:none;stroke:#047;stroke-linecap:round;stroke-linejoin:round;stroke-width:4px;}</style></defs><g id="Ebene_2" data-name="Ebene 2"><g id="Ebene_1-2" data-name="Ebene 1"><g id="Ebene_2-2" data-name="Ebene 2"><g id="Ebene_1-2-2" data-name="Ebene 1-2"><path class="cls-1" d="M9.47,62.41C5.42,59,2,53.53,2,44.89a23.49,23.49,0,0,1,6.6-16.4,22.14,22.14,0,0,1,16.52-6.31,2.26,2.26,0,0,0,2-1.25A32.25,32.25,0,0,1,56.47,2c16.92,0,31,13.45,32.18,30.68,0,.84-.18,2.16.85,2.12,4.77-.17,5.23-.11,5.23-.11,11.89,0,16.1,11.34,16.1,16.4a17.42,17.42,0,0,1-4.11,11.33"/></g></g><rect class="cls-1" x="17.6" y="53.03" width="80.92" height="23"/><circle class="cls-1" cx="86.02" cy="64.53" r="4.25"/><line class="cls-1" x1="71.02" y1="66.78" x2="26.1" y2="66.78"/></g></g></svg>