<svg xmlns="http://www.w3.org/2000/svg" viewBox="0 0 76 92.55"><defs><style>.cls-1{fill:none;stroke:#047;stroke-linecap:round;stroke-linejoin:round;stroke-width:4px;}</style></defs><g id="Ebene_2" data-name="Ebene 2"><g id="Ebene_1-2" data-name="Ebene 1"><circle class="cls-1" cx="38" cy="36.7" r="23.16"/><path class="cls-1" d="M42.11,3h0a9.38,9.38,0,0,1,12.4,4h0a9.37,9.37,0,0,0,6.65,4.84h0a9.36,9.36,0,0,1,7.66,10.54h0a9.39,9.39,0,0,0,2.54,7.82h0a9.36,9.36,0,0,1,0,13h0A9.42,9.42,0,0,0,68.82,51h0a9.37,9.37,0,0,1-7.66,10.54h0a9.35,9.35,0,0,0-6.65,4.84h0a9.38,9.38,0,0,1-12.4,4h0a9.34,9.34,0,0,0-8.22,0h0a9.38,9.38,0,0,1-12.4-4h0a9.35,9.35,0,0,0-6.65-4.84h0A9.37,9.37,0,0,1,7.18,51h0a9.42,9.42,0,0,0-2.54-7.83h0a9.36,9.36,0,0,1,0-13h0a9.39,9.39,0,0,0,2.54-7.82h0a9.36,9.36,0,0,1,7.66-10.54h0A9.37,9.37,0,0,0,21.49,7h0a9.38,9.38,0,0,1,12.4-4h0A9.34,9.34,0,0,0,42.11,3Z"/><polyline class="cls-1" points="42.28 70.52 49.58 90.55 55.37 80.81 66.06 84.55 58.11 62.69"/><polyline class="cls-1" points="17.89 62.69 9.94 84.55 20.63 80.81 26.42 90.55 33.72 70.52"/></g></g></svg>