<svg xmlns="http://www.w3.org/2000/svg" viewBox="0 0 15.06 13.04"><defs><style>.cls-1{fill:none;stroke:#047;stroke-linecap:round;stroke-linejoin:round;}</style></defs><g id="Ebene_2" data-name="Ebene 2"><g id="Ebene_1-2" data-name="Ebene 1"><path class="cls-1" d="M8.29,5.47V1A.45.45,0,0,0,7.85.5H7.19A.46.46,0,0,0,6.75,1V5.47a.72.72,0,0,0,.68.75h.18A.72.72,0,0,0,8.29,5.47Zm.8,7.07.82-7.43M7.47,12.54l.06-6.29M5.86,12.54l-.7-7.43m-.92,7.43L2.78,5.11m9.5,0L10.7,12.54m-4-7.43H.74a.26.26,0,0,0-.23.34l2.12,7.09h9.69l2.23-7.09a.25.25,0,0,0-.23-.34H8.43M1.88,10H13M1.26,7.71H13.75"/></g></g></svg>