<svg xmlns="http://www.w3.org/2000/svg" viewBox="0 0 94.5 87"><defs><style>.cls-1,.cls-2,.cls-3{fill:none;stroke:#047;stroke-linecap:round;stroke-linejoin:round;stroke-width:4px;}.cls-2{stroke-dasharray:6.5 8.67;}.cls-3{stroke-dasharray:4.64 6.18;}</style></defs><g id="Ebene_2" data-name="Ebene 2"><g id="Ebene_1-2" data-name="Ebene 1"><rect class="cls-1" x="2" y="62" width="90.5" height="23"/><circle class="cls-1" cx="80" cy="73.5" r="4.25"/><line class="cls-1" x1="65" y1="75.75" x2="10.5" y2="75.75"/><polyline class="cls-1" points="92.5 52 92.5 55 89.5 55"/><line class="cls-2" x1="80.83" y1="55" x2="9.33" y2="55"/><polyline class="cls-1" points="5 55 2 55 2 52"/><line class="cls-3" x1="2" y1="45.82" x2="2" y2="38.09"/><polyline class="cls-1" points="2 35 2 32 5 32"/><line class="cls-2" x1="13.67" y1="32" x2="85.17" y2="32"/><polyline class="cls-1" points="89.5 32 92.5 32 92.5 35"/><line class="cls-3" x1="92.5" y1="41.18" x2="92.5" y2="48.91"/><circle class="cls-1" cx="80" cy="43.5" r="4.25"/><line class="cls-1" x1="65" y1="45.75" x2="10.5" y2="45.75"/><polyline class="cls-1" points="92.5 22 92.5 25 89.5 25"/><line class="cls-2" x1="80.83" y1="25" x2="9.33" y2="25"/><polyline class="cls-1" points="5 25 2 25 2 22"/><line class="cls-3" x1="2" y1="15.82" x2="2" y2="8.09"/><polyline class="cls-1" points="2 5 2 2 5 2"/><line class="cls-2" x1="13.67" y1="2" x2="85.17" y2="2"/><polyline class="cls-1" points="89.5 2 92.5 2 92.5 5"/><line class="cls-3" x1="92.5" y1="11.18" x2="92.5" y2="18.91"/><circle class="cls-1" cx="80" cy="13.5" r="4.25"/><line class="cls-1" x1="65" y1="15.75" x2="10.5" y2="15.75"/></g></g></svg>