<svg xmlns="http://www.w3.org/2000/svg" viewBox="0 0 94.5 55.67"><defs><style>.cls-1{fill:none;stroke:#047;stroke-linecap:round;stroke-linejoin:round;stroke-width:4px;}</style></defs><g id="Ebene_2" data-name="Ebene 2"><g id="Ebene_1-2" data-name="Ebene 1"><path class="cls-1" d="M34.3,33.38a10,10,0,1,1,0-20h6v20Z"/><line class="cls-1" x1="48.8" y1="18.23" x2="40.3" y2="18.23"/><line class="cls-1" x1="48.8" y1="28.52" x2="40.3" y2="28.52"/><path class="cls-1" d="M24.3,23.38H2V20.62L12.13,6.52A10.85,10.85,0,0,1,20.94,2H50.23a10.83,10.83,0,0,1,8,3.51L68.88,17.12l21.51,4.44a2.65,2.65,0,0,1,2.11,2.6V41.31A2.65,2.65,0,0,1,89.85,44H86.53a9.71,9.71,0,1,1-19.41,0H28.41A9.71,9.71,0,1,1,9,44H4.65A2.65,2.65,0,0,1,2,41.31V30.62"/></g></g></svg>