<svg xmlns="http://www.w3.org/2000/svg" viewBox="0 0 89.67 88.79"><defs><style>.cls-1{fill:none;stroke:#047;stroke-linecap:round;stroke-linejoin:round;stroke-width:4px;}</style></defs><g id="Ebene_2" data-name="Ebene 2"><g id="Ebene_1-2" data-name="Ebene 1"><rect class="cls-1" x="2" y="53.61" width="14.85" height="28.53"/><path class="cls-1" d="M16.85,57.27H31.71c8.63,0,14.16,7.25,14.16,7.25h9.84a3.63,3.63,0,0,1,3.63,3.63h0a3.63,3.63,0,0,1-3.63,3.63H35.16"/><path class="cls-1" d="M16.85,77.3l24.07,8.47a18,18,0,0,0,14.29-1L87.67,67.87l-2.34-1.38A15.19,15.19,0,0,0,73,65.07l-13.93,4.4"/><path class="cls-1" d="M27.84,47.18A29.19,29.19,0,1,1,63.22,58.25"/><path class="cls-1" d="M63.19,4.12c-7-1.86-14.9,4.44-13,7.38s5.63-.69,6.35,1.38,0,6.22,0,6.22-6.87,2.76-9.12,1-9.67-2.08-12.09,1.55-2.41,11.4,0,12.43,8-1.72,8.47,0,3.62,5.88,3.62,7.43-.69,10.54,2.25,10.54,7.25-2.77,7.77-6.22c0,0,4.49-2.76,1.9-6.74,0,0,7.77-5.23,5.7-9s-4.32-2.18-4.32-2.18l-1.38-3.66a10.48,10.48,0,0,1,8.81-2.76s6.34-4.71,6-9.61"/></g></g></svg>