<svg xmlns="http://www.w3.org/2000/svg" viewBox="0 0 76.94 90.07"><defs><style>.cls-1{fill:none;stroke:#047;stroke-linecap:round;stroke-linejoin:round;stroke-width:4px;}</style></defs><g id="Ebene_2" data-name="Ebene 2"><g id="Ebene_1-2" data-name="Ebene 1"><line class="cls-1" x1="2" y1="34.04" x2="2" y2="56.02"/><rect class="cls-1" x="11.66" y="34.04" width="10.32" height="21.98" rx="5.16"/><rect class="cls-1" x="30.64" y="34.04" width="10.32" height="21.98" rx="5.16"/><line class="cls-1" x1="52.96" y1="56.02" x2="74.94" y2="34.04"/><circle class="cls-1" cx="71.36" cy="52.44" r="3.58"/><circle class="cls-1" cx="56.54" cy="37.62" r="3.58"/><polyline class="cls-1" points="64.53 26.96 61.64 25.53 65.7 20.79 62.28 13.27 56.3 8.98 41.99 14.6 43.7 8.98 36.65 8.98 33.66 3.28 28.11 2 29.82 15.67 26.4 15.67 23.06 20.58 16.36 17.38 15.06 26.96"/><polyline class="cls-1" points="8.28 63.11 7.82 63.72 22.13 70.34 18.07 76.96 16.79 85.29 24.91 84.01 39.86 88.07 58.44 85.72 56.73 79.74 62.92 72.69 54.59 66.5 53.03 63.11"/></g></g></svg>