<svg xmlns="http://www.w3.org/2000/svg" viewBox="0 0 88.21 87"><defs><style>.cls-1{fill:none;stroke:#047;stroke-linecap:round;stroke-linejoin:round;stroke-width:4px;}.cls-2{fill:#047;}</style></defs><g id="Ebene_2" data-name="Ebene 2"><g id="Ebene_1-2" data-name="Ebene 1"><path class="cls-1" d="M5.84,27.17a41.51,41.51,0,0,1,76.32,0"/><path class="cls-1" d="M73.55,14.37C66,17.62,55.57,19.63,44,19.63s-21.83-2-29.34-5.17"/><path class="cls-1" d="M20,27.17C24,12.37,33.25,2,44,2S64,12.37,68,27.17"/><line class="cls-1" x1="44" y1="2" x2="44" y2="27.17"/><rect class="cls-1" x="2" y="36.34" width="23.54" height="48.66"/><line class="cls-1" x1="7.94" y1="50.25" x2="19.6" y2="50.25"/><line class="cls-1" x1="7.94" y1="56.62" x2="19.6" y2="56.62"/><circle class="cls-2" cx="13.77" cy="43.25" r="2"/><rect class="cls-1" x="32.33" y="36.34" width="23.54" height="48.66"/><line class="cls-1" x1="38.27" y1="50.25" x2="49.94" y2="50.25"/><line class="cls-1" x1="38.27" y1="56.62" x2="49.94" y2="56.62"/><circle class="cls-2" cx="44.1" cy="43.25" r="2"/><rect class="cls-1" x="62.67" y="36.34" width="23.54" height="48.66"/><line class="cls-1" x1="68.6" y1="50.25" x2="80.27" y2="50.25"/><line class="cls-1" x1="68.6" y1="56.62" x2="80.27" y2="56.62"/><circle class="cls-2" cx="74.44" cy="43.25" r="2"/></g></g></svg>