<?xml version="1.0" encoding="UTF-8" standalone="no"?>
<svg
   xmlns:dc="http://purl.org/dc/elements/1.1/"
   xmlns:cc="http://creativecommons.org/ns#"
   xmlns:rdf="http://www.w3.org/1999/02/22-rdf-syntax-ns#"
   xmlns:svg="http://www.w3.org/2000/svg"
   xmlns="http://www.w3.org/2000/svg"
   xmlns:xlink="http://www.w3.org/1999/xlink"
   xmlns:sodipodi="http://sodipodi.sourceforge.net/DTD/sodipodi-0.dtd"
   xmlns:inkscape="http://www.inkscape.org/namespaces/inkscape"
   width="160.0px"
   height="160.0px"
   viewBox="0 0 160.0 160.0"
   version="1.1"
   id="SVGRoot"
   sodipodi:docname="opensuseleap15.2.svg"
   inkscape:version="1.0.2 (e86c870879, 2021-01-15, custom)">
  <defs
     id="defs621">
    <linearGradient
       id="linearGradient14132-6">
      <stop
         style="stop-color:#b98309"
         offset="0"
         id="stop14134-2" />
      <stop
         style="stop-color:#382605"
         offset="1"
         id="stop14136-2" />
    </linearGradient>
    <filter
       id="filter14148-8"
       x="-0.10750898"
       width="1.215018"
       y="-0.10849553"
       height="1.2169911"
       style="color-interpolation-filters:sRGB">
      <feGaussianBlur
         stdDeviation="3.9237191"
         id="feGaussianBlur14150-8" />
    </filter>
    <filter
       id="filter14140-3"
       style="color-interpolation-filters:sRGB">
      <feGaussianBlur
         stdDeviation="2.4365744"
         id="feGaussianBlur14142-5" />
    </filter>
    <linearGradient
       id="linearGradient14168-5">
      <stop
         style="stop-color:#ebc40c"
         offset="0"
         id="stop14170-8" />
      <stop
         style="stop-color:#ebc40c;stop-opacity:0"
         offset="1"
         id="stop14172-0" />
    </linearGradient>
    <filter
       id="filter14176-5"
       style="color-interpolation-filters:sRGB">
      <feGaussianBlur
         stdDeviation="0.3702557"
         id="feGaussianBlur14178-0" />
    </filter>
    <filter
       id="filter15053-7"
       x="-0.10103524"
       width="1.2020705"
       y="-0.042669769"
       height="1.0853395"
       style="color-interpolation-filters:sRGB">
      <feGaussianBlur
         stdDeviation="1.1322032"
         id="feGaussianBlur15055-3" />
    </filter>
    <linearGradient
       id="linearGradient14830-4">
      <stop
         id="stop14832-6"
         offset="0"
         style="stop-color:#7c7c7c" />
      <stop
         id="stop14834-5"
         offset="1"
         style="stop-color:#7c7c7c;stop-opacity:0.32941177" />
    </linearGradient>
    <filter
       id="filter14812-5"
       x="-0.070455663"
       width="1.1409113"
       y="-0.15060219"
       height="1.3012044"
       style="color-interpolation-filters:sRGB">
      <feGaussianBlur
         stdDeviation="1.0252435"
         id="feGaussianBlur14814-2" />
    </filter>
    <filter
       id="filter14812-0-9"
       x="-0.070455663"
       width="1.1409113"
       y="-0.15060219"
       height="1.3012044"
       style="color-interpolation-filters:sRGB">
      <feGaussianBlur
         stdDeviation="1.0252435"
         id="feGaussianBlur14814-6-7" />
    </filter>
    <linearGradient
       id="linearGradient14518-6">
      <stop
         id="stop14540-0"
         offset="0"
         style="stop-color:#110800" />
      <stop
         style="stop-color:#a65a00;stop-opacity:0.80000001"
         offset="0.59066743"
         id="stop14542-5" />
      <stop
         style="stop-color:#ff921e;stop-opacity:0"
         offset="1"
         id="stop14522-4" />
    </linearGradient>
    <filter
       id="filter14897-2"
       x="-0.20050517"
       width="1.4010103"
       y="-0.23409025"
       height="1.4681805"
       style="color-interpolation-filters:sRGB">
      <feGaussianBlur
         stdDeviation="2.8444356"
         id="feGaussianBlur14899-5" />
    </filter>
    <filter
       id="filter14951-8"
       x="-0.091410659"
       width="1.1828213"
       y="-0.10672215"
       height="1.2134444"
       style="color-interpolation-filters:sRGB">
      <feGaussianBlur
         stdDeviation="1.2967831"
         id="feGaussianBlur14953-7" />
    </filter>
    <filter
       id="filter15211-9"
       x="-0.46932927"
       width="1.9386586"
       y="-0.27372435"
       height="1.5474488"
       style="color-interpolation-filters:sRGB">
      <feGaussianBlur
         stdDeviation="0.85991809"
         id="feGaussianBlur15213-7" />
    </filter>
    <filter
       id="filter14706-3"
       x="-0.60389674"
       width="2.2077935"
       y="-0.48226368"
       height="1.9645272"
       style="color-interpolation-filters:sRGB">
      <feGaussianBlur
         stdDeviation="2.6400036"
         id="feGaussianBlur14708-8" />
    </filter>
    <linearGradient
       id="linearGradient15103-0">
      <stop
         style="stop-color:#000000"
         offset="0"
         id="stop15105-1" />
      <stop
         style="stop-color:#000000;stop-opacity:0"
         offset="1"
         id="stop15107-6" />
    </linearGradient>
    <filter
       id="filter15115-3"
       style="color-interpolation-filters:sRGB">
      <feGaussianBlur
         stdDeviation="2.2091576"
         id="feGaussianBlur15117-8" />
    </filter>
    <linearGradient
       id="linearGradient14392-8">
      <stop
         style="stop-color:#3e2a06"
         offset="0"
         id="stop14394-3" />
      <stop
         style="stop-color:#ad780a"
         offset="1"
         id="stop14396-0" />
    </linearGradient>
    <filter
       id="filter14416-8"
       x="-0.14501533"
       width="1.2900307"
       y="-0.14299878"
       height="1.2859976"
       style="color-interpolation-filters:sRGB">
      <feGaussianBlur
         stdDeviation="4.7787162"
         id="feGaussianBlur14418-5" />
    </filter>
    <filter
       id="filter14432-2"
       x="-0.11529266"
       width="1.2305853"
       y="-0.12494507"
       height="1.2498901"
       style="color-interpolation-filters:sRGB">
      <feGaussianBlur
         stdDeviation="3.1725155"
         id="feGaussianBlur14434-2" />
    </filter>
    <linearGradient
       id="linearGradient17009">
      <stop
         style="stop-color:#f3cd0c"
         offset="0"
         id="stop17011" />
      <stop
         style="stop-color:#f3cd0c;stop-opacity:0"
         offset="1"
         id="stop17013" />
    </linearGradient>
    <filter
       id="filter17044"
       x="-0.020911871"
       width="1.0418237"
       y="-0.12926871"
       height="1.2585374"
       style="color-interpolation-filters:sRGB">
      <feGaussianBlur
         stdDeviation="0.47946431"
         id="feGaussianBlur17046" />
    </filter>
    <filter
       id="filter15185-2"
       x="-0.17754583"
       width="1.3550917"
       y="-0.15942827"
       height="1.3188565"
       style="color-interpolation-filters:sRGB">
      <feGaussianBlur
         stdDeviation="0.90083196"
         id="feGaussianBlur15187-7" />
    </filter>
    <filter
       height="1.1156476"
       y="-0.057823781"
       width="2.6331918"
       x="-0.81659585"
       id="filter4592-2"
       style="color-interpolation-filters:sRGB">
      <feGaussianBlur
         id="feGaussianBlur4594-6"
         stdDeviation="1.4463082" />
    </filter>
    <linearGradient
       id="linearGradient4417-0">
      <stop
         id="stop4419-4-4"
         offset="0"
         style="stop-color:#000000" />
      <stop
         id="stop4421-2-0"
         offset="1"
         style="stop-color:#000000;stop-opacity:0.24886878" />
    </linearGradient>
    <filter
       id="filter4538-7"
       style="color-interpolation-filters:sRGB">
      <feGaussianBlur
         id="feGaussianBlur4540-9"
         stdDeviation="0.7854602" />
    </filter>
    <filter
       id="filter4427-5-7"
       style="color-interpolation-filters:sRGB">
      <feGaussianBlur
         id="feGaussianBlur4429-4-8"
         stdDeviation="1.1383167" />
    </filter>
    <filter
       id="filter4487-6"
       style="color-interpolation-filters:sRGB">
      <feGaussianBlur
         id="feGaussianBlur4489-4"
         stdDeviation="0.6434074" />
    </filter>
    <filter
       id="filter14666-9"
       x="-0.11753157"
       width="1.2350631"
       y="-0.040046327"
       height="1.0800927"
       style="color-interpolation-filters:sRGB">
      <feGaussianBlur
         stdDeviation="1.352085"
         id="feGaussianBlur14668-7" />
    </filter>
    <linearGradient
       id="linearGradient29652-2">
      <stop
         style="stop-color:#c8c8c8"
         offset="0"
         id="stop29654-6" />
      <stop
         style="stop-color:#797978"
         offset="1"
         id="stop29656-1" />
    </linearGradient>
    <linearGradient
       id="linearGradient28469-0">
      <stop
         style="stop-color:#d2940a"
         offset="0"
         id="stop28479-4" />
      <stop
         style="stop-color:#d89c08"
         offset="0.75143719"
         id="stop28477-2" />
      <stop
         id="stop28485-7"
         offset="0.86579126"
         style="stop-color:#b67e07" />
      <stop
         id="stop28473-1"
         offset="1"
         style="stop-color:#946106" />
    </linearGradient>
    <filter
       height="1.429882"
       y="-0.21494099"
       width="1.3096611"
       x="-0.1548306"
       id="filter28502-8"
       style="color-interpolation-filters:sRGB">
      <feGaussianBlur
         id="feGaussianBlur28504-3"
         stdDeviation="0.89858666" />
    </filter>
    <filter
       id="filter15145-6"
       style="color-interpolation-filters:sRGB">
      <feGaussianBlur
         stdDeviation="0.75821369"
         id="feGaussianBlur15147-1" />
    </filter>
    <linearGradient
       id="linearGradient28275-8">
      <stop
         id="stop28277-1"
         offset="0"
         style="stop-color:#ad780a" />
      <stop
         style="stop-color:#d89e08"
         offset="0.11972899"
         id="stop28291-9" />
      <stop
         style="stop-color:#edb80b"
         offset="0.25514477"
         id="stop28289-6" />
      <stop
         style="stop-color:#ebc80d"
         offset="0.39194193"
         id="stop28287-6" />
      <stop
         style="stop-color:#f5d838"
         offset="0.52741116"
         id="stop28285-7" />
      <stop
         style="stop-color:#f6d811"
         offset="0.76906693"
         id="stop28283-7" />
      <stop
         id="stop28279-5"
         offset="1"
         style="stop-color:#f5cd31" />
    </linearGradient>
    <filter
       id="filter14963-7"
       x="-0.16095592"
       width="1.3219118"
       y="-0.13027605"
       height="1.260552"
       style="color-interpolation-filters:sRGB">
      <feGaussianBlur
         stdDeviation="0.84878819"
         id="feGaussianBlur14965-0" />
    </filter>
    <linearGradient
       id="linearGradient29529-6">
      <stop
         id="stop29531-0"
         offset="0"
         style="stop-color:#3a2903" />
      <stop
         style="stop-color:#735208"
         offset="0.55472803"
         id="stop29539-7" />
      <stop
         id="stop29533-8"
         offset="1"
         style="stop-color:#ac8c04" />
    </linearGradient>
    <filter
       id="filter15177-1"
       style="color-interpolation-filters:sRGB">
      <feGaussianBlur
         stdDeviation="0.11039302"
         id="feGaussianBlur15179-3" />
    </filter>
    <filter
       id="filter15173-0"
       x="-0.11644644"
       width="1.2328929"
       y="-0.10572958"
       height="1.2114592"
       style="color-interpolation-filters:sRGB">
      <feGaussianBlur
         stdDeviation="0.11039302"
         id="feGaussianBlur15175-4" />
    </filter>
    <linearGradient
       id="linearGradient28572-7">
      <stop
         id="stop28574-5"
         offset="0"
         style="stop-color:#f5ce2d" />
      <stop
         id="stop28576-0"
         offset="1"
         style="stop-color:#d79b08" />
    </linearGradient>
    <filter
       height="1.2722148"
       y="-0.13610739"
       width="1.2146032"
       x="-0.10730159"
       id="filter28584-4"
       style="color-interpolation-filters:sRGB">
      <feGaussianBlur
         id="feGaussianBlur28586-3"
         stdDeviation="0.2640625" />
    </filter>
    <linearGradient
       id="linearGradient29477-3">
      <stop
         id="stop29479-5"
         offset="0"
         style="stop-color:#757574;stop-opacity:0" />
      <stop
         style="stop-color:#757574"
         offset="0.26291031"
         id="stop29487-5" />
      <stop
         style="stop-color:#757574"
         offset="0.5"
         id="stop29485-0" />
      <stop
         id="stop29481-3"
         offset="1"
         style="stop-color:#757574;stop-opacity:0" />
    </linearGradient>
    <filter
       height="1.2921369"
       y="-0.14606842"
       width="1.4689326"
       x="-0.23446631"
       id="filter29493-2"
       style="color-interpolation-filters:sRGB">
      <feGaussianBlur
         id="feGaussianBlur29495-7"
         stdDeviation="0.51262416" />
    </filter>
    <linearGradient
       id="linearGradient29336-6">
      <stop
         id="stop29338-1"
         offset="0"
         style="stop-color:#646464;stop-opacity:0" />
      <stop
         style="stop-color:#646464;stop-opacity:0.5825243"
         offset="0.30628255"
         id="stop29344-7" />
      <stop
         id="stop29354-5"
         offset="0.47000006"
         style="stop-color:#646464" />
      <stop
         style="stop-color:#646464;stop-opacity:0.25728154"
         offset="0.72834015"
         id="stop29356-3" />
      <stop
         id="stop29340-6"
         offset="1"
         style="stop-color:#646464;stop-opacity:0" />
    </linearGradient>
    <filter
       id="filter29447-1"
       style="color-interpolation-filters:sRGB">
      <feGaussianBlur
         id="feGaussianBlur29449-4"
         stdDeviation="0.13475369" />
    </filter>
    <filter
       id="filter29350-1"
       style="color-interpolation-filters:sRGB">
      <feGaussianBlur
         id="feGaussianBlur29352-7"
         stdDeviation="0.1475" />
    </filter>
    <linearGradient
       id="linearGradient28976-3">
      <stop
         id="stop28978-7"
         offset="0"
         style="stop-color:#747474" />
      <stop
         style="stop-color:#8c8c8c"
         offset="0.125"
         id="stop29259-5" />
      <stop
         style="stop-color:#a4a4a4"
         offset="0.25"
         id="stop29257-0" />
      <stop
         style="stop-color:#d4d4d4"
         offset="0.5"
         id="stop28984-4" />
      <stop
         id="stop28986-0"
         offset="0.61919296"
         style="stop-color:#d4d4d4" />
      <stop
         id="stop28980-2"
         offset="1"
         style="stop-color:#7c7c7c" />
    </linearGradient>
    <filter
       height="1.4183974"
       y="-0.2091987"
       width="1.3159075"
       x="-0.15795375"
       id="filter28927-8"
       style="color-interpolation-filters:sRGB">
      <feGaussianBlur
         id="feGaussianBlur28929-2"
         stdDeviation="0.24891089" />
    </filter>
    <linearGradient
       id="linearGradient28935-8">
      <stop
         id="stop28937-7"
         offset="0"
         style="stop-color:#949494;stop-opacity:0.39215687" />
      <stop
         style="stop-color:#949494"
         offset="0.5"
         id="stop28943-3" />
      <stop
         id="stop28939-8"
         offset="1"
         style="stop-color:#949494;stop-opacity:0.39215687" />
    </linearGradient>
    <filter
       height="1.3626815"
       y="-0.18134074"
       width="1.3573579"
       x="-0.17867894"
       id="filter28949-8"
       style="color-interpolation-filters:sRGB">
      <feGaussianBlur
         id="feGaussianBlur28951-1"
         stdDeviation="0.51947927" />
    </filter>
    <filter
       id="filter15133-1"
       x="-0.2921797"
       width="1.5843594"
       y="-0.30825046"
       height="1.6165009"
       style="color-interpolation-filters:sRGB">
      <feGaussianBlur
         stdDeviation="1.7403319"
         id="feGaussianBlur15135-5" />
    </filter>
    <linearGradient
       id="linearGradient28853-5">
      <stop
         id="stop28855-3"
         offset="0"
         style="stop-color:#020204" />
      <stop
         style="stop-color:#020204"
         offset="0.73448181"
         id="stop28865-0" />
      <stop
         id="stop28857-9"
         offset="1"
         style="stop-color:#5c5c5c" />
    </linearGradient>
    <linearGradient
       id="linearGradient28799-3">
      <stop
         id="stop28801-6"
         offset="0"
         style="stop-color:#fefefc" />
      <stop
         style="stop-color:#fefefc"
         offset="0.75733864"
         id="stop28807-7" />
      <stop
         id="stop28803-0"
         offset="1"
         style="stop-color:#d4d4d4" />
    </linearGradient>
    <filter
       id="filter30475-4"
       style="color-interpolation-filters:sRGB">
      <feGaussianBlur
         id="feGaussianBlur30477-9"
         stdDeviation="0.93152507" />
    </filter>
    <filter
       height="1.2583811"
       y="-0.12919053"
       width="1.1527554"
       x="-0.07637769"
       id="filter30479-2"
       style="color-interpolation-filters:sRGB">
      <feGaussianBlur
         id="feGaussianBlur30481-9"
         stdDeviation="2.0355046" />
    </filter>
    <radialGradient
       xlink:href="#linearGradient28799-3"
       id="radialGradient18806"
       gradientUnits="userSpaceOnUse"
       gradientTransform="matrix(0.81524244,-0.03431182,0.02961133,1.2479887,-208.43744,-35.542647)"
       cx="223.19559"
       cy="137.66095"
       fx="223.19559"
       fy="137.66095"
       r="14.572236" />
    <radialGradient
       xlink:href="#linearGradient28799-3"
       id="radialGradient18808"
       gradientUnits="userSpaceOnUse"
       gradientTransform="matrix(1.0857794,-0.03431182,0.03943781,1.2479887,-233.54194,-35.542647)"
       cx="223.19559"
       cy="137.66095"
       fx="223.19559"
       fy="137.66095"
       r="14.572236" />
    <radialGradient
       xlink:href="#linearGradient28853-5"
       id="radialGradient18810"
       gradientUnits="userSpaceOnUse"
       gradientTransform="matrix(0.69784558,-0.50717348,0.46034105,0.63340638,-271.10191,183.03011)"
       cx="275.53763"
       cy="150.65126"
       fx="275.53763"
       fy="150.65126"
       r="15.382211" />
    <linearGradient
       xlink:href="#linearGradient28935-8"
       id="linearGradient18812"
       gradientUnits="userSpaceOnUse"
       gradientTransform="translate(-60.00015,-58.362183)"
       x1="213.01591"
       y1="132.76981"
       x2="219.73343"
       y2="140.72476" />
    <linearGradient
       xlink:href="#linearGradient28976-3"
       id="linearGradient18814"
       gradientUnits="userSpaceOnUse"
       gradientTransform="translate(-250)"
       x1="337.25"
       y1="119.98718"
       x2="358.625"
       y2="132.48718" />
    <linearGradient
       xlink:href="#linearGradient29336-6"
       id="linearGradient18816"
       gradientUnits="userSpaceOnUse"
       gradientTransform="translate(-300.00015,-0.9999998)"
       x1="294.50998"
       y1="114.56181"
       x2="308.74051"
       y2="127.99684" />
    <linearGradient
       xlink:href="#linearGradient29336-6"
       id="linearGradient18818"
       gradientUnits="userSpaceOnUse"
       gradientTransform="translate(-300.00015,-0.9999998)"
       x1="253.22745"
       y1="115.66637"
       x2="266.62701"
       y2="128.57106" />
    <linearGradient
       xlink:href="#linearGradient29477-3"
       id="linearGradient18820"
       gradientUnits="userSpaceOnUse"
       x1="164.04878"
       y1="132.06271"
       x2="169.8824"
       y2="142.49252"
       gradientTransform="translate(-50.00015,-58.362183)" />
    <radialGradient
       xlink:href="#linearGradient28469-0"
       id="radialGradient18822"
       gradientUnits="userSpaceOnUse"
       gradientTransform="matrix(0.93618683,-0.38640412,0.27133164,0.65738721,-244.47527,146.7229)"
       cx="294.48483"
       cy="193.09949"
       fx="294.48483"
       fy="193.09949"
       r="31.111488" />
    <linearGradient
       xlink:href="#linearGradient28275-8"
       id="linearGradient18824"
       gradientUnits="userSpaceOnUse"
       gradientTransform="translate(-210)"
       x1="256.85657"
       y1="158.31404"
       x2="313.3367"
       y2="157.8721" />
    <radialGradient
       xlink:href="#linearGradient29529-6"
       id="radialGradient18826"
       gradientUnits="userSpaceOnUse"
       gradientTransform="matrix(1.0000004,0,0,0.5833264,59.999805,3.054009)"
       cx="77.67215"
       cy="147.09335"
       fx="77.67215"
       fy="147.09335"
       r="3.2300935" />
    <radialGradient
       xlink:href="#linearGradient29529-6"
       id="radialGradient18828"
       gradientUnits="userSpaceOnUse"
       gradientTransform="matrix(1,0,0,1.0751189,59.99984,-69.456344)"
       cx="63.125401"
       cy="147.44128"
       fx="63.125401"
       fy="147.44128"
       r="1.5350333" />
    <linearGradient
       xlink:href="#linearGradient28572-7"
       id="linearGradient18830"
       gradientUnits="userSpaceOnUse"
       x1="243.03125"
       y1="157.01843"
       x2="243.46875"
       y2="159.76843" />
    <radialGradient
       xlink:href="#linearGradient29652-2"
       id="radialGradient18832"
       gradientUnits="userSpaceOnUse"
       gradientTransform="matrix(0.20141143,-0.03316079,0.03065006,0.18616184,-3.1263574,114.03586)"
       cx="268.06998"
       cy="126.53491"
       fx="268.06998"
       fy="126.53491"
       r="35.51144" />
    <radialGradient
       xlink:href="#linearGradient4417-0"
       id="radialGradient18834"
       gradientUnits="userSpaceOnUse"
       gradientTransform="matrix(-0.69844216,0,0,0.76335815,166.3057,50.219935)"
       cx="336.22372"
       cy="220.53755"
       fx="336.22372"
       fy="220.53755"
       r="27.391165" />
    <radialGradient
       xlink:href="#linearGradient4417-0"
       id="radialGradient18836"
       gradientUnits="userSpaceOnUse"
       gradientTransform="matrix(1,0,0,0.76335815,-150.00015,-8.142243)"
       cx="312.14502"
       cy="236.36569"
       fx="312.14502"
       fy="236.36569"
       r="27.391165" />
    <radialGradient
       xlink:href="#linearGradient4417-0"
       id="radialGradient18838"
       gradientUnits="userSpaceOnUse"
       gradientTransform="matrix(1,0,0,1.0692348,-150.00016,-73.222483)"
       cx="275.55389"
       cy="225.13487"
       fx="275.55389"
       fy="225.13487"
       r="10.84542" />
    <linearGradient
       xlink:href="#linearGradient15103-0"
       id="linearGradient18840"
       gradientUnits="userSpaceOnUse"
       gradientTransform="translate(-310)"
       x1="338.28552"
       y1="323.90076"
       x2="341.98224"
       y2="351.48654" />
    <linearGradient
       xlink:href="#linearGradient14392-8"
       id="linearGradient18842"
       gradientUnits="userSpaceOnUse"
       x1="442.03912"
       y1="371.54401"
       x2="490.12241"
       y2="293.58548"
       gradientTransform="translate(-250.00016,-58.362183)" />
    <linearGradient
       xlink:href="#linearGradient17009"
       id="linearGradient18844"
       gradientUnits="userSpaceOnUse"
       gradientTransform="translate(-150.00016,-60.362183)"
       x1="355.16373"
       y1="289.58905"
       x2="353.74951"
       y2="302.31699" />
    <radialGradient
       xlink:href="#linearGradient14518-6"
       id="radialGradient18846"
       gradientUnits="userSpaceOnUse"
       gradientTransform="matrix(1.3082075,0.35053296,-0.36795399,1.3732236,-150.50951,-298.71133)"
       cx="363.33957"
       cy="303.41541"
       fx="363.33957"
       fy="303.41541"
       r="16.845654" />
    <radialGradient
       xlink:href="#linearGradient14518-6"
       id="radialGradient18848"
       gradientUnits="userSpaceOnUse"
       gradientTransform="matrix(1.3082075,0.35053296,-0.36795399,1.3732236,-310.50935,-240.34915)"
       cx="363.33957"
       cy="303.41541"
       fx="363.33957"
       fy="303.41541"
       r="16.845654" />
    <radialGradient
       xlink:href="#linearGradient14830-4"
       id="radialGradient18850"
       gradientUnits="userSpaceOnUse"
       gradientTransform="matrix(0.36025223,0.15680447,-0.07246786,0.16649214,260.61683,181.93825)"
       cx="382.23483"
       cy="246.85757"
       fx="382.23483"
       fy="246.85757"
       r="20.537666" />
    <linearGradient
       xlink:href="#linearGradient14830-4"
       id="linearGradient18852"
       gradientUnits="userSpaceOnUse"
       x1="358.5"
       y1="279.36218"
       x2="361.5"
       y2="279.23718" />
    <linearGradient
       xlink:href="#linearGradient14132-6"
       id="linearGradient18854"
       gradientUnits="userSpaceOnUse"
       x1="123.13397"
       y1="301.54044"
       x2="170.86368"
       y2="381.62027"
       gradientTransform="translate(-80.00015,-58.362183)" />
    <linearGradient
       xlink:href="#linearGradient14168-5"
       id="linearGradient18856"
       gradientUnits="userSpaceOnUse"
       gradientTransform="translate(-80.53048,-60.12995)"
       x1="171.57079"
       y1="323.99109"
       x2="186.5968"
       y2="352.27536" />
    <clipPath
       clipPathUnits="userSpaceOnUse"
       id="clipPath391">
      <path
         id="path393"
         d="m 137.57703,281.0191 c 1.59929,-0.66295 3.3982,-0.78361 5.10074,-0.46963 1.70253,0.31398 3.31141,1.04948 4.74342,2.02239 2.86402,1.94583 4.98821,4.77774 7.02263,7.57952 4.67189,6.43406 9.16868,13.00227 13.24488,19.8293 3.30635,5.53766 6.34352,11.25685 10.16415,16.45304 2.49398,3.3919 5.3066,6.53947 7.813,9.92221 2.50639,3.38273 4.72794,7.05586 5.83931,11.11662 1.44411,5.27653 0.88463,11.09291 -1.62666,15.95302 -1.76663,3.41896 -4.47646,6.35228 -7.77242,8.33898 -3.29595,1.9867 -7.17064,3.01444 -11.01635,2.87021 -6.11413,-0.2293 -11.69944,-3.28515 -17.38362,-5.54906 -11.58097,-4.6125 -24.15978,-6.0594 -36.09666,-9.65174 -3.66859,-1.10404 -7.27582,-2.4107 -10.96988,-3.42629 -1.64125,-0.45122 -3.30866,-0.8482 -4.85875,-1.55144 -1.55008,-0.70325 -2.999548,-1.7491 -3.86171,-3.21675 -0.666391,-1.13439 -0.948386,-2.47002 -0.930187,-3.78554 0.0182,-1.31552 0.325889,-2.61453 0.773815,-3.85158 0.895851,-2.47409 2.343262,-4.71374 3.320162,-7.15696 1.59511,-3.98935 1.88169,-8.38839 1.66657,-12.67942 -0.21511,-4.29103 -0.91078,-8.54478 -1.20454,-12.83115 -0.13118,-1.91406 -0.18066,-3.85256 0.18479,-5.73598 0.36545,-1.88343 1.17577,-3.72459 2.55771,-5.05541 1.27406,-1.22693 2.96492,-1.95531 4.69643,-2.31651 1.73151,-0.3612 3.51533,-0.37747 5.28367,-0.33762 1.76833,0.0399 3.54067,0.13425 5.30351,-0.0106 1.76284,-0.14488 3.53347,-0.54055 5.06911,-1.41828 1.45996,-0.83447 2.65433,-2.0745 3.64374,-3.43424 0.9894,-1.35974 1.78909,-2.84573 2.60891,-4.31396 0.81983,-1.46823 1.66834,-2.93151 2.74157,-4.22611 1.07324,-1.2946 2.38923,-2.42304 3.94266,-3.06698"
         style="fill:url(#linearGradient395)"
         transform="matrix(1,0,0,1.0182804,0,-4.0313444)"
         inkscape:label="Clip - Left Foot Brighter Highlights" />
    </clipPath>
    <linearGradient
       xlink:href="#linearGradient14132-6"
       id="linearGradient395"
       gradientUnits="userSpaceOnUse"
       x1="123.13397"
       y1="301.54044"
       x2="170.86368"
       y2="381.62027" />
    <clipPath
       clipPathUnits="userSpaceOnUse"
       id="clipPath401">
      <path
         inkscape:label="Clip - Left Foot Highlights"
         transform="translate(-240.00015,-1)"
         style="fill:url(#linearGradient395)"
         d="m 137.57703,281.0191 c 1.59929,-0.66295 3.3982,-0.78361 5.10074,-0.46963 1.70253,0.31398 3.31141,1.04948 4.74342,2.02239 2.86402,1.94583 4.98821,4.77774 7.02263,7.57952 4.67189,6.43406 9.16868,13.00227 13.24488,19.8293 3.30635,5.53766 6.34352,11.25685 10.16415,16.45304 2.49398,3.3919 5.3066,6.53947 7.813,9.92221 2.50639,3.38273 4.72794,7.05586 5.83931,11.11662 1.44411,5.27653 0.88463,11.09291 -1.62666,15.95302 -1.76663,3.41896 -4.47646,6.35228 -7.77242,8.33898 -3.29595,1.9867 -7.17064,3.01444 -11.01635,2.87021 -6.11413,-0.2293 -11.69944,-3.28515 -17.38362,-5.54906 -11.58097,-4.6125 -24.15978,-6.0594 -36.09666,-9.65174 -3.66859,-1.10404 -7.27582,-2.4107 -10.96988,-3.42629 -1.64125,-0.45122 -3.30866,-0.8482 -4.85875,-1.55144 -1.55008,-0.70325 -2.999548,-1.7491 -3.86171,-3.21675 -0.666391,-1.13439 -0.948386,-2.47002 -0.930187,-3.78554 0.0182,-1.31552 0.325889,-2.61453 0.773815,-3.85158 0.895851,-2.47409 2.343262,-4.71374 3.320162,-7.15696 1.59511,-3.98935 1.88169,-8.38839 1.66657,-12.67942 -0.21511,-4.29103 -0.91078,-8.54478 -1.20454,-12.83115 -0.13118,-1.91406 -0.18066,-3.85256 0.18479,-5.73598 0.36545,-1.88343 1.17577,-3.72459 2.55771,-5.05541 1.27406,-1.22693 2.96492,-1.95531 4.69643,-2.31651 1.73151,-0.3612 3.51533,-0.37747 5.28367,-0.33762 1.76833,0.0399 3.54067,0.13425 5.30351,-0.0106 1.76284,-0.14488 3.53347,-0.54055 5.06911,-1.41828 1.45996,-0.83447 2.65433,-2.0745 3.64374,-3.43424 0.9894,-1.35974 1.78909,-2.84573 2.60891,-4.31396 0.81983,-1.46823 1.66834,-2.93151 2.74157,-4.22611 1.07324,-1.2946 2.38923,-2.42304 3.94266,-3.06698"
         id="path403" />
    </clipPath>
    <clipPath
       clipPathUnits="userSpaceOnUse"
       id="clipPath419">
      <path
         style="fill:url(#linearGradient423)"
         d="m 513.18983,336.61385 c -2.6238,3.11482 -6.268,5.17039 -9.89648,7.01985 -6.1886,3.15437 -12.60169,5.92177 -18.41964,9.71654 -3.89802,2.54249 -7.4959,5.52671 -10.86016,8.74238 -2.87719,2.75012 -5.60582,5.68745 -8.83247,8.01771 -3.25567,2.35122 -7.01915,4.05426 -10.99061,4.6502 -4.83026,0.72481 -9.82134,-0.21289 -14.29898,-2.16416 -3.13754,-1.36728 -6.15569,-3.3229 -7.96301,-6.22931 -1.81425,-2.91754 -2.22807,-6.48813 -2.23266,-9.92375 -0.008,-6.07666 1.11824,-12.09004 2.17848,-18.07349 0.88097,-4.97177 1.71949,-9.95483 2.26013,-14.97502 0.98337,-9.13118 0.9763,-18.35278 0.3199,-27.51327 -0.10993,-1.53416 -0.23754,-3.0832 -0.008,-4.60412 0.22922,-1.52092 0.85475,-3.0367 2.02069,-4.03986 1.07696,-0.9266 2.52093,-1.33598 3.93947,-1.4145 1.41854,-0.0785 2.83404,0.14655 4.23982,0.35197 3.31254,0.48405 6.65159,0.8649 9.88917,1.71656 2.04284,0.53738 4.03315,1.25925 6.0722,1.81081 3.40258,0.92039 6.96639,1.36144 10.46739,0.95192 3.76917,-0.44089 7.42987,-1.85678 11.22363,-1.76474 1.55658,0.0378 3.1015,0.33171 4.58649,0.79985 1.51539,0.47772 3.00914,1.16182 4.12281,2.29512 0.84639,0.8613 1.43579,1.94539 1.87872,3.06879 0.65982,1.67352 1.01492,3.457 1.16703,5.24945 0.13475,1.58788 0.11343,3.19441 0.41433,4.75933 0.49503,2.57458 1.84746,4.92305 3.52848,6.93494 1.68102,2.01189 3.68982,3.72048 5.69641,5.40783 1.99908,1.68103 4.0106,3.35469 6.16708,4.82839 1.0121,0.69165 2.05642,1.33949 3.01736,2.10062 0.96094,0.76113 1.84466,1.6468 2.44543,2.71535 0.81492,1.44944 1.06377,3.2077 0.53758,4.87655 -0.5262,1.66885 -1.48162,3.27659 -2.67059,4.68806 z"
         id="path421"
         clip-path="none"
         inkscape:label="Clip - Right Foot Highlights" />
    </clipPath>
    <linearGradient
       xlink:href="#linearGradient14392-8"
       id="linearGradient423"
       gradientUnits="userSpaceOnUse"
       gradientTransform="translate(-250.00016,-58.362187)"
       x1="442.03912"
       y1="371.54401"
       x2="490.12241"
       y2="293.58548" />
    <clipPath
       clipPathUnits="userSpaceOnUse"
       id="clipPath426">
      <path
         style="fill:url(#linearGradient430);stroke-width:0.842603"
         d="m 509.36312,335.7449 c -2.29559,2.52764 -5.48394,4.19571 -8.65854,5.69652 -5.41448,2.55973 -11.02537,4.80544 -16.11557,7.88485 -3.41042,2.0632 -6.55825,4.48486 -9.50168,7.09433 -2.51729,2.23169 -4.9046,4.6153 -7.72764,6.50627 -2.84842,1.90799 -6.14114,3.28999 -9.61581,3.77358 -4.22606,0.58818 -8.59281,-0.17275 -12.51035,-1.75618 -2.74507,-1.10954 -5.38569,-2.6965 -6.96694,-5.05501 -1.5873,-2.36755 -1.94936,-5.26504 -1.95338,-8.053 -0.007,-4.93114 0.97837,-9.81092 1.90598,-14.66641 0.77077,-4.03453 1.5044,-8.07822 1.97742,-12.15205 0.86036,-7.40983 0.85417,-14.89305 0.27988,-22.32667 -0.0962,-1.24495 -0.20783,-2.50198 -0.007,-3.73619 0.20055,-1.23421 0.74783,-2.46424 1.76793,-3.27829 0.94224,-0.75193 2.20559,-1.08414 3.44669,-1.14785 1.24109,-0.0637 2.47953,0.11892 3.70947,0.28562 2.89818,0.3928 5.81955,0.70185 8.65215,1.39296 1.78731,0.43608 3.52865,1.02187 5.31264,1.46945 2.97696,0.74689 6.09498,1.10479 9.15805,0.77247 3.29769,-0.35777 6.50048,-1.50675 9.81968,-1.43206 1.36187,0.0307 2.71354,0.26918 4.01278,0.64907 1.32583,0.38766 2.63273,0.9428 3.6071,1.86246 0.74051,0.69893 1.25619,1.57866 1.64371,2.49028 0.57728,1.35804 0.88797,2.80532 1.02105,4.25987 0.11789,1.28854 0.0992,2.59222 0.3625,3.86213 0.43311,2.08924 1.61637,3.995 3.08711,5.62762 1.47074,1.63263 3.22827,3.01913 4.98386,4.38839 1.74902,1.36413 3.50892,2.72229 5.39565,3.91818 0.8855,0.56126 1.79919,1.08698 2.63992,1.70462 0.84074,0.61765 1.61392,1.33636 2.13954,2.20348 0.71298,1.1762 0.93071,2.60301 0.47034,3.95726 -0.46038,1.35425 -1.29629,2.65891 -2.33654,3.8043 z"
         id="path428"
         clip-path="none"
         inkscape:label="Clip - Right Foot Brighter Highlights" />
    </clipPath>
    <linearGradient
       xlink:href="#linearGradient14392-8"
       id="linearGradient430"
       gradientUnits="userSpaceOnUse"
       gradientTransform="matrix(0.87491199,0,0,0.81148755,-158.36095,15.22676)"
       x1="442.03912"
       y1="371.54401"
       x2="490.12241"
       y2="293.58548" />
    <clipPath
       clipPathUnits="userSpaceOnUse"
       id="clipPath433">
      <path
         style="fill:url(#linearGradient437)"
         d="m 263.18967,278.25167 c -2.6238,3.11482 -6.268,5.17039 -9.89648,7.01985 -6.1886,3.15437 -12.60169,5.92177 -18.41964,9.71654 -3.89802,2.54249 -7.4959,5.52671 -10.86016,8.74238 -2.87719,2.75012 -5.60582,5.68745 -8.83247,8.01771 -3.25567,2.35122 -7.01915,4.05426 -10.99061,4.6502 -4.83026,0.72481 -9.82134,-0.21289 -14.29898,-2.16416 -3.13754,-1.36728 -6.15569,-3.3229 -7.96301,-6.22931 -1.81425,-2.91754 -2.22807,-6.48813 -2.23266,-9.92375 -0.008,-6.07666 1.11824,-12.09004 2.17848,-18.07349 0.88097,-4.97177 1.71949,-9.95483 2.26013,-14.97502 0.98337,-9.13118 0.9763,-18.35278 0.3199,-27.51327 -0.10993,-1.53416 -0.23754,-3.0832 -0.008,-4.60412 0.22922,-1.52092 0.85475,-3.0367 2.02069,-4.03986 1.07696,-0.9266 2.52093,-1.33598 3.93947,-1.4145 1.41854,-0.0785 2.83404,0.14655 4.23982,0.35197 3.31254,0.48405 6.65159,0.8649 9.88917,1.71656 2.04284,0.53738 4.03315,1.25925 6.0722,1.81081 3.40258,0.92039 6.96639,1.36144 10.46739,0.95192 3.76917,-0.44089 7.42987,-1.85678 11.22363,-1.76474 1.55658,0.0378 3.1015,0.33171 4.58649,0.79985 1.51539,0.47772 3.00914,1.16182 4.12281,2.29512 0.84639,0.8613 1.43579,1.94539 1.87872,3.06879 0.65982,1.67352 1.01492,3.457 1.16703,5.24945 0.13475,1.58788 0.11343,3.19441 0.41433,4.75933 0.49503,2.57458 1.84746,4.92305 3.52848,6.93494 1.68102,2.01189 3.68982,3.72048 5.69641,5.40783 1.99908,1.68103 4.0106,3.35469 6.16708,4.82839 1.0121,0.69165 2.05642,1.33949 3.01736,2.10062 0.96094,0.76113 1.84466,1.6468 2.44543,2.71535 0.81492,1.44944 1.06377,3.2077 0.53758,4.87655 -0.5262,1.66885 -1.48162,3.27659 -2.67059,4.68806 z"
         id="path435"
         clip-path="none"
         inkscape:label="Clip - Right Foot Brightest Highlights" />
    </clipPath>
    <linearGradient
       xlink:href="#linearGradient14392-8"
       id="linearGradient437"
       gradientUnits="userSpaceOnUse"
       gradientTransform="translate(-500.00032,-116.72437)"
       x1="442.03912"
       y1="371.54401"
       x2="490.12241"
       y2="293.58548" />
    <clipPath
       clipPathUnits="userSpaceOnUse"
       id="clipPath504">
      <path
         inkscape:label="Clip - Right Arm Shadow"
         style="fill:#020204;stroke-width:0.991084"
         id="path506"
         d="m 304.84727,225.44951 c 5.97679,4.89463 9.76903,12.28597 10.94319,20.00305 0.91574,6.01859 0.32054,12.19496 -1.0124,18.13223 -1.33294,5.93726 -3.39093,11.67615 -5.43351,17.40051 -0.81452,2.2827 -1.63269,4.5871 -1.95634,6.9933 -0.32365,2.40621 -0.1187,4.95426 1.02109,7.08777 1.3066,2.44578 3.74526,4.13021 6.36677,4.92292 2.58816,0.78263 5.38374,0.76618 8.00354,0.10153 2.61979,-0.66466 5.06582,-1.96341 7.19828,-3.64929 5.41763,-4.28306 8.68657,-10.94871 9.95201,-17.81211 1.26545,-6.86339 0.68401,-13.95038 -0.49258,-20.83014 -1.60443,-9.38136 -4.30394,-18.55105 -7.74003,-27.40773 -2.52746,-6.51466 -5.7653,-12.74244 -9.61753,-18.52016 -3.77934,-5.66839 -9.14163,-10.09303 -13.10336,-15.63502 -1.37643,-1.92547 -3.03189,-3.93159 -4.38419,-5.87845 -2.91575,-4.19771 -2.25544,-3.41451 -4.06424,-6.13155 -1.31235,-1.9713 -3.38449,-2.6487 -5.56491,-3.51096 -2.18041,-0.86226 -4.629,-1.11623 -6.88065,-0.47108 -2.96781,0.85034 -5.39233,3.23113 -6.68215,6.08208 -1.28982,2.85095 -1.51545,6.12313 -1.01363,9.2201 0.64739,3.99536 2.44215,7.70258 4.46569,11.18873 2.28537,3.93724 4.93283,7.72707 8.38442,10.65407 3.60205,3.05459 7.95771,5.06875 11.61053,8.0602" />
    </clipPath>
    <clipPath
       clipPathUnits="userSpaceOnUse"
       id="clipPath508">
      <path
         inkscape:label="Clip - Left Arm Shadow"
         id="path510"
         d="m 240.47307,195.03592 c -7.07309,8.03686 -14.35222,15.81627 -18.34577,24.50506 -1.97625,4.41329 -2.91077,9.20725 -4.26498,13.84932 -1.5379,5.27176 -3.62609,10.3703 -5.97071,15.33612 -2.16496,4.58531 -4.54982,9.06291 -6.93891,13.53553 -1.7382,3.25409 -3.50514,6.58104 -4.10782,10.22071 -0.47628,2.87632 -0.1985,5.84423 0.53375,8.66626 0.73225,2.82202 1.90965,5.5106 3.23776,8.10601 5.66725,11.07504 14.17003,20.62168 24.24176,27.92472 4.57063,3.31418 9.46669,6.18109 14.60245,8.52595 2.78247,1.27041 5.71355,2.40436 8.77186,2.45744 1.52915,0.0265 3.0741,-0.22544 4.47434,-0.84055 1.40023,-0.6151 2.65068,-1.60373 3.48254,-2.88709 1.02278,-1.5779 1.36992,-3.53829 1.16461,-5.40743 -0.2053,-1.86914 -0.93484,-3.65294 -1.91324,-5.25873 -2.38997,-3.92251 -6.1652,-6.76055 -9.79642,-9.57343 -7.84055,-6.07358 -15.42465,-12.48039 -22.68212,-19.23996 -2.04912,-1.90854 -4.09841,-3.87759 -5.53019,-6.28412 -1.3943,-2.34352 -2.1476,-5.01376 -2.65783,-7.69253 -1.39972,-7.34873 -1.04092,-15.08286 1.45958,-22.13343 0.97822,-2.75826 2.27118,-5.39201 3.51815,-8.03965 2.16133,-4.58906 4.20725,-9.26564 7.04933,-13.46723 3.53798,-5.23037 8.26749,-9.66049 11.15147,-15.27803 2.43423,-4.74149 3.41994,-10.07236 4.36185,-15.31831 0.73693,-4.10434 2.15042,-8.12437 2.86923,-12.23193 -1.40611,2.66567 -5.93796,7.04283 -8.71069,10.5253 z"
         style="fill:#020204" />
    </clipPath>
    <clipPath
       clipPathUnits="userSpaceOnUse"
       id="clipPath533">
      <path
         inkscape:label="Clip - Hand Lower Hightlight"
         style="fill:#020204"
         id="path535"
         d="m 386.1875,285.32775 c -0.40516,-1.10369 -1.11845,-2.08156 -1.9907,-2.86987 -0.87226,-0.78832 -1.90049,-1.39229 -2.98278,-1.85155 -2.16459,-0.91852 -4.52053,-1.26149 -6.83152,-1.69556 -2.17919,-0.40931 -4.34179,-0.90631 -6.52782,-1.27734 -2.27136,-0.38551 -4.6179,-0.63213 -6.8653,-0.1253 -1.96583,0.44333 -3.7845,1.45879 -5.27172,2.81864 -1.48723,1.35984 -2.64911,3.0564 -3.48499,4.89007 -1.47218,3.22952 -1.93451,6.86503 -1.65394,10.40316 0.20881,2.63325 0.87532,5.34594 2.60877,7.33912 1.40065,1.61052 3.38733,2.61526 5.43398,3.22092 3.52502,1.04316 7.36663,0.98822 10.86038,-0.1553 5.76689,-1.93113 10.87568,-5.77387 14.33034,-10.77903 1.13861,-1.64963 2.11217,-3.44809 2.5532,-5.4034 0.33597,-1.48955 0.34831,-3.08112 -0.1779,-4.51456" />
    </clipPath>
    <clipPath
       clipPathUnits="userSpaceOnUse"
       id="clipPath538">
      <path
         d="m 386.1875,285.32775 c -0.40516,-1.10369 -1.11845,-2.08156 -1.9907,-2.86987 -0.87226,-0.78832 -1.90049,-1.39229 -2.98278,-1.85155 -2.16459,-0.91852 -4.52053,-1.26149 -6.83152,-1.69556 -2.17919,-0.40931 -4.34179,-0.90631 -6.52782,-1.27734 -2.27136,-0.38551 -4.6179,-0.63213 -6.8653,-0.1253 -1.96583,0.44333 -3.7845,1.45879 -5.27172,2.81864 -1.48723,1.35984 -2.64911,3.0564 -3.48499,4.89007 -1.47218,3.22952 -1.93451,6.86503 -1.65394,10.40316 0.20881,2.63325 0.87532,5.34594 2.60877,7.33912 1.40065,1.61052 3.38733,2.61526 5.43398,3.22092 3.52502,1.04316 7.36663,0.98822 10.86038,-0.1553 5.76689,-1.93113 10.87568,-5.77387 14.33034,-10.77903 1.13861,-1.64963 2.11217,-3.44809 2.5532,-5.4034 0.33597,-1.48955 0.34831,-3.08112 -0.1779,-4.51456"
         id="path540"
         style="fill:#020204"
         inkscape:label="Clip - Hand Upper Highlight" />
    </clipPath>
    <clipPath
       clipPathUnits="userSpaceOnUse"
       id="clipPath622">
      <path
         inkscape:label="Clip - Right Eyelid"
         style="fill:url(#radialGradient626)"
         d="m 85.75,122.36218 c -2.78042,1.91023 -5.11057,4.57487 -6.25,7.75 -1.43603,4.00163 -0.88584,8.48071 0.5,12.5 1.41949,4.11688 3.79379,8.04098 7.37932,10.51234 1.79277,1.23567 3.86809,2.08301 6.0304,2.33859 2.16231,0.25558 4.40928,-0.0949 6.34028,-1.10093 2.35312,-1.22596 4.14782,-3.37278 5.26217,-5.78076 1.11436,-2.40798 1.5888,-5.0701 1.73783,-7.71924 0.18989,-3.37546 -0.14047,-6.80646 -1.25,-10 -1.20527,-3.46909 -3.39005,-6.67055 -6.47275,-8.6666 -1.54136,-0.99803 -3.29195,-1.68356 -5.11089,-1.93515 -1.81893,-0.25158 -3.70476,-0.0633 -5.41636,0.60175 -0.97547,0.37901 -1.88744,0.9074 -2.75,1.5"
         id="path624" />
    </clipPath>
    <radialGradient
       xlink:href="#linearGradient28799-3"
       id="radialGradient626"
       gradientUnits="userSpaceOnUse"
       gradientTransform="matrix(1.0857794,-0.03431182,0.03943781,1.2479887,-15.5421,-75.904827)"
       cx="223.19559"
       cy="137.66095"
       fx="223.19559"
       fy="137.66095"
       r="14.572236" />
    <clipPath
       clipPathUnits="userSpaceOnUse"
       id="clipPath631">
      <path
         inkscape:label="Clip - Left Eyelid"
         style="fill:url(#radialGradient635)"
         d="m 54.23244,122.36218 c -1.78096,0.097 -3.48461,0.91899 -4.78785,2.1367 -1.30323,1.21771 -2.22137,2.81176 -2.78618,4.50357 -1.12962,3.38363 -0.87548,7.05177 -0.6187,10.60973 0.23251,3.22162 0.47041,6.50533 1.67679,9.50158 0.60319,1.49813 1.45024,2.91021 2.58034,4.06395 1.13009,1.15374 2.55173,2.04189 4.11829,2.43447 1.46884,0.36809 3.03816,0.29183 4.48279,-0.16209 1.44462,-0.45392 2.76391,-1.27887 3.84623,-2.33791 1.57904,-1.54507 2.64326,-3.5662 3.25345,-5.68947 0.61019,-2.12328 0.78416,-4.35155 0.7524,-6.56053 -0.0397,-2.76435 -0.40091,-5.53851 -1.26575,-8.16439 -0.86485,-2.62588 -2.24575,-5.10327 -4.1728,-7.08561 -0.93331,-0.96009 -1.99776,-1.80513 -3.19858,-2.39747 -1.20082,-0.59233 -2.54344,-0.92535 -3.88043,-0.85253"
         id="path633" />
    </clipPath>
    <radialGradient
       xlink:href="#linearGradient28799-3"
       id="radialGradient635"
       gradientUnits="userSpaceOnUse"
       gradientTransform="matrix(0.81524244,-0.03431182,0.02961133,1.2479887,9.5624,-75.904827)"
       cx="223.19559"
       cy="137.66095"
       fx="223.19559"
       fy="137.66095"
       r="14.572236" />
    <clipPath
       clipPathUnits="userSpaceOnUse"
       id="clipPath697">
      <path
         style="fill:url(#radialGradient701);stroke-width:0.77538"
         d="m 214.63605,148.03815 c -2.51029,-0.0409 -4.99135,0.28921 -7.27146,0.88384 -4.05254,1.05688 -7.57367,2.93934 -10.08468,5.39315 -1.62814,0.85539 -3.05003,1.89919 -4.20722,3.08639 -0.66186,0.67901 -1.24391,1.41694 -1.50131,2.24757 -0.20244,0.65333 -0.19857,1.34469 -0.28524,2.01986 -0.0324,0.25293 -0.0778,0.5073 -0.0362,0.76548 0.0208,0.12909 0.0631,0.25809 0.13756,0.38081 0.0221,0.0364 0.0528,0.0707 0.0806,0.1055 0.0825,0.15031 0.18297,0.29681 0.31473,0.43099 0.28806,0.29334 0.68023,0.53107 1.09417,0.73203 0.41394,0.20097 0.85255,0.36757 1.2815,0.54936 2.28006,0.96628 4.22773,2.32456 5.9925,3.75924 2.3677,1.92485 4.52941,4.06099 7.5099,5.46004 2.10465,0.98794 4.52773,1.552 6.92602,1.72396 2.81637,0.20193 5.58521,-0.12293 8.18167,-0.69344 2.40631,-0.52873 4.69673,-1.27132 6.75202,-2.25401 3.90702,-1.86802 6.98699,-4.60634 11.42445,-5.83442 0.96876,-0.2681 1.99041,-0.45921 2.91317,-0.78993 0.92276,-0.33072 1.76305,-0.8265 2.11948,-1.52711 0.34261,-0.67347 0.2049,-1.45031 0.23569,-2.18968 0.0329,-0.791 0.26357,-1.5559 0.33312,-2.34278 0.0695,-0.78687 -0.0382,-1.6289 -0.62199,-2.35178 -0.12955,-0.16043 -0.28324,-0.31001 -0.45163,-0.45157 -0.0509,-0.29235 -0.22134,-0.58029 -0.46622,-0.83239 -0.50487,-0.51975 -1.29334,-0.87172 -2.09515,-1.11671 -1.09824,-0.33555 -2.25599,-0.50211 -3.39891,-0.69601 -3.51093,-0.59565 -6.96955,-1.47539 -10.29467,-2.60394 -1.65302,-0.56104 -3.27073,-1.18327 -4.90416,-1.77928 -1.67927,-0.61273 -3.38672,-1.20103 -5.16515,-1.57729 -1.49109,-0.31546 -3.00643,-0.47332 -4.51259,-0.49788 z"
         id="path699"
         inkscape:label="Clip - Beak Side Highlight" />
    </clipPath>
    <radialGradient
       xlink:href="#linearGradient28469-0"
       id="radialGradient701"
       gradientUnits="userSpaceOnUse"
       gradientTransform="matrix(0.81494503,-0.25452614,0.31491054,0.43302392,-75.371375,150.73818)"
       cx="294.48483"
       cy="193.09949"
       fx="294.48483"
       fy="193.09949"
       r="31.111488" />
    <clipPath
       clipPathUnits="userSpaceOnUse"
       id="clipPath816">
      <path
         inkscape:label="Clip - Lower Beak Shadow"
         style="fill:#fdfdfb"
         d="m -26.29567,154.81433 c -1.0464,1.31136 -1.72773,2.88726 -2.13927,4.51369 -0.41153,1.62642 -0.56228,3.30801 -0.62653,4.98446 -0.12849,3.35291 0.0765,6.77015 -0.81096,10.00604 -0.94874,3.4595 -3.07595,6.45649 -5.15761,9.37795 -3.60485,5.05916 -7.248548,10.25011 -9.027058,16.20217 -1.077103,3.60469 -1.435613,7.42255 -1.04841,11.16474 -4.035298,5.9262 -7.528852,12.22112 -10.4229,18.78069 -4.386197,9.94163 -7.396115,20.5265 -8.454552,31.34105 -1.296051,13.24236 0.397579,26.86184 5.627472,39.09655 3.781309,8.84592 9.417708,16.94379 16.68566,23.2466 3.695408,3.20468 7.799668,5.93944 12.189498,8.09709 15.21252,7.47713 34.01348,7.49101 48.97296,-0.48031 7.81838,-4.16611 14.41789,-10.2582 20.78084,-16.42232 3.83183,-3.71209 7.64353,-7.51249 10.56653,-11.97551 5.62746,-8.59236 7.58747,-19.03566 8.80544,-29.23436 2.12971,-17.83321 2.1984,-36.66998 -5.62137,-52.83816 -2.69219,-5.56638 -6.27896,-10.69891 -10.58065,-15.14052 -1.14547,-7.78087 -3.40638,-15.39666 -6.69212,-22.54215 -2.37045,-5.15502 -5.2683,-10.06187 -7.47079,-15.29085 -0.90422,-2.14672 -1.68995,-4.34486 -2.69346,-6.44699 -1.00352,-2.10213 -2.24145,-4.12498 -3.92446,-5.73541 -1.72343,-1.6491 -3.87096,-2.81824 -6.13593,-3.56631 -2.26498,-0.74806 -4.64917,-1.08697 -7.03147,-1.2068 -4.7646,-0.23966 -9.53872,0.38348 -14.30559,0.19423 -3.79476,-0.15066 -7.57776,-0.81566 -11.36892,-0.59186 -1.89557,0.1119 -3.79087,0.45058 -5.55026,1.1649 -1.7594,0.71432 -3.38173,1.81713 -4.56609,3.30139"
         id="path818" />
    </clipPath>
    <clipPath
       clipPathUnits="userSpaceOnUse"
       id="clipPath820">
      <path
         id="path822"
         d="m -47.29567,161.44377 c -1.0464,1.42368 -1.72773,3.13456 -2.13927,4.9003 -0.41153,1.76572 -0.56228,3.59134 -0.62653,5.41138 -0.12849,3.64009 0.0765,7.35002 -0.81096,10.86307 -0.94874,3.75581 -3.07595,7.0095 -5.15761,10.18119 -3.60485,5.49248 -7.248548,11.12804 -9.027058,17.58991 -1.077103,3.91343 -1.435613,8.0583 -1.04841,12.12101 -4.035298,6.43379 -7.528852,13.26788 -10.4229,20.38928 -4.386197,10.79315 -7.396115,22.28463 -8.454552,34.02546 -1.296051,14.37658 0.397579,29.16259 5.627472,42.44522 3.781309,9.60359 9.417708,18.39505 16.68566,25.23771 3.695408,3.47916 7.799668,6.44816 12.189498,8.79061 15.21252,8.11756 34.01348,8.13263 48.97296,-0.52145 7.81838,-4.52294 14.41789,-11.13683 20.78084,-17.82891 3.83183,-4.03004 7.64353,-8.15595 10.56653,-13.00123 5.62746,-9.32831 7.58747,-20.66609 8.80544,-31.73832 2.12971,-19.36065 2.1984,-39.81082 -5.62137,-57.36383 -2.69219,-6.04314 -6.27896,-11.61528 -10.58065,-16.43732 -1.14547,-8.44732 -3.40638,-16.71541 -6.69212,-24.47292 -2.37045,-5.59655 -5.2683,-10.92368 -7.47079,-16.60053 -0.90422,-2.33059 -1.68995,-4.71701 -2.69346,-6.99919 -1.00352,-2.28218 -2.24145,-4.47829 -3.92446,-6.22665 -1.72343,-1.79035 -3.87096,-3.05963 -6.13593,-3.87177 -2.26498,-0.81213 -4.64917,-1.18007 -7.03147,-1.31016 -4.7646,-0.26019 -9.53872,0.41632 -14.30559,0.21086 -3.79476,-0.16356 -7.57776,-0.88552 -11.36892,-0.64255 -1.89557,0.12148 -3.79087,0.48917 -5.55026,1.26467 -1.7594,0.77551 -3.38173,1.97277 -4.56609,3.58416"
         style="fill:#fdfdfb;stroke-width:1.04195"
         inkscape:label="Clip - Upper Beak Shadow" />
    </clipPath>
    <filter
       id="filter14148-8-2"
       x="-0.10750898"
       width="1.215018"
       y="-0.10849553"
       height="1.2169911"
       style="color-interpolation-filters:sRGB">
      <feGaussianBlur
         stdDeviation="3.9237191"
         id="feGaussianBlur14150-8-5" />
    </filter>
    <filter
       id="filter14140-3-7"
       style="color-interpolation-filters:sRGB">
      <feGaussianBlur
         stdDeviation="2.4365744"
         id="feGaussianBlur14142-5-0" />
    </filter>
    <filter
       id="filter14176-5-6"
       style="color-interpolation-filters:sRGB">
      <feGaussianBlur
         stdDeviation="0.3702557"
         id="feGaussianBlur14178-0-5" />
    </filter>
    <filter
       id="filter15053-7-6"
       x="-0.10103524"
       width="1.2020705"
       y="-0.042669769"
       height="1.0853395"
       style="color-interpolation-filters:sRGB">
      <feGaussianBlur
         stdDeviation="1.1322032"
         id="feGaussianBlur15055-3-6" />
    </filter>
    <filter
       id="filter14812-5-7"
       x="-0.070455663"
       width="1.1409113"
       y="-0.15060219"
       height="1.3012044"
       style="color-interpolation-filters:sRGB">
      <feGaussianBlur
         stdDeviation="1.0252435"
         id="feGaussianBlur14814-2-6" />
    </filter>
    <filter
       id="filter14812-0-9-0"
       x="-0.070455663"
       width="1.1409113"
       y="-0.15060219"
       height="1.3012044"
       style="color-interpolation-filters:sRGB">
      <feGaussianBlur
         stdDeviation="1.0252435"
         id="feGaussianBlur14814-6-7-9" />
    </filter>
    <filter
       id="filter14897-2-7"
       x="-0.20050517"
       width="1.4010103"
       y="-0.23409025"
       height="1.4681805"
       style="color-interpolation-filters:sRGB">
      <feGaussianBlur
         stdDeviation="2.8444356"
         id="feGaussianBlur14899-5-2" />
    </filter>
    <filter
       id="filter14951-8-5"
       x="-0.091410659"
       width="1.1828213"
       y="-0.10672215"
       height="1.2134444"
       style="color-interpolation-filters:sRGB">
      <feGaussianBlur
         stdDeviation="1.2967831"
         id="feGaussianBlur14953-7-8" />
    </filter>
    <filter
       id="filter15211-9-1"
       x="-0.46932927"
       width="1.9386586"
       y="-0.27372435"
       height="1.5474488"
       style="color-interpolation-filters:sRGB">
      <feGaussianBlur
         stdDeviation="0.85991809"
         id="feGaussianBlur15213-7-8" />
    </filter>
    <filter
       id="filter14706-3-0"
       x="-0.60389674"
       width="2.2077935"
       y="-0.48226368"
       height="1.9645272"
       style="color-interpolation-filters:sRGB">
      <feGaussianBlur
         stdDeviation="2.6400036"
         id="feGaussianBlur14708-8-6" />
    </filter>
    <filter
       id="filter15115-3-0"
       style="color-interpolation-filters:sRGB">
      <feGaussianBlur
         stdDeviation="2.2091576"
         id="feGaussianBlur15117-8-1" />
    </filter>
    <filter
       id="filter14416-8-0"
       x="-0.14501533"
       width="1.2900307"
       y="-0.14299878"
       height="1.2859976"
       style="color-interpolation-filters:sRGB">
      <feGaussianBlur
         stdDeviation="4.7787162"
         id="feGaussianBlur14418-5-4" />
    </filter>
    <filter
       id="filter14432-2-6"
       x="-0.11529266"
       width="1.2305853"
       y="-0.12494507"
       height="1.2498901"
       style="color-interpolation-filters:sRGB">
      <feGaussianBlur
         stdDeviation="3.1725155"
         id="feGaussianBlur14434-2-3" />
    </filter>
    <filter
       id="filter17044-4"
       x="-0.020911871"
       width="1.0418237"
       y="-0.12926871"
       height="1.2585374"
       style="color-interpolation-filters:sRGB">
      <feGaussianBlur
         stdDeviation="0.47946431"
         id="feGaussianBlur17046-0" />
    </filter>
    <filter
       id="filter15185-2-4"
       x="-0.17754583"
       width="1.3550917"
       y="-0.15942827"
       height="1.3188565"
       style="color-interpolation-filters:sRGB">
      <feGaussianBlur
         stdDeviation="0.90083196"
         id="feGaussianBlur15187-7-7" />
    </filter>
    <filter
       height="1.1156476"
       y="-0.057823781"
       width="2.6331918"
       x="-0.81659585"
       id="filter4592-2-8"
       style="color-interpolation-filters:sRGB">
      <feGaussianBlur
         id="feGaussianBlur4594-6-8"
         stdDeviation="1.4463082" />
    </filter>
    <filter
       id="filter4538-7-5"
       style="color-interpolation-filters:sRGB">
      <feGaussianBlur
         id="feGaussianBlur4540-9-3"
         stdDeviation="0.7854602" />
    </filter>
    <filter
       id="filter4427-5-7-8"
       style="color-interpolation-filters:sRGB">
      <feGaussianBlur
         id="feGaussianBlur4429-4-8-5"
         stdDeviation="1.1383167" />
    </filter>
    <filter
       id="filter4487-6-4"
       style="color-interpolation-filters:sRGB">
      <feGaussianBlur
         id="feGaussianBlur4489-4-3"
         stdDeviation="0.6434074" />
    </filter>
    <filter
       id="filter14666-9-7"
       x="-0.11753157"
       width="1.2350631"
       y="-0.040046327"
       height="1.0800927"
       style="color-interpolation-filters:sRGB">
      <feGaussianBlur
         stdDeviation="1.352085"
         id="feGaussianBlur14668-7-7" />
    </filter>
    <filter
       height="1.429882"
       y="-0.21494099"
       width="1.3096611"
       x="-0.1548306"
       id="filter28502-8-3"
       style="color-interpolation-filters:sRGB">
      <feGaussianBlur
         id="feGaussianBlur28504-3-7"
         stdDeviation="0.89858666" />
    </filter>
    <filter
       id="filter15145-6-5"
       style="color-interpolation-filters:sRGB">
      <feGaussianBlur
         stdDeviation="0.75821369"
         id="feGaussianBlur15147-1-7" />
    </filter>
    <filter
       id="filter14963-7-4"
       x="-0.16095592"
       width="1.3219118"
       y="-0.13027605"
       height="1.260552"
       style="color-interpolation-filters:sRGB">
      <feGaussianBlur
         stdDeviation="0.84878819"
         id="feGaussianBlur14965-0-8" />
    </filter>
    <filter
       id="filter15177-1-6"
       style="color-interpolation-filters:sRGB">
      <feGaussianBlur
         stdDeviation="0.11039302"
         id="feGaussianBlur15179-3-3" />
    </filter>
    <filter
       id="filter15173-0-9"
       x="-0.11644644"
       width="1.2328929"
       y="-0.10572958"
       height="1.2114592"
       style="color-interpolation-filters:sRGB">
      <feGaussianBlur
         stdDeviation="0.11039302"
         id="feGaussianBlur15175-4-3" />
    </filter>
    <filter
       height="1.2722148"
       y="-0.13610739"
       width="1.2146032"
       x="-0.10730159"
       id="filter28584-4-6"
       style="color-interpolation-filters:sRGB">
      <feGaussianBlur
         id="feGaussianBlur28586-3-1"
         stdDeviation="0.2640625" />
    </filter>
    <filter
       height="1.2921369"
       y="-0.14606842"
       width="1.4689326"
       x="-0.23446631"
       id="filter29493-2-7"
       style="color-interpolation-filters:sRGB">
      <feGaussianBlur
         id="feGaussianBlur29495-7-0"
         stdDeviation="0.51262416" />
    </filter>
    <filter
       id="filter29447-1-8"
       style="color-interpolation-filters:sRGB">
      <feGaussianBlur
         id="feGaussianBlur29449-4-5"
         stdDeviation="0.13475369" />
    </filter>
    <filter
       id="filter29350-1-9"
       style="color-interpolation-filters:sRGB">
      <feGaussianBlur
         id="feGaussianBlur29352-7-8"
         stdDeviation="0.1475" />
    </filter>
    <filter
       height="1.4183974"
       y="-0.2091987"
       width="1.3159075"
       x="-0.15795375"
       id="filter28927-8-6"
       style="color-interpolation-filters:sRGB">
      <feGaussianBlur
         id="feGaussianBlur28929-2-8"
         stdDeviation="0.24891089" />
    </filter>
    <filter
       height="1.3626815"
       y="-0.18134074"
       width="1.3573579"
       x="-0.17867894"
       id="filter28949-8-0"
       style="color-interpolation-filters:sRGB">
      <feGaussianBlur
         id="feGaussianBlur28951-1-4"
         stdDeviation="0.51947927" />
    </filter>
    <filter
       id="filter15133-1-1"
       x="-0.2921797"
       width="1.5843594"
       y="-0.30825046"
       height="1.6165009"
       style="color-interpolation-filters:sRGB">
      <feGaussianBlur
         stdDeviation="1.7403319"
         id="feGaussianBlur15135-5-8" />
    </filter>
    <filter
       id="filter30475-4-0"
       style="color-interpolation-filters:sRGB">
      <feGaussianBlur
         id="feGaussianBlur30477-9-4"
         stdDeviation="0.93152507" />
    </filter>
    <filter
       height="1.2583811"
       y="-0.12919053"
       width="1.1527554"
       x="-0.07637769"
       id="filter30479-2-6"
       style="color-interpolation-filters:sRGB">
      <feGaussianBlur
         id="feGaussianBlur30481-9-8"
         stdDeviation="2.0355046" />
    </filter>
    <radialGradient
       xlink:href="#linearGradient28799-3"
       id="radialGradient18806-4"
       gradientUnits="userSpaceOnUse"
       gradientTransform="matrix(0.81524244,-0.03431182,0.02961133,1.2479887,-208.43744,-35.542647)"
       cx="223.19559"
       cy="137.66095"
       fx="223.19559"
       fy="137.66095"
       r="14.572236" />
    <radialGradient
       xlink:href="#linearGradient28799-3"
       id="radialGradient18808-6"
       gradientUnits="userSpaceOnUse"
       gradientTransform="matrix(1.0857794,-0.03431182,0.03943781,1.2479887,-233.54194,-35.542647)"
       cx="223.19559"
       cy="137.66095"
       fx="223.19559"
       fy="137.66095"
       r="14.572236" />
    <radialGradient
       xlink:href="#linearGradient28853-5"
       id="radialGradient18810-3"
       gradientUnits="userSpaceOnUse"
       gradientTransform="matrix(0.69784558,-0.50717348,0.46034105,0.63340638,-271.10191,183.03011)"
       cx="275.53763"
       cy="150.65126"
       fx="275.53763"
       fy="150.65126"
       r="15.382211" />
    <linearGradient
       xlink:href="#linearGradient28935-8"
       id="linearGradient18812-0"
       gradientUnits="userSpaceOnUse"
       gradientTransform="translate(-60.00015,-58.362183)"
       x1="213.01591"
       y1="132.76981"
       x2="219.73343"
       y2="140.72476" />
    <linearGradient
       xlink:href="#linearGradient28976-3"
       id="linearGradient18814-3"
       gradientUnits="userSpaceOnUse"
       gradientTransform="translate(-250)"
       x1="337.25"
       y1="119.98718"
       x2="358.625"
       y2="132.48718" />
    <linearGradient
       xlink:href="#linearGradient29336-6"
       id="linearGradient18816-2"
       gradientUnits="userSpaceOnUse"
       gradientTransform="translate(-300.00015,-0.9999998)"
       x1="294.50998"
       y1="114.56181"
       x2="308.74051"
       y2="127.99684" />
    <linearGradient
       xlink:href="#linearGradient29336-6"
       id="linearGradient18818-0"
       gradientUnits="userSpaceOnUse"
       gradientTransform="translate(-300.00015,-0.9999998)"
       x1="253.22745"
       y1="115.66637"
       x2="266.62701"
       y2="128.57106" />
    <linearGradient
       xlink:href="#linearGradient29477-3"
       id="linearGradient18820-8"
       gradientUnits="userSpaceOnUse"
       x1="164.04878"
       y1="132.06271"
       x2="169.8824"
       y2="142.49252"
       gradientTransform="translate(-50.00015,-58.362183)" />
    <radialGradient
       xlink:href="#linearGradient28469-0"
       id="radialGradient18822-9"
       gradientUnits="userSpaceOnUse"
       gradientTransform="matrix(0.93618683,-0.38640412,0.27133164,0.65738721,-244.47527,146.7229)"
       cx="294.48483"
       cy="193.09949"
       fx="294.48483"
       fy="193.09949"
       r="31.111488" />
    <linearGradient
       xlink:href="#linearGradient28275-8"
       id="linearGradient18824-8"
       gradientUnits="userSpaceOnUse"
       gradientTransform="translate(-210)"
       x1="256.85657"
       y1="158.31404"
       x2="313.3367"
       y2="157.8721" />
    <radialGradient
       xlink:href="#linearGradient29529-6"
       id="radialGradient18826-5"
       gradientUnits="userSpaceOnUse"
       gradientTransform="matrix(1.0000004,0,0,0.5833264,59.999805,3.054009)"
       cx="77.67215"
       cy="147.09335"
       fx="77.67215"
       fy="147.09335"
       r="3.2300935" />
    <radialGradient
       xlink:href="#linearGradient29529-6"
       id="radialGradient18828-8"
       gradientUnits="userSpaceOnUse"
       gradientTransform="matrix(1,0,0,1.0751189,59.99984,-69.456344)"
       cx="63.125401"
       cy="147.44128"
       fx="63.125401"
       fy="147.44128"
       r="1.5350333" />
    <linearGradient
       xlink:href="#linearGradient28572-7"
       id="linearGradient18830-1"
       gradientUnits="userSpaceOnUse"
       x1="243.03125"
       y1="157.01843"
       x2="243.46875"
       y2="159.76843" />
    <radialGradient
       xlink:href="#linearGradient29652-2"
       id="radialGradient18832-5"
       gradientUnits="userSpaceOnUse"
       gradientTransform="matrix(0.20141143,-0.03316079,0.03065006,0.18616184,-3.1263574,114.03586)"
       cx="268.06998"
       cy="126.53491"
       fx="268.06998"
       fy="126.53491"
       r="35.51144" />
    <radialGradient
       xlink:href="#linearGradient4417-0"
       id="radialGradient18834-3"
       gradientUnits="userSpaceOnUse"
       gradientTransform="matrix(-0.69844216,0,0,0.76335815,166.3057,50.219935)"
       cx="336.22372"
       cy="220.53755"
       fx="336.22372"
       fy="220.53755"
       r="27.391165" />
    <radialGradient
       xlink:href="#linearGradient4417-0"
       id="radialGradient18836-2"
       gradientUnits="userSpaceOnUse"
       gradientTransform="matrix(1,0,0,0.76335815,-150.00015,-8.142243)"
       cx="312.14502"
       cy="236.36569"
       fx="312.14502"
       fy="236.36569"
       r="27.391165" />
    <radialGradient
       xlink:href="#linearGradient4417-0"
       id="radialGradient18838-5"
       gradientUnits="userSpaceOnUse"
       gradientTransform="matrix(1,0,0,1.0692348,-150.00016,-73.222483)"
       cx="275.55389"
       cy="225.13487"
       fx="275.55389"
       fy="225.13487"
       r="10.84542" />
    <linearGradient
       xlink:href="#linearGradient15103-0"
       id="linearGradient18840-0"
       gradientUnits="userSpaceOnUse"
       gradientTransform="translate(-310)"
       x1="338.28552"
       y1="323.90076"
       x2="341.98224"
       y2="351.48654" />
    <linearGradient
       xlink:href="#linearGradient14392-8"
       id="linearGradient18842-8"
       gradientUnits="userSpaceOnUse"
       x1="442.03912"
       y1="371.54401"
       x2="490.12241"
       y2="293.58548"
       gradientTransform="translate(-250.00016,-58.362183)" />
    <linearGradient
       xlink:href="#linearGradient17009"
       id="linearGradient18844-3"
       gradientUnits="userSpaceOnUse"
       gradientTransform="translate(-150.00016,-60.362183)"
       x1="355.16373"
       y1="289.58905"
       x2="353.74951"
       y2="302.31699" />
    <radialGradient
       xlink:href="#linearGradient14518-6"
       id="radialGradient18846-5"
       gradientUnits="userSpaceOnUse"
       gradientTransform="matrix(1.3082075,0.35053296,-0.36795399,1.3732236,-150.50951,-298.71133)"
       cx="363.33957"
       cy="303.41541"
       fx="363.33957"
       fy="303.41541"
       r="16.845654" />
    <radialGradient
       xlink:href="#linearGradient14518-6"
       id="radialGradient18848-1"
       gradientUnits="userSpaceOnUse"
       gradientTransform="matrix(1.3082075,0.35053296,-0.36795399,1.3732236,-310.50935,-240.34915)"
       cx="363.33957"
       cy="303.41541"
       fx="363.33957"
       fy="303.41541"
       r="16.845654" />
    <radialGradient
       xlink:href="#linearGradient14830-4"
       id="radialGradient18850-2"
       gradientUnits="userSpaceOnUse"
       gradientTransform="matrix(0.36025223,0.15680447,-0.07246786,0.16649214,260.61683,181.93825)"
       cx="382.23483"
       cy="246.85757"
       fx="382.23483"
       fy="246.85757"
       r="20.537666" />
    <linearGradient
       xlink:href="#linearGradient14830-4"
       id="linearGradient18852-7"
       gradientUnits="userSpaceOnUse"
       x1="358.5"
       y1="279.36218"
       x2="361.5"
       y2="279.23718" />
    <linearGradient
       xlink:href="#linearGradient14132-6"
       id="linearGradient18854-2"
       gradientUnits="userSpaceOnUse"
       x1="123.13397"
       y1="301.54044"
       x2="170.86368"
       y2="381.62027"
       gradientTransform="translate(-80.00015,-58.362183)" />
    <linearGradient
       xlink:href="#linearGradient14168-5"
       id="linearGradient18856-6"
       gradientUnits="userSpaceOnUse"
       gradientTransform="translate(-80.53048,-60.12995)"
       x1="171.57079"
       y1="323.99109"
       x2="186.5968"
       y2="352.27536" />
    <clipPath
       clipPathUnits="userSpaceOnUse"
       id="clipPath391-7">
      <path
         id="path393-7"
         d="m 137.57703,281.0191 c 1.59929,-0.66295 3.3982,-0.78361 5.10074,-0.46963 1.70253,0.31398 3.31141,1.04948 4.74342,2.02239 2.86402,1.94583 4.98821,4.77774 7.02263,7.57952 4.67189,6.43406 9.16868,13.00227 13.24488,19.8293 3.30635,5.53766 6.34352,11.25685 10.16415,16.45304 2.49398,3.3919 5.3066,6.53947 7.813,9.92221 2.50639,3.38273 4.72794,7.05586 5.83931,11.11662 1.44411,5.27653 0.88463,11.09291 -1.62666,15.95302 -1.76663,3.41896 -4.47646,6.35228 -7.77242,8.33898 -3.29595,1.9867 -7.17064,3.01444 -11.01635,2.87021 -6.11413,-0.2293 -11.69944,-3.28515 -17.38362,-5.54906 -11.58097,-4.6125 -24.15978,-6.0594 -36.09666,-9.65174 -3.66859,-1.10404 -7.27582,-2.4107 -10.96988,-3.42629 -1.64125,-0.45122 -3.30866,-0.8482 -4.85875,-1.55144 -1.55008,-0.70325 -2.999548,-1.7491 -3.86171,-3.21675 -0.666391,-1.13439 -0.948386,-2.47002 -0.930187,-3.78554 0.0182,-1.31552 0.325889,-2.61453 0.773815,-3.85158 0.895851,-2.47409 2.343262,-4.71374 3.320162,-7.15696 1.59511,-3.98935 1.88169,-8.38839 1.66657,-12.67942 -0.21511,-4.29103 -0.91078,-8.54478 -1.20454,-12.83115 -0.13118,-1.91406 -0.18066,-3.85256 0.18479,-5.73598 0.36545,-1.88343 1.17577,-3.72459 2.55771,-5.05541 1.27406,-1.22693 2.96492,-1.95531 4.69643,-2.31651 1.73151,-0.3612 3.51533,-0.37747 5.28367,-0.33762 1.76833,0.0399 3.54067,0.13425 5.30351,-0.0106 1.76284,-0.14488 3.53347,-0.54055 5.06911,-1.41828 1.45996,-0.83447 2.65433,-2.0745 3.64374,-3.43424 0.9894,-1.35974 1.78909,-2.84573 2.60891,-4.31396 0.81983,-1.46823 1.66834,-2.93151 2.74157,-4.22611 1.07324,-1.2946 2.38923,-2.42304 3.94266,-3.06698"
         style="fill:url(#linearGradient395)"
         transform="matrix(1,0,0,1.0182804,0,-4.0313444)"
         inkscape:label="Clip - Left Foot Brighter Highlights" />
    </clipPath>
    <clipPath
       clipPathUnits="userSpaceOnUse"
       id="clipPath401-8">
      <path
         inkscape:label="Clip - Left Foot Highlights"
         transform="translate(-240.00015,-1)"
         style="fill:url(#linearGradient395)"
         d="m 137.57703,281.0191 c 1.59929,-0.66295 3.3982,-0.78361 5.10074,-0.46963 1.70253,0.31398 3.31141,1.04948 4.74342,2.02239 2.86402,1.94583 4.98821,4.77774 7.02263,7.57952 4.67189,6.43406 9.16868,13.00227 13.24488,19.8293 3.30635,5.53766 6.34352,11.25685 10.16415,16.45304 2.49398,3.3919 5.3066,6.53947 7.813,9.92221 2.50639,3.38273 4.72794,7.05586 5.83931,11.11662 1.44411,5.27653 0.88463,11.09291 -1.62666,15.95302 -1.76663,3.41896 -4.47646,6.35228 -7.77242,8.33898 -3.29595,1.9867 -7.17064,3.01444 -11.01635,2.87021 -6.11413,-0.2293 -11.69944,-3.28515 -17.38362,-5.54906 -11.58097,-4.6125 -24.15978,-6.0594 -36.09666,-9.65174 -3.66859,-1.10404 -7.27582,-2.4107 -10.96988,-3.42629 -1.64125,-0.45122 -3.30866,-0.8482 -4.85875,-1.55144 -1.55008,-0.70325 -2.999548,-1.7491 -3.86171,-3.21675 -0.666391,-1.13439 -0.948386,-2.47002 -0.930187,-3.78554 0.0182,-1.31552 0.325889,-2.61453 0.773815,-3.85158 0.895851,-2.47409 2.343262,-4.71374 3.320162,-7.15696 1.59511,-3.98935 1.88169,-8.38839 1.66657,-12.67942 -0.21511,-4.29103 -0.91078,-8.54478 -1.20454,-12.83115 -0.13118,-1.91406 -0.18066,-3.85256 0.18479,-5.73598 0.36545,-1.88343 1.17577,-3.72459 2.55771,-5.05541 1.27406,-1.22693 2.96492,-1.95531 4.69643,-2.31651 1.73151,-0.3612 3.51533,-0.37747 5.28367,-0.33762 1.76833,0.0399 3.54067,0.13425 5.30351,-0.0106 1.76284,-0.14488 3.53347,-0.54055 5.06911,-1.41828 1.45996,-0.83447 2.65433,-2.0745 3.64374,-3.43424 0.9894,-1.35974 1.78909,-2.84573 2.60891,-4.31396 0.81983,-1.46823 1.66834,-2.93151 2.74157,-4.22611 1.07324,-1.2946 2.38923,-2.42304 3.94266,-3.06698"
         id="path403-4" />
    </clipPath>
    <clipPath
       clipPathUnits="userSpaceOnUse"
       id="clipPath419-6">
      <path
         style="fill:url(#linearGradient423)"
         d="m 513.18983,336.61385 c -2.6238,3.11482 -6.268,5.17039 -9.89648,7.01985 -6.1886,3.15437 -12.60169,5.92177 -18.41964,9.71654 -3.89802,2.54249 -7.4959,5.52671 -10.86016,8.74238 -2.87719,2.75012 -5.60582,5.68745 -8.83247,8.01771 -3.25567,2.35122 -7.01915,4.05426 -10.99061,4.6502 -4.83026,0.72481 -9.82134,-0.21289 -14.29898,-2.16416 -3.13754,-1.36728 -6.15569,-3.3229 -7.96301,-6.22931 -1.81425,-2.91754 -2.22807,-6.48813 -2.23266,-9.92375 -0.008,-6.07666 1.11824,-12.09004 2.17848,-18.07349 0.88097,-4.97177 1.71949,-9.95483 2.26013,-14.97502 0.98337,-9.13118 0.9763,-18.35278 0.3199,-27.51327 -0.10993,-1.53416 -0.23754,-3.0832 -0.008,-4.60412 0.22922,-1.52092 0.85475,-3.0367 2.02069,-4.03986 1.07696,-0.9266 2.52093,-1.33598 3.93947,-1.4145 1.41854,-0.0785 2.83404,0.14655 4.23982,0.35197 3.31254,0.48405 6.65159,0.8649 9.88917,1.71656 2.04284,0.53738 4.03315,1.25925 6.0722,1.81081 3.40258,0.92039 6.96639,1.36144 10.46739,0.95192 3.76917,-0.44089 7.42987,-1.85678 11.22363,-1.76474 1.55658,0.0378 3.1015,0.33171 4.58649,0.79985 1.51539,0.47772 3.00914,1.16182 4.12281,2.29512 0.84639,0.8613 1.43579,1.94539 1.87872,3.06879 0.65982,1.67352 1.01492,3.457 1.16703,5.24945 0.13475,1.58788 0.11343,3.19441 0.41433,4.75933 0.49503,2.57458 1.84746,4.92305 3.52848,6.93494 1.68102,2.01189 3.68982,3.72048 5.69641,5.40783 1.99908,1.68103 4.0106,3.35469 6.16708,4.82839 1.0121,0.69165 2.05642,1.33949 3.01736,2.10062 0.96094,0.76113 1.84466,1.6468 2.44543,2.71535 0.81492,1.44944 1.06377,3.2077 0.53758,4.87655 -0.5262,1.66885 -1.48162,3.27659 -2.67059,4.68806 z"
         id="path421-4"
         clip-path="none"
         inkscape:label="Clip - Right Foot Highlights" />
    </clipPath>
    <clipPath
       clipPathUnits="userSpaceOnUse"
       id="clipPath426-3">
      <path
         style="fill:url(#linearGradient430);stroke-width:0.842603"
         d="m 509.36312,335.7449 c -2.29559,2.52764 -5.48394,4.19571 -8.65854,5.69652 -5.41448,2.55973 -11.02537,4.80544 -16.11557,7.88485 -3.41042,2.0632 -6.55825,4.48486 -9.50168,7.09433 -2.51729,2.23169 -4.9046,4.6153 -7.72764,6.50627 -2.84842,1.90799 -6.14114,3.28999 -9.61581,3.77358 -4.22606,0.58818 -8.59281,-0.17275 -12.51035,-1.75618 -2.74507,-1.10954 -5.38569,-2.6965 -6.96694,-5.05501 -1.5873,-2.36755 -1.94936,-5.26504 -1.95338,-8.053 -0.007,-4.93114 0.97837,-9.81092 1.90598,-14.66641 0.77077,-4.03453 1.5044,-8.07822 1.97742,-12.15205 0.86036,-7.40983 0.85417,-14.89305 0.27988,-22.32667 -0.0962,-1.24495 -0.20783,-2.50198 -0.007,-3.73619 0.20055,-1.23421 0.74783,-2.46424 1.76793,-3.27829 0.94224,-0.75193 2.20559,-1.08414 3.44669,-1.14785 1.24109,-0.0637 2.47953,0.11892 3.70947,0.28562 2.89818,0.3928 5.81955,0.70185 8.65215,1.39296 1.78731,0.43608 3.52865,1.02187 5.31264,1.46945 2.97696,0.74689 6.09498,1.10479 9.15805,0.77247 3.29769,-0.35777 6.50048,-1.50675 9.81968,-1.43206 1.36187,0.0307 2.71354,0.26918 4.01278,0.64907 1.32583,0.38766 2.63273,0.9428 3.6071,1.86246 0.74051,0.69893 1.25619,1.57866 1.64371,2.49028 0.57728,1.35804 0.88797,2.80532 1.02105,4.25987 0.11789,1.28854 0.0992,2.59222 0.3625,3.86213 0.43311,2.08924 1.61637,3.995 3.08711,5.62762 1.47074,1.63263 3.22827,3.01913 4.98386,4.38839 1.74902,1.36413 3.50892,2.72229 5.39565,3.91818 0.8855,0.56126 1.79919,1.08698 2.63992,1.70462 0.84074,0.61765 1.61392,1.33636 2.13954,2.20348 0.71298,1.1762 0.93071,2.60301 0.47034,3.95726 -0.46038,1.35425 -1.29629,2.65891 -2.33654,3.8043 z"
         id="path428-9"
         clip-path="none"
         inkscape:label="Clip - Right Foot Brighter Highlights" />
    </clipPath>
    <clipPath
       clipPathUnits="userSpaceOnUse"
       id="clipPath433-9">
      <path
         style="fill:url(#linearGradient437)"
         d="m 263.18967,278.25167 c -2.6238,3.11482 -6.268,5.17039 -9.89648,7.01985 -6.1886,3.15437 -12.60169,5.92177 -18.41964,9.71654 -3.89802,2.54249 -7.4959,5.52671 -10.86016,8.74238 -2.87719,2.75012 -5.60582,5.68745 -8.83247,8.01771 -3.25567,2.35122 -7.01915,4.05426 -10.99061,4.6502 -4.83026,0.72481 -9.82134,-0.21289 -14.29898,-2.16416 -3.13754,-1.36728 -6.15569,-3.3229 -7.96301,-6.22931 -1.81425,-2.91754 -2.22807,-6.48813 -2.23266,-9.92375 -0.008,-6.07666 1.11824,-12.09004 2.17848,-18.07349 0.88097,-4.97177 1.71949,-9.95483 2.26013,-14.97502 0.98337,-9.13118 0.9763,-18.35278 0.3199,-27.51327 -0.10993,-1.53416 -0.23754,-3.0832 -0.008,-4.60412 0.22922,-1.52092 0.85475,-3.0367 2.02069,-4.03986 1.07696,-0.9266 2.52093,-1.33598 3.93947,-1.4145 1.41854,-0.0785 2.83404,0.14655 4.23982,0.35197 3.31254,0.48405 6.65159,0.8649 9.88917,1.71656 2.04284,0.53738 4.03315,1.25925 6.0722,1.81081 3.40258,0.92039 6.96639,1.36144 10.46739,0.95192 3.76917,-0.44089 7.42987,-1.85678 11.22363,-1.76474 1.55658,0.0378 3.1015,0.33171 4.58649,0.79985 1.51539,0.47772 3.00914,1.16182 4.12281,2.29512 0.84639,0.8613 1.43579,1.94539 1.87872,3.06879 0.65982,1.67352 1.01492,3.457 1.16703,5.24945 0.13475,1.58788 0.11343,3.19441 0.41433,4.75933 0.49503,2.57458 1.84746,4.92305 3.52848,6.93494 1.68102,2.01189 3.68982,3.72048 5.69641,5.40783 1.99908,1.68103 4.0106,3.35469 6.16708,4.82839 1.0121,0.69165 2.05642,1.33949 3.01736,2.10062 0.96094,0.76113 1.84466,1.6468 2.44543,2.71535 0.81492,1.44944 1.06377,3.2077 0.53758,4.87655 -0.5262,1.66885 -1.48162,3.27659 -2.67059,4.68806 z"
         id="path435-7"
         clip-path="none"
         inkscape:label="Clip - Right Foot Brightest Highlights" />
    </clipPath>
    <clipPath
       clipPathUnits="userSpaceOnUse"
       id="clipPath504-6">
      <path
         inkscape:label="Clip - Right Arm Shadow"
         style="fill:#020204;stroke-width:0.991084"
         id="path506-4"
         d="m 304.84727,225.44951 c 5.97679,4.89463 9.76903,12.28597 10.94319,20.00305 0.91574,6.01859 0.32054,12.19496 -1.0124,18.13223 -1.33294,5.93726 -3.39093,11.67615 -5.43351,17.40051 -0.81452,2.2827 -1.63269,4.5871 -1.95634,6.9933 -0.32365,2.40621 -0.1187,4.95426 1.02109,7.08777 1.3066,2.44578 3.74526,4.13021 6.36677,4.92292 2.58816,0.78263 5.38374,0.76618 8.00354,0.10153 2.61979,-0.66466 5.06582,-1.96341 7.19828,-3.64929 5.41763,-4.28306 8.68657,-10.94871 9.95201,-17.81211 1.26545,-6.86339 0.68401,-13.95038 -0.49258,-20.83014 -1.60443,-9.38136 -4.30394,-18.55105 -7.74003,-27.40773 -2.52746,-6.51466 -5.7653,-12.74244 -9.61753,-18.52016 -3.77934,-5.66839 -9.14163,-10.09303 -13.10336,-15.63502 -1.37643,-1.92547 -3.03189,-3.93159 -4.38419,-5.87845 -2.91575,-4.19771 -2.25544,-3.41451 -4.06424,-6.13155 -1.31235,-1.9713 -3.38449,-2.6487 -5.56491,-3.51096 -2.18041,-0.86226 -4.629,-1.11623 -6.88065,-0.47108 -2.96781,0.85034 -5.39233,3.23113 -6.68215,6.08208 -1.28982,2.85095 -1.51545,6.12313 -1.01363,9.2201 0.64739,3.99536 2.44215,7.70258 4.46569,11.18873 2.28537,3.93724 4.93283,7.72707 8.38442,10.65407 3.60205,3.05459 7.95771,5.06875 11.61053,8.0602" />
    </clipPath>
    <clipPath
       clipPathUnits="userSpaceOnUse"
       id="clipPath508-2">
      <path
         inkscape:label="Clip - Left Arm Shadow"
         id="path510-6"
         d="m 240.47307,195.03592 c -7.07309,8.03686 -14.35222,15.81627 -18.34577,24.50506 -1.97625,4.41329 -2.91077,9.20725 -4.26498,13.84932 -1.5379,5.27176 -3.62609,10.3703 -5.97071,15.33612 -2.16496,4.58531 -4.54982,9.06291 -6.93891,13.53553 -1.7382,3.25409 -3.50514,6.58104 -4.10782,10.22071 -0.47628,2.87632 -0.1985,5.84423 0.53375,8.66626 0.73225,2.82202 1.90965,5.5106 3.23776,8.10601 5.66725,11.07504 14.17003,20.62168 24.24176,27.92472 4.57063,3.31418 9.46669,6.18109 14.60245,8.52595 2.78247,1.27041 5.71355,2.40436 8.77186,2.45744 1.52915,0.0265 3.0741,-0.22544 4.47434,-0.84055 1.40023,-0.6151 2.65068,-1.60373 3.48254,-2.88709 1.02278,-1.5779 1.36992,-3.53829 1.16461,-5.40743 -0.2053,-1.86914 -0.93484,-3.65294 -1.91324,-5.25873 -2.38997,-3.92251 -6.1652,-6.76055 -9.79642,-9.57343 -7.84055,-6.07358 -15.42465,-12.48039 -22.68212,-19.23996 -2.04912,-1.90854 -4.09841,-3.87759 -5.53019,-6.28412 -1.3943,-2.34352 -2.1476,-5.01376 -2.65783,-7.69253 -1.39972,-7.34873 -1.04092,-15.08286 1.45958,-22.13343 0.97822,-2.75826 2.27118,-5.39201 3.51815,-8.03965 2.16133,-4.58906 4.20725,-9.26564 7.04933,-13.46723 3.53798,-5.23037 8.26749,-9.66049 11.15147,-15.27803 2.43423,-4.74149 3.41994,-10.07236 4.36185,-15.31831 0.73693,-4.10434 2.15042,-8.12437 2.86923,-12.23193 -1.40611,2.66567 -5.93796,7.04283 -8.71069,10.5253 z"
         style="fill:#020204" />
    </clipPath>
    <clipPath
       clipPathUnits="userSpaceOnUse"
       id="clipPath533-7">
      <path
         inkscape:label="Clip - Hand Lower Hightlight"
         style="fill:#020204"
         id="path535-5"
         d="m 386.1875,285.32775 c -0.40516,-1.10369 -1.11845,-2.08156 -1.9907,-2.86987 -0.87226,-0.78832 -1.90049,-1.39229 -2.98278,-1.85155 -2.16459,-0.91852 -4.52053,-1.26149 -6.83152,-1.69556 -2.17919,-0.40931 -4.34179,-0.90631 -6.52782,-1.27734 -2.27136,-0.38551 -4.6179,-0.63213 -6.8653,-0.1253 -1.96583,0.44333 -3.7845,1.45879 -5.27172,2.81864 -1.48723,1.35984 -2.64911,3.0564 -3.48499,4.89007 -1.47218,3.22952 -1.93451,6.86503 -1.65394,10.40316 0.20881,2.63325 0.87532,5.34594 2.60877,7.33912 1.40065,1.61052 3.38733,2.61526 5.43398,3.22092 3.52502,1.04316 7.36663,0.98822 10.86038,-0.1553 5.76689,-1.93113 10.87568,-5.77387 14.33034,-10.77903 1.13861,-1.64963 2.11217,-3.44809 2.5532,-5.4034 0.33597,-1.48955 0.34831,-3.08112 -0.1779,-4.51456" />
    </clipPath>
    <clipPath
       clipPathUnits="userSpaceOnUse"
       id="clipPath538-8">
      <path
         d="m 386.1875,285.32775 c -0.40516,-1.10369 -1.11845,-2.08156 -1.9907,-2.86987 -0.87226,-0.78832 -1.90049,-1.39229 -2.98278,-1.85155 -2.16459,-0.91852 -4.52053,-1.26149 -6.83152,-1.69556 -2.17919,-0.40931 -4.34179,-0.90631 -6.52782,-1.27734 -2.27136,-0.38551 -4.6179,-0.63213 -6.8653,-0.1253 -1.96583,0.44333 -3.7845,1.45879 -5.27172,2.81864 -1.48723,1.35984 -2.64911,3.0564 -3.48499,4.89007 -1.47218,3.22952 -1.93451,6.86503 -1.65394,10.40316 0.20881,2.63325 0.87532,5.34594 2.60877,7.33912 1.40065,1.61052 3.38733,2.61526 5.43398,3.22092 3.52502,1.04316 7.36663,0.98822 10.86038,-0.1553 5.76689,-1.93113 10.87568,-5.77387 14.33034,-10.77903 1.13861,-1.64963 2.11217,-3.44809 2.5532,-5.4034 0.33597,-1.48955 0.34831,-3.08112 -0.1779,-4.51456"
         id="path540-8"
         style="fill:#020204"
         inkscape:label="Clip - Hand Upper Highlight" />
    </clipPath>
    <clipPath
       clipPathUnits="userSpaceOnUse"
       id="clipPath622-8">
      <path
         inkscape:label="Clip - Right Eyelid"
         style="fill:url(#radialGradient626-6)"
         d="m 85.75,122.36218 c -2.78042,1.91023 -5.11057,4.57487 -6.25,7.75 -1.43603,4.00163 -0.88584,8.48071 0.5,12.5 1.41949,4.11688 3.79379,8.04098 7.37932,10.51234 1.79277,1.23567 3.86809,2.08301 6.0304,2.33859 2.16231,0.25558 4.40928,-0.0949 6.34028,-1.10093 2.35312,-1.22596 4.14782,-3.37278 5.26217,-5.78076 1.11436,-2.40798 1.5888,-5.0701 1.73783,-7.71924 0.18989,-3.37546 -0.14047,-6.80646 -1.25,-10 -1.20527,-3.46909 -3.39005,-6.67055 -6.47275,-8.6666 -1.54136,-0.99803 -3.29195,-1.68356 -5.11089,-1.93515 -1.81893,-0.25158 -3.70476,-0.0633 -5.41636,0.60175 -0.97547,0.37901 -1.88744,0.9074 -2.75,1.5"
         id="path624-0" />
    </clipPath>
    <radialGradient
       xlink:href="#linearGradient28799-3"
       id="radialGradient626-6"
       gradientUnits="userSpaceOnUse"
       gradientTransform="matrix(1.0857794,-0.03431182,0.03943781,1.2479887,-15.5421,-75.904827)"
       cx="223.19559"
       cy="137.66095"
       fx="223.19559"
       fy="137.66095"
       r="14.572236" />
    <clipPath
       clipPathUnits="userSpaceOnUse"
       id="clipPath631-5">
      <path
         inkscape:label="Clip - Left Eyelid"
         style="fill:url(#radialGradient635-9)"
         d="m 54.23244,122.36218 c -1.78096,0.097 -3.48461,0.91899 -4.78785,2.1367 -1.30323,1.21771 -2.22137,2.81176 -2.78618,4.50357 -1.12962,3.38363 -0.87548,7.05177 -0.6187,10.60973 0.23251,3.22162 0.47041,6.50533 1.67679,9.50158 0.60319,1.49813 1.45024,2.91021 2.58034,4.06395 1.13009,1.15374 2.55173,2.04189 4.11829,2.43447 1.46884,0.36809 3.03816,0.29183 4.48279,-0.16209 1.44462,-0.45392 2.76391,-1.27887 3.84623,-2.33791 1.57904,-1.54507 2.64326,-3.5662 3.25345,-5.68947 0.61019,-2.12328 0.78416,-4.35155 0.7524,-6.56053 -0.0397,-2.76435 -0.40091,-5.53851 -1.26575,-8.16439 -0.86485,-2.62588 -2.24575,-5.10327 -4.1728,-7.08561 -0.93331,-0.96009 -1.99776,-1.80513 -3.19858,-2.39747 -1.20082,-0.59233 -2.54344,-0.92535 -3.88043,-0.85253"
         id="path633-6" />
    </clipPath>
    <radialGradient
       xlink:href="#linearGradient28799-3"
       id="radialGradient635-9"
       gradientUnits="userSpaceOnUse"
       gradientTransform="matrix(0.81524244,-0.03431182,0.02961133,1.2479887,9.5624,-75.904827)"
       cx="223.19559"
       cy="137.66095"
       fx="223.19559"
       fy="137.66095"
       r="14.572236" />
    <clipPath
       clipPathUnits="userSpaceOnUse"
       id="clipPath697-5">
      <path
         style="fill:url(#radialGradient701-8);stroke-width:0.77538"
         d="m 214.63605,148.03815 c -2.51029,-0.0409 -4.99135,0.28921 -7.27146,0.88384 -4.05254,1.05688 -7.57367,2.93934 -10.08468,5.39315 -1.62814,0.85539 -3.05003,1.89919 -4.20722,3.08639 -0.66186,0.67901 -1.24391,1.41694 -1.50131,2.24757 -0.20244,0.65333 -0.19857,1.34469 -0.28524,2.01986 -0.0324,0.25293 -0.0778,0.5073 -0.0362,0.76548 0.0208,0.12909 0.0631,0.25809 0.13756,0.38081 0.0221,0.0364 0.0528,0.0707 0.0806,0.1055 0.0825,0.15031 0.18297,0.29681 0.31473,0.43099 0.28806,0.29334 0.68023,0.53107 1.09417,0.73203 0.41394,0.20097 0.85255,0.36757 1.2815,0.54936 2.28006,0.96628 4.22773,2.32456 5.9925,3.75924 2.3677,1.92485 4.52941,4.06099 7.5099,5.46004 2.10465,0.98794 4.52773,1.552 6.92602,1.72396 2.81637,0.20193 5.58521,-0.12293 8.18167,-0.69344 2.40631,-0.52873 4.69673,-1.27132 6.75202,-2.25401 3.90702,-1.86802 6.98699,-4.60634 11.42445,-5.83442 0.96876,-0.2681 1.99041,-0.45921 2.91317,-0.78993 0.92276,-0.33072 1.76305,-0.8265 2.11948,-1.52711 0.34261,-0.67347 0.2049,-1.45031 0.23569,-2.18968 0.0329,-0.791 0.26357,-1.5559 0.33312,-2.34278 0.0695,-0.78687 -0.0382,-1.6289 -0.62199,-2.35178 -0.12955,-0.16043 -0.28324,-0.31001 -0.45163,-0.45157 -0.0509,-0.29235 -0.22134,-0.58029 -0.46622,-0.83239 -0.50487,-0.51975 -1.29334,-0.87172 -2.09515,-1.11671 -1.09824,-0.33555 -2.25599,-0.50211 -3.39891,-0.69601 -3.51093,-0.59565 -6.96955,-1.47539 -10.29467,-2.60394 -1.65302,-0.56104 -3.27073,-1.18327 -4.90416,-1.77928 -1.67927,-0.61273 -3.38672,-1.20103 -5.16515,-1.57729 -1.49109,-0.31546 -3.00643,-0.47332 -4.51259,-0.49788 z"
         id="path699-9"
         inkscape:label="Clip - Beak Side Highlight" />
    </clipPath>
    <radialGradient
       xlink:href="#linearGradient28469-0"
       id="radialGradient701-8"
       gradientUnits="userSpaceOnUse"
       gradientTransform="matrix(0.81494503,-0.25452614,0.31491054,0.43302392,-75.371375,150.73818)"
       cx="294.48483"
       cy="193.09949"
       fx="294.48483"
       fy="193.09949"
       r="31.111488" />
    <clipPath
       clipPathUnits="userSpaceOnUse"
       id="clipPath816-1">
      <path
         inkscape:label="Clip - Lower Beak Shadow"
         style="fill:#fdfdfb"
         d="m -26.29567,154.81433 c -1.0464,1.31136 -1.72773,2.88726 -2.13927,4.51369 -0.41153,1.62642 -0.56228,3.30801 -0.62653,4.98446 -0.12849,3.35291 0.0765,6.77015 -0.81096,10.00604 -0.94874,3.4595 -3.07595,6.45649 -5.15761,9.37795 -3.60485,5.05916 -7.248548,10.25011 -9.027058,16.20217 -1.077103,3.60469 -1.435613,7.42255 -1.04841,11.16474 -4.035298,5.9262 -7.528852,12.22112 -10.4229,18.78069 -4.386197,9.94163 -7.396115,20.5265 -8.454552,31.34105 -1.296051,13.24236 0.397579,26.86184 5.627472,39.09655 3.781309,8.84592 9.417708,16.94379 16.68566,23.2466 3.695408,3.20468 7.799668,5.93944 12.189498,8.09709 15.21252,7.47713 34.01348,7.49101 48.97296,-0.48031 7.81838,-4.16611 14.41789,-10.2582 20.78084,-16.42232 3.83183,-3.71209 7.64353,-7.51249 10.56653,-11.97551 5.62746,-8.59236 7.58747,-19.03566 8.80544,-29.23436 2.12971,-17.83321 2.1984,-36.66998 -5.62137,-52.83816 -2.69219,-5.56638 -6.27896,-10.69891 -10.58065,-15.14052 -1.14547,-7.78087 -3.40638,-15.39666 -6.69212,-22.54215 -2.37045,-5.15502 -5.2683,-10.06187 -7.47079,-15.29085 -0.90422,-2.14672 -1.68995,-4.34486 -2.69346,-6.44699 -1.00352,-2.10213 -2.24145,-4.12498 -3.92446,-5.73541 -1.72343,-1.6491 -3.87096,-2.81824 -6.13593,-3.56631 -2.26498,-0.74806 -4.64917,-1.08697 -7.03147,-1.2068 -4.7646,-0.23966 -9.53872,0.38348 -14.30559,0.19423 -3.79476,-0.15066 -7.57776,-0.81566 -11.36892,-0.59186 -1.89557,0.1119 -3.79087,0.45058 -5.55026,1.1649 -1.7594,0.71432 -3.38173,1.81713 -4.56609,3.30139"
         id="path818-1" />
    </clipPath>
    <clipPath
       clipPathUnits="userSpaceOnUse"
       id="clipPath820-4">
      <path
         id="path822-0"
         d="m -47.29567,161.44377 c -1.0464,1.42368 -1.72773,3.13456 -2.13927,4.9003 -0.41153,1.76572 -0.56228,3.59134 -0.62653,5.41138 -0.12849,3.64009 0.0765,7.35002 -0.81096,10.86307 -0.94874,3.75581 -3.07595,7.0095 -5.15761,10.18119 -3.60485,5.49248 -7.248548,11.12804 -9.027058,17.58991 -1.077103,3.91343 -1.435613,8.0583 -1.04841,12.12101 -4.035298,6.43379 -7.528852,13.26788 -10.4229,20.38928 -4.386197,10.79315 -7.396115,22.28463 -8.454552,34.02546 -1.296051,14.37658 0.397579,29.16259 5.627472,42.44522 3.781309,9.60359 9.417708,18.39505 16.68566,25.23771 3.695408,3.47916 7.799668,6.44816 12.189498,8.79061 15.21252,8.11756 34.01348,8.13263 48.97296,-0.52145 7.81838,-4.52294 14.41789,-11.13683 20.78084,-17.82891 3.83183,-4.03004 7.64353,-8.15595 10.56653,-13.00123 5.62746,-9.32831 7.58747,-20.66609 8.80544,-31.73832 2.12971,-19.36065 2.1984,-39.81082 -5.62137,-57.36383 -2.69219,-6.04314 -6.27896,-11.61528 -10.58065,-16.43732 -1.14547,-8.44732 -3.40638,-16.71541 -6.69212,-24.47292 -2.37045,-5.59655 -5.2683,-10.92368 -7.47079,-16.60053 -0.90422,-2.33059 -1.68995,-4.71701 -2.69346,-6.99919 -1.00352,-2.28218 -2.24145,-4.47829 -3.92446,-6.22665 -1.72343,-1.79035 -3.87096,-3.05963 -6.13593,-3.87177 -2.26498,-0.81213 -4.64917,-1.18007 -7.03147,-1.31016 -4.7646,-0.26019 -9.53872,0.41632 -14.30559,0.21086 -3.79476,-0.16356 -7.57776,-0.88552 -11.36892,-0.64255 -1.89557,0.12148 -3.79087,0.48917 -5.55026,1.26467 -1.7594,0.77551 -3.38173,1.97277 -4.56609,3.58416"
         style="fill:#fdfdfb;stroke-width:1.04195"
         inkscape:label="Clip - Upper Beak Shadow" />
    </clipPath>
    <clipPath
       id="clipPath4429">
      <g
         transform="matrix(0.9947658,0,0,1,1.7860989,0)"
         id="g4431">
        <path
           d="m 322.54143,2800.9375 -4.43505,5.7298 -4.43495,-5.7298 0,-43.1429 -18.93972,0 23.37467,-25.5367 23.13125,25.5367 -18.6962,0 0,43.1429 z"
           id="path4433"
           style="fill:#efa724;fill-opacity:1;fill-rule:evenodd;stroke:none;stroke-width:30;marker:none;visibility:visible;display:inline;overflow:visible" />
      </g>
    </clipPath>
    <clipPath
       clipPathUnits="userSpaceOnUse"
       id="clipPath16">
      <path
         d="m 0,200.303 320,0 L 320,0 0,0 0,200.303 Z"
         id="path18"
         inkscape:connector-curvature="0" />
    </clipPath>
  </defs>
  <sodipodi:namedview
     id="base"
     pagecolor="#ffffff"
     bordercolor="#666666"
     borderopacity="1.0"
     inkscape:pageopacity="0.0"
     inkscape:pageshadow="2"
     inkscape:zoom="0.35"
     inkscape:cx="400"
     inkscape:cy="560"
     inkscape:document-units="px"
     inkscape:current-layer="layer1"
     inkscape:document-rotation="0"
     showgrid="true"
     inkscape:window-width="2560"
     inkscape:window-height="1017"
     inkscape:window-x="1912"
     inkscape:window-y="302"
     inkscape:window-maximized="1">
    <inkscape:grid
       type="xygrid"
       id="grid630" />
  </sodipodi:namedview>
  <metadata
     id="metadata624">
    <rdf:RDF>
      <cc:Work
         rdf:about="">
        <dc:format>image/svg+xml</dc:format>
        <dc:type
           rdf:resource="http://purl.org/dc/dcmitype/StillImage" />
        <dc:title></dc:title>
      </cc:Work>
    </rdf:RDF>
  </metadata>
  <g
     inkscape:label="Ebene 1"
     inkscape:groupmode="layer"
     id="layer1">
    <g
       id="g14"
       clip-path="url(#clipPath16)"
       transform="matrix(0.4710272,0,0,-0.4710272,7.2712971,130.05315)">
      <g
         id="g20"
         transform="translate(262.6839,162.7228)">
        <path
           d="m 0,0 c 0.175,4.73 2.156,9.12 5.614,12.34 3.46,3.231 7.975,4.9 12.708,4.75 9.761,-0.349 17.43,-8.589 17.095,-18.339 -0.184,-4.73 -2.164,-9.12 -5.614,-12.329 -3.46,-3.25 -7.964,-4.92 -12.719,-4.76 C 7.335,-17.979 -0.326,-9.758 0,0 Z m 47.347,-17.439 c 0.805,0.532 1.396,0.972 1.645,1.07 l 0.269,0.419 c -0.681,4.28 -7.06,25.03 -11.885,30.019 -1.329,1.36 -2.394,2.7 -4.549,3.961 -17.455,10.17 -58.863,16.309 -60.803,16.589 l -0.33,-0.091 -0.124,-0.3 c 0,0 -0.16,-8.58 -0.184,-9.539 -4.229,1.421 -34.972,11.351 -63.791,12.351 -24.44,0.859 -60.033,4.02 -107.196,-24.981 l -1.395,-0.868 c -22.189,-13.841 -37.509,-30.91 -45.517,-50.739 -2.512,-6.24 -5.89,-20.32 -2.542,-33.569 1.442,-5.791 4.131,-11.61 7.756,-16.819 8.194,-11.77 21.944,-19.58 36.748,-20.899 20.905,-1.87 36.733,7.519 42.363,25.1 3.871,12.129 0,29.927 -14.839,39.007 -12.07,7.391 -25.049,5.711 -32.578,0.73 -6.532,-4.331 -10.231,-11.06 -10.166,-18.451 0.151,-13.11 11.444,-20.078 19.565,-20.099 2.359,0 4.728,0.41 7.399,1.28 0.951,0.29 1.845,0.649 2.831,1.259 l 0.309,0.181 0.194,0.13 -0.065,-0.039 c 1.851,1.261 2.964,3.312 2.964,5.511 0,0.6 -0.084,1.208 -0.256,1.82 -0.959,3.32 -4.239,5.329 -7.638,4.71 l -0.459,-0.109 -0.621,-0.19 -0.901,-0.31 c -1.87,-0.46 -3.27,-0.5 -3.569,-0.51 -0.951,0.061 -5.625,1.461 -5.625,6.58 v 0.07 c 0,1.88 0.754,3.199 1.17,3.92 1.454,2.28 5.435,4.518 10.814,4.05 7.059,-0.611 12.149,-4.231 15.52,-11.06 3.129,-6.349 2.31,-14.159 -2.11,-19.88 -4.39,-5.669 -12.205,-8.078 -22.598,-6.959 -10.481,1.159 -19.34,7.19 -24.304,16.579 -4.856,9.178 -5.121,20.059 -0.685,28.418 10.609,20.029 30.648,19.82 41.636,17.921 16.26,-2.821 34.758,-17.82 41.319,-35.139 1.06,-2.761 1.6,-4.949 2.072,-6.951 l 0.708,-2.99 18.37,-8.969 0.24,-0.181 0.446,0.041 0.081,0.529 c -0.114,0.411 -0.381,0.789 -0.805,5.93 -0.349,4.562 -1.06,17.051 5.228,23.24 2.441,2.419 6.161,4.578 9.099,5.269 12.04,2.941 26.159,0.912 39.507,-14.539 6.911,-7.981 10.28,-11.62 11.97,-13.249 l 0.59,-0.532 0.694,-0.519 c 0.554,-0.301 22.955,-10.621 22.955,-10.621 l 0.461,0.11 0.009,0.479 c -0.149,0.17 -14.199,18.328 -11.698,33.28 1.969,11.908 11.447,10.83 24.557,9.35 4.28,-0.5 9.152,-1.06 14.196,-1.172 14.083,-0.089 29.254,2.511 38.604,6.601 6.049,2.63 9.909,4.38 12.328,6.579 0.87,0.721 1.32,1.891 1.791,3.15 l 0.329,0.831 c 0.391,1.021 0.967,3.171 1.219,4.35 0.102,0.519 0.162,1.068 -0.209,1.359 l -1.294,-0.24 c -4.106,-2.471 -14.369,-7.15 -23.965,-7.35 -11.914,-0.241 -35.898,11.98 -38.398,13.28 l -0.241,0.279 c -0.589,1.44 -4.19,9.949 -4.96,11.749 17.27,-11.379 31.594,-17.669 42.559,-18.639 12.207,-1.087 21.722,5.574 25.786,8.422 z M 20.194,-1.64 c -3.031,0 -5.479,1.64 -5.479,3.65 0,2.029 2.448,3.66 5.479,3.66 3.031,0 5.486,-1.631 5.486,-3.66 C 25.678,0 23.223,-1.64 20.194,-1.64 M 18.173,11.872 C 14.862,11.991 11.723,10.821 9.323,8.571 6.924,6.321 5.509,3.273 5.409,-0.028 c -0.23,-6.821 5.111,-12.559 11.916,-12.81 3.309,-0.1 6.464,1.07 8.878,3.32 2.409,2.261 3.795,5.311 3.9,8.599 0.23,6.819 -5.109,12.549 -11.93,12.791 z"
           style="fill:#73ba25;fill-opacity:1;fill-rule:nonzero;stroke:none"
           id="path22"
           inkscape:connector-curvature="0" />
      </g>
      <g
         id="g24"
         transform="translate(133.9789,60.2888)">
        <path
           d="m 0,0 c -7.784,0 -12.065,-6.58 -12.065,-11.13 v -5.84 c 0,-6.7 5.474,-10.851 10.55,-10.851 h 17.819 c 2.245,0 2.715,-1.47 2.715,-2.71 V -34.3 c 0,-0.4 -0.081,-4.02 -2.715,-4.02 H -7.999 c -2.415,0 -4.161,-1.68 -4.161,-3.98 v -1.041 c 0,-2.291 1.746,-3.961 4.161,-3.961 h 25.623 c 6.698,0 11.02,4.66 11.02,11.879 v 6.302 c 0,6.779 -4.87,9.809 -9.706,9.809 H 1.405 c -2.64,0 -3.836,1.98 -3.836,3.38 v 3.48 c 0,2.19 1.465,3.46 4.025,3.46 h 19.408 c 2.38,0 4.171,1.71 4.171,3.971 v 1.04 C 25.173,-1.712 23.352,0 20.922,0 Z"
           style="fill:#73ba25;fill-opacity:1;fill-rule:nonzero;stroke:none"
           id="path26"
           inkscape:connector-curvature="0" />
      </g>
      <g
         id="g28"
         transform="translate(206.8412,60.2888)">
        <path
           d="m 0,0 c -2.301,0 -4.155,-1.87 -4.155,-4.171 v -29.838 c 0,-2.391 -1.95,-4.311 -4.311,-4.311 h -13.545 c -2.369,0 -4.309,1.92 -4.309,4.311 V -4.171 C -26.32,-1.87 -28.19,0 -30.489,0 h -1.31 c -2.335,0 -4.171,-1.842 -4.171,-4.171 v -30.968 c 0,-7.21 5.674,-12.44 13.489,-12.44 h 14.485 c 7.805,0 13.475,5.229 13.475,12.44 V -4.171 C 5.479,-1.842 3.65,0 1.319,0 Z"
           style="fill:#73ba25;fill-opacity:1;fill-rule:nonzero;stroke:none"
           id="path30"
           inkscape:connector-curvature="0" />
      </g>
      <g
         id="g32"
         transform="translate(232.7736,60.2888)">
        <path
           d="m 0,0 c -7.78,0 -12.074,-6.58 -12.074,-11.13 v -5.84 c 0,-6.7 5.485,-10.851 10.564,-10.851 h 17.814 c 2.248,0 2.72,-1.47 2.72,-2.71 V -34.3 c 0,-0.4 -0.081,-4.02 -2.72,-4.02 H -8.01 c -2.404,0 -4.16,-1.68 -4.16,-3.98 v -1.041 c 0,-2.291 1.756,-3.961 4.16,-3.961 h 25.633 c 6.7,0 11.04,4.66 11.04,11.879 v 6.302 c 0,6.779 -4.884,9.809 -9.72,9.809 H 1.41 c -2.646,0 -3.839,1.98 -3.839,3.38 v 3.48 c 0,2.19 1.464,3.46 4.025,3.46 h 19.419 c 2.374,0 4.158,1.71 4.158,3.971 v 1.04 C 25.173,-1.712 23.354,0 20.913,0 Z"
           style="fill:#73ba25;fill-opacity:1;fill-rule:nonzero;stroke:none"
           id="path34"
           inkscape:connector-curvature="0" />
      </g>
      <g
         id="g36"
         transform="translate(273.7386,60.2888)">
        <path
           d="M 0,0 C -2.31,0 -4.055,-1.712 -4.055,-3.981 V -43.34 c 0,-2.259 1.705,-3.96 3.964,-3.96 h 31.364 c 2.415,0 4.16,1.67 4.16,3.96 v 1.042 c 0,2.3 -1.745,3.98 -4.16,3.98 H 5.586 v 10.02 h 18.822 c 2.41,0 4.161,1.69 4.161,3.981 v 1.04 c 0,2.301 -1.751,3.971 -4.161,3.971 H 5.586 v 10.319 h 24.382 c 2.406,0 4.16,1.659 4.16,3.971 v 1.04 c 0,2.301 -1.754,3.981 -4.16,3.981 L 0,0.005 Z"
           style="fill:#73ba25;fill-opacity:1;fill-rule:nonzero;stroke:none"
           id="path38"
           inkscape:connector-curvature="0" />
      </g>
      <g
         id="g40"
         transform="translate(5.0529,20.4885)">
        <path
           d="m 0,0 v 13.55 c 0,1.589 1.305,2.889 2.901,2.889 h 7.478 c 1.561,0 2.891,-1.329 2.891,-2.889 V 0 c 0,-1.6 -1.295,-2.899 -2.891,-2.899 H 2.845 C 1.245,-2.899 0,-1.628 0,0 m 2.077,21.08 c -3.931,0 -7.13,-3.059 -7.13,-6.83 V -0.589 c 0,-3.831 3.096,-6.951 6.891,-6.951 h 9.599 c 3.795,0 6.891,3.12 6.891,6.951 V 14.25 c 0,3.769 -3.201,6.83 -7.13,6.83 H 2.076 Z"
           style="fill:#73ba25;fill-opacity:1;fill-rule:nonzero;stroke:none"
           id="path42"
           inkscape:connector-curvature="0" />
      </g>
      <g
         id="g44"
         transform="translate(35.5085,20.7779)">
        <path
           d="m 0,0 v 12.961 c 0,1.791 1.4,3.189 3.188,3.189 h 7.011 c 1.79,0 3.188,-1.4 3.188,-3.189 V 0 c 0,-1.759 -1.435,-3.188 -3.188,-3.188 H 3.188 C 1.433,-3.188 0,-1.759 0,0 Z m 9.602,20.962 c -2.767,0 -4.854,-0.989 -6.529,-1.799 -1.021,-0.49 -1.905,-0.912 -2.591,-0.912 -0.31,0 -0.575,0.14 -0.715,0.37 l -0.639,1.22 c -0.159,0.321 -0.799,0.949 -1.59,0.949 h -0.949 c -0.912,0 -1.642,-0.819 -1.642,-1.818 v -37.64 c 0,-1.18 0.931,-2.11 2.11,-2.11 h 0.821 c 1.17,0 2.12,0.94 2.12,2.11 v 12.489 c 0,0.37 0.241,0.77 0.484,0.77 0.686,0 1.57,-0.402 2.591,-0.87 1.675,-0.77 3.762,-1.719 6.529,-1.719 h 0.886 c 4.9,0 7.949,2.801 7.949,7.3 V 13.67 c 0,4.43 -3.114,7.29 -7.949,7.29 H 9.602 Z"
           style="fill:#73ba25;fill-opacity:1;fill-rule:nonzero;stroke:none"
           id="path46"
           inkscape:connector-curvature="0" />
      </g>
      <g
         id="g48"
         transform="translate(66.0714,34.088)">
        <path
           d="m 0,0 c 0,1.591 1.251,2.839 2.843,2.839 h 7.71 c 1.589,0 2.829,-1.248 2.829,-2.839 V -4.599 H -0.002 C 0,-3.999 0,0 0,0 Z m 2.075,7.48 c -3.931,0 -7.121,-3.058 -7.121,-6.829 v -14.729 c 0,-3.82 3.101,-7.059 6.76,-7.059 h 9.903 c 1.225,0 2.11,0.848 2.11,2.001 v 0.649 c 0,1.159 -0.885,1.99 -2.11,1.99 H 3.481 c -2.28,0 -3.483,1.121 -3.483,3.252 v 4.309 h 14.678 c 2.361,0 3.757,1.44 3.757,3.88 v 5.71 c 0,3.769 -3.196,6.83 -7.11,6.83 H 2.075 Z"
           style="fill:#73ba25;fill-opacity:1;fill-rule:nonzero;stroke:none"
           id="path50"
           inkscape:connector-curvature="0" />
      </g>
      <g
         id="g52"
         transform="translate(104.8947,41.74)">
        <path
           d="m 0,0 c -2.759,0 -4.841,-0.989 -6.521,-1.791 -1.045,-0.491 -1.938,-0.92 -2.667,-0.92 -0.321,0 -0.451,0.04 -0.7,0.471 l -0.581,1.06 c -0.333,0.67 -0.899,1.008 -1.664,1.008 h -0.816 c -0.985,0 -1.704,-0.768 -1.704,-1.819 V -26.68 c 0,-1.169 0.924,-2.109 2.115,-2.109 h 0.815 c 1.17,0 2.124,0.95 2.124,2.109 v 18.679 c 0,1.75 1.43,3.188 3.18,3.188 h 7.014 c 1.755,0 3.185,-1.438 3.185,-3.188 V -26.68 c 0,-1.169 0.929,-2.109 2.11,-2.109 h 0.824 c 1.17,0 2.12,0.95 2.12,2.109 V -7.291 C 8.834,-2.86 5.719,0 0.88,0 Z"
           style="fill:#73ba25;fill-opacity:1;fill-rule:nonzero;stroke:none"
           id="path54"
           inkscape:connector-curvature="0" />
      </g>
      <g
         id="g56"
         transform="translate(315.4154,18.754)">
        <path
           d="m 0,0 h 0.503 c 0.574,0 1.06,0.207 1.06,0.747 0,0.382 -0.277,0.765 -1.06,0.765 C 0.277,1.512 0.121,1.494 0,1.475 Z M 0,-2.415 H -0.695 V 1.943 C -0.33,1.996 0.018,2.048 0.538,2.048 1.2,2.048 1.633,1.91 1.892,1.719 2.154,1.529 2.294,1.235 2.294,0.815 2.294,0.244 1.912,-0.104 1.443,-0.244 V -0.281 C 1.826,-0.349 2.085,-0.696 2.173,-1.34 2.278,-2.019 2.38,-2.278 2.45,-2.417 H 1.721 C 1.615,-2.278 1.512,-1.878 1.426,-1.305 1.321,-0.751 1.043,-0.54 0.488,-0.54 H 0.002 V -2.415 Z M 0.73,3.16 c -1.719,0 -3.126,-1.476 -3.126,-3.3 0,-1.859 1.407,-3.317 3.143,-3.317 1.736,-0.019 3.126,1.458 3.126,3.299 0,1.842 -1.39,3.318 -3.126,3.318 z m 0.017,0.607 c 2.136,0 3.838,-1.736 3.838,-3.909 0,-2.205 -1.703,-3.923 -3.855,-3.923 -2.137,0 -3.873,1.718 -3.873,3.923 0,2.171 1.736,3.909 3.873,3.909 z"
           style="fill:#73ba25;fill-opacity:1;fill-rule:nonzero;stroke:none"
           id="path58"
           inkscape:connector-curvature="0" />
      </g>
    </g>
  </g>
</svg>
