<?xml version="1.0" encoding="UTF-8"?>
<!-- Generator: Adobe Illustrator 24.1.1, SVG Export Plug-In . SVG Version: 6.00 Build 0)  -->
<svg version="1.1" id="Layer_1" xmlns="http://www.w3.org/2000/svg" xmlns:xlink="http://www.w3.org/1999/xlink" x="0px" y="0px" viewBox="0 0 50 50" style="enable-background:new 0 0 50 50;" xml:space="preserve">
<style type="text/css">
	.st0{fill:#00188F;}
</style>
<path id="path2" class="st0" d="M15.1,5.5l8.3-1.1v8h-8.3 M24.4,4.2l11-1.6v9.7h-11 M15.1,13.3h8.3v8.1l-8.3-1.2 M24.4,13.4h11V23  l-11-1.6"/>
<g id="text43">
	<path id="path98" class="st0" d="M13.7,26.9l-2,7.2h-1l-1.5-5.3c-0.1-0.2-0.1-0.5-0.1-0.7h0c0,0.2-0.1,0.5-0.1,0.7l-1.5,5.3h-1   l-2.1-7.2h0.9l1.5,5.5c0.1,0.2,0.1,0.5,0.1,0.7h0C7,33,7,32.8,7.1,32.5l1.6-5.5h0.8l1.5,5.6c0.1,0.2,0.1,0.4,0.1,0.7h0   c0-0.2,0.1-0.4,0.1-0.7l1.5-5.6H13.7z"/>
	<path id="path100" class="st0" d="M15,27.7c-0.1,0-0.3-0.1-0.4-0.2c-0.1-0.1-0.2-0.2-0.2-0.4s0.1-0.3,0.2-0.4   c0.1-0.1,0.2-0.2,0.4-0.2c0.2,0,0.3,0.1,0.4,0.2c0.1,0.1,0.2,0.2,0.2,0.4c0,0.1-0.1,0.3-0.2,0.4C15.3,27.6,15.1,27.7,15,27.7z    M15.4,34.2h-0.8V29h0.8V34.2z"/>
	<path id="path102" class="st0" d="M21.2,34.2h-0.8v-2.9c0-1.1-0.4-1.6-1.2-1.6c-0.4,0-0.8,0.2-1,0.5c-0.3,0.3-0.4,0.7-0.4,1.2v2.9   h-0.8V29h0.8v0.9h0c0.4-0.7,1-1,1.7-1c0.6,0,1,0.2,1.3,0.5c0.3,0.4,0.4,0.9,0.4,1.6L21.2,34.2z"/>
	<path id="path104" class="st0" d="M27.1,34.2h-0.8v-0.9h0c-0.4,0.7-1,1-1.8,1c-0.6,0-1.2-0.2-1.6-0.7c-0.4-0.5-0.6-1.1-0.6-1.9   c0-0.9,0.2-1.5,0.6-2.1c0.4-0.5,1-0.8,1.7-0.8c0.7,0,1.2,0.3,1.5,0.8h0v-3.2h0.8V34.2z M26.2,31.8v-0.8c0-0.4-0.1-0.8-0.4-1.1   c-0.3-0.3-0.6-0.4-1-0.4c-0.5,0-0.9,0.2-1.2,0.6c-0.3,0.4-0.4,0.9-0.4,1.5c0,0.6,0.1,1.1,0.4,1.4c0.3,0.3,0.7,0.5,1.1,0.5   c0.5,0,0.8-0.2,1.1-0.5C26.1,32.8,26.2,32.3,26.2,31.8z"/>
	<path id="path106" class="st0" d="M30.8,34.3c-0.8,0-1.4-0.2-1.8-0.7c-0.5-0.5-0.7-1.1-0.7-1.9c0-0.9,0.2-1.5,0.7-2   c0.5-0.5,1.1-0.7,1.9-0.7c0.8,0,1.4,0.2,1.8,0.7c0.4,0.5,0.7,1.1,0.7,2c0,0.8-0.2,1.5-0.7,2C32.2,34,31.6,34.3,30.8,34.3L30.8,34.3   z M30.8,29.6c-0.5,0-1,0.2-1.3,0.5c-0.3,0.4-0.5,0.9-0.5,1.5c0,0.6,0.2,1.1,0.5,1.4c0.3,0.4,0.7,0.5,1.3,0.5c0.5,0,0.9-0.2,1.2-0.5   c0.3-0.3,0.4-0.8,0.4-1.5c0-0.6-0.1-1.1-0.4-1.5C31.8,29.7,31.4,29.6,30.8,29.6z"/>
	<path id="path108" class="st0" d="M41.1,29l-1.5,5.2h-0.9l-1.1-3.7c0-0.1-0.1-0.3-0.1-0.5h0c0,0.1,0,0.3-0.1,0.5l-1.2,3.7h-0.8   L33.8,29h0.9l1.1,3.9c0,0.1,0.1,0.3,0.1,0.5h0c0-0.1,0-0.3,0.1-0.5l1.2-3.9h0.8l1.1,3.9c0,0.1,0.1,0.3,0.1,0.5h0   c0-0.1,0-0.3,0.1-0.5l1-3.9H41.1z"/>
	<path id="path110" class="st0" d="M41.6,34v-0.9c0.5,0.3,0.9,0.5,1.5,0.5c0.7,0,1.1-0.2,1.1-0.7c0-0.1,0-0.3-0.1-0.3   c-0.1-0.1-0.1-0.2-0.3-0.3c-0.1-0.1-0.2-0.1-0.4-0.2c-0.1-0.1-0.3-0.1-0.5-0.2c-0.2-0.1-0.4-0.2-0.6-0.3c-0.2-0.1-0.3-0.2-0.4-0.3   c-0.1-0.1-0.2-0.3-0.3-0.4c-0.1-0.1-0.1-0.3-0.1-0.5c0-0.2,0.1-0.5,0.2-0.6c0.1-0.2,0.3-0.3,0.4-0.5c0.2-0.1,0.4-0.2,0.6-0.3   c0.2-0.1,0.5-0.1,0.7-0.1c0.4,0,0.8,0.1,1.2,0.2v0.8c-0.4-0.2-0.8-0.4-1.3-0.4c-0.2,0-0.3,0-0.4,0.1c-0.1,0-0.2,0.1-0.3,0.1   c-0.1,0.1-0.2,0.1-0.2,0.2c0,0.1-0.1,0.2-0.1,0.3c0,0.1,0,0.2,0.1,0.3c0.1,0.1,0.1,0.2,0.2,0.2s0.2,0.1,0.3,0.2s0.3,0.1,0.5,0.2   c0.2,0.1,0.4,0.2,0.6,0.3c0.2,0.1,0.3,0.2,0.5,0.3c0.1,0.1,0.2,0.2,0.3,0.4c0.1,0.2,0.1,0.3,0.1,0.5c0,0.3-0.1,0.5-0.2,0.7   c-0.1,0.2-0.3,0.3-0.4,0.5c-0.2,0.1-0.4,0.2-0.7,0.3c-0.2,0.1-0.5,0.1-0.8,0.1C42.4,34.3,42,34.2,41.6,34z"/>
	<path id="path112" class="st0" d="M1.1,45.6v-0.9c0.1,0.1,0.2,0.2,0.4,0.3C1.7,45,1.8,45.1,2,45.1c0.2,0.1,0.3,0.1,0.5,0.1   c0.2,0,0.3,0,0.5,0c0.5,0,0.8-0.1,1.1-0.3c0.2-0.2,0.4-0.4,0.4-0.8c0-0.2,0-0.3-0.1-0.5c-0.1-0.1-0.2-0.3-0.3-0.4   c-0.1-0.1-0.3-0.2-0.5-0.3C3.2,43,3,42.9,2.8,42.7c-0.2-0.1-0.5-0.2-0.7-0.4c-0.2-0.1-0.4-0.3-0.5-0.4s-0.3-0.3-0.4-0.5   c-0.1-0.2-0.1-0.4-0.1-0.7c0-0.3,0.1-0.6,0.2-0.8c0.1-0.2,0.3-0.4,0.5-0.6c0.2-0.1,0.5-0.3,0.7-0.3C2.9,39,3.2,39,3.5,39   c0.7,0,1.2,0.1,1.5,0.2v0.9c-0.4-0.3-0.9-0.4-1.5-0.4c-0.2,0-0.3,0-0.5,0.1c-0.2,0-0.3,0.1-0.5,0.2s-0.2,0.2-0.3,0.3   C2,40.4,2,40.6,2,40.7c0,0.2,0,0.3,0.1,0.4c0.1,0.1,0.2,0.2,0.3,0.3c0.1,0.1,0.3,0.2,0.5,0.3C3,41.9,3.2,42,3.4,42.2   c0.2,0.1,0.5,0.2,0.7,0.4s0.4,0.3,0.6,0.4c0.2,0.2,0.3,0.3,0.4,0.5c0.1,0.2,0.1,0.4,0.1,0.7c0,0.3-0.1,0.6-0.2,0.8   c-0.1,0.2-0.3,0.4-0.5,0.6c-0.2,0.1-0.5,0.2-0.8,0.3C3.4,46,3.1,46,2.8,46c-0.1,0-0.2,0-0.4,0c-0.2,0-0.3,0-0.5-0.1   c-0.2,0-0.3-0.1-0.5-0.1C1.3,45.7,1.2,45.7,1.1,45.6z"/>
	<path id="path114" class="st0" d="M10.2,43.7H6.8c0,0.5,0.2,1,0.4,1.2c0.3,0.3,0.7,0.4,1.1,0.4c0.5,0,1-0.2,1.5-0.5v0.7   c-0.4,0.3-1,0.5-1.7,0.5c-0.7,0-1.2-0.2-1.6-0.7C6.2,44.9,6,44.3,6,43.5c0-0.8,0.2-1.4,0.6-1.8c0.4-0.5,1-0.7,1.6-0.7   c0.6,0,1.1,0.2,1.5,0.6c0.3,0.4,0.5,1,0.5,1.7V43.7z M9.4,43c0-0.4-0.1-0.8-0.3-1c-0.2-0.2-0.5-0.4-0.9-0.4c-0.4,0-0.7,0.1-0.9,0.4   c-0.3,0.3-0.4,0.6-0.5,1H9.4z"/>
	<path id="path116" class="st0" d="M13.8,41.8c-0.1-0.1-0.3-0.2-0.6-0.2c-0.3,0-0.6,0.2-0.8,0.5c-0.2,0.3-0.3,0.7-0.3,1.3v2.5h-0.8   v-4.8H12v1h0c0.1-0.3,0.3-0.6,0.5-0.8c0.2-0.2,0.5-0.3,0.8-0.3c0.2,0,0.4,0,0.5,0.1V41.8z"/>
	<path id="path118" class="st0" d="M18.3,41.1l-1.9,4.8h-0.8l-1.8-4.8h0.8l1.2,3.5C16,44.8,16,45,16,45.2h0c0-0.2,0.1-0.5,0.2-0.7   l1.3-3.5H18.3z"/>
	<path id="path120" class="st0" d="M22.9,43.7h-3.4c0,0.5,0.2,1,0.4,1.2c0.3,0.3,0.7,0.4,1.1,0.4c0.5,0,1-0.2,1.5-0.5v0.7   c-0.4,0.3-1,0.5-1.7,0.5c-0.7,0-1.2-0.2-1.6-0.7c-0.4-0.4-0.6-1.1-0.6-1.9c0-0.8,0.2-1.4,0.6-1.8c0.4-0.5,1-0.7,1.6-0.7   c0.6,0,1.1,0.2,1.5,0.6c0.3,0.4,0.5,1,0.5,1.7L22.9,43.7z M22.1,43c0-0.4-0.1-0.8-0.3-1c-0.2-0.2-0.5-0.4-0.9-0.4   c-0.4,0-0.7,0.1-0.9,0.4c-0.3,0.3-0.4,0.6-0.5,1H22.1z"/>
	<path id="path122" class="st0" d="M26.5,41.8c-0.1-0.1-0.3-0.2-0.6-0.2c-0.3,0-0.6,0.2-0.8,0.5c-0.2,0.3-0.3,0.7-0.3,1.3v2.5h-0.8   v-4.8h0.8v1h0c0.1-0.3,0.3-0.6,0.5-0.8c0.2-0.2,0.5-0.3,0.8-0.3c0.2,0,0.4,0,0.5,0.1L26.5,41.8z"/>
	<path id="path124" class="st0" d="M32.6,40.9c0-0.2,0-0.4-0.1-0.5c-0.1-0.2-0.2-0.3-0.3-0.4c-0.1-0.1-0.2-0.2-0.4-0.2   c-0.2-0.1-0.3-0.1-0.5-0.1c-0.2,0-0.3,0-0.4,0.1c-0.1,0-0.3,0.1-0.4,0.2c-0.1,0.1-0.3,0.2-0.4,0.3c-0.1,0.1-0.2,0.2-0.4,0.3v-0.8   c0.2-0.2,0.5-0.4,0.7-0.5c0.3-0.1,0.6-0.2,1-0.2c0.3,0,0.5,0,0.8,0.1c0.2,0.1,0.4,0.2,0.6,0.3c0.2,0.2,0.3,0.3,0.4,0.6   c0.1,0.2,0.2,0.5,0.2,0.8c0,0.3,0,0.5-0.1,0.7c-0.1,0.2-0.2,0.4-0.3,0.6c-0.1,0.2-0.3,0.4-0.5,0.6c-0.2,0.2-0.4,0.4-0.7,0.5   c-0.3,0.2-0.6,0.4-0.8,0.6c-0.2,0.2-0.4,0.3-0.5,0.5c-0.1,0.1-0.2,0.3-0.3,0.4c0,0.1-0.1,0.3-0.1,0.5h3.4v0.7h-4.2v-0.3   c0-0.3,0-0.5,0.1-0.8c0.1-0.2,0.2-0.4,0.3-0.6c0.1-0.2,0.3-0.4,0.6-0.6c0.2-0.2,0.5-0.4,0.9-0.7c0.2-0.2,0.4-0.3,0.6-0.5   c0.2-0.2,0.3-0.3,0.4-0.5c0.1-0.2,0.2-0.3,0.2-0.5C32.5,41.3,32.6,41.1,32.6,40.9L32.6,40.9z"/>
	<path id="path126" class="st0" d="M38.8,42.5c0,0.6-0.1,1.1-0.2,1.5c-0.1,0.4-0.2,0.8-0.4,1.1c-0.2,0.3-0.4,0.5-0.7,0.7   c-0.3,0.2-0.6,0.2-1,0.2c-0.3,0-0.6-0.1-0.9-0.2c-0.3-0.2-0.5-0.4-0.7-0.7c-0.2-0.3-0.3-0.6-0.4-1.1c-0.1-0.4-0.1-0.9-0.1-1.4   c0-0.6,0-1.1,0.1-1.6c0.1-0.5,0.2-0.8,0.4-1.1c0.2-0.3,0.4-0.5,0.7-0.7c0.3-0.2,0.6-0.2,1-0.2C38.1,39,38.8,40.2,38.8,42.5   L38.8,42.5z M38,42.6c0-1.9-0.5-2.9-1.4-2.9c-1,0-1.4,1-1.4,2.9c0,1.8,0.5,2.7,1.4,2.7C37.5,45.3,38,44.4,38,42.6z"/>
	<path id="path128" class="st0" d="M42.5,45.9h-0.8V40c-0.1,0.1-0.1,0.1-0.3,0.2c-0.1,0.1-0.2,0.2-0.4,0.2c-0.1,0.1-0.3,0.1-0.5,0.2   c-0.2,0.1-0.3,0.1-0.5,0.2v-0.8c0.2,0,0.3-0.1,0.5-0.2c0.2-0.1,0.4-0.2,0.6-0.3c0.2-0.1,0.4-0.2,0.5-0.3c0.2-0.1,0.3-0.2,0.4-0.3   h0.3V45.9z"/>
	<path id="path130" class="st0" d="M44.7,41.3c0-0.3,0.1-0.6,0.2-0.9c0.1-0.3,0.3-0.5,0.4-0.7c0.2-0.2,0.4-0.4,0.7-0.5   c0.3-0.1,0.5-0.2,0.8-0.2c0.3,0,0.6,0.1,0.9,0.2c0.3,0.1,0.5,0.3,0.7,0.6c0.2,0.3,0.3,0.6,0.4,1c0.1,0.4,0.1,0.8,0.1,1.3   c0,0.6-0.1,1.1-0.2,1.6c-0.1,0.5-0.3,0.9-0.6,1.2c-0.2,0.3-0.5,0.6-0.9,0.8C47,45.9,46.6,46,46.2,46c-0.5,0-0.8-0.1-1.1-0.2v-0.7   c0.3,0.2,0.7,0.3,1.1,0.3c0.3,0,0.6-0.1,0.8-0.2c0.2-0.1,0.4-0.3,0.6-0.6c0.2-0.2,0.3-0.5,0.4-0.9c0.1-0.3,0.1-0.7,0.1-1.2h0   c-0.3,0.6-0.8,0.8-1.5,0.8c-0.3,0-0.6-0.1-0.8-0.2c-0.2-0.1-0.4-0.2-0.6-0.4c-0.2-0.2-0.3-0.4-0.4-0.7S44.7,41.6,44.7,41.3   L44.7,41.3z M45.5,41.2c0,0.2,0,0.4,0.1,0.6c0.1,0.2,0.1,0.3,0.3,0.5c0.1,0.1,0.2,0.2,0.4,0.3c0.2,0.1,0.3,0.1,0.6,0.1   c0.2,0,0.4,0,0.5-0.1s0.3-0.2,0.4-0.3c0.1-0.1,0.2-0.3,0.3-0.4c0.1-0.2,0.1-0.3,0.1-0.5c0-0.2,0-0.5-0.1-0.7   c-0.1-0.2-0.2-0.4-0.3-0.5c-0.1-0.2-0.3-0.3-0.4-0.4c-0.2-0.1-0.4-0.1-0.6-0.1c-0.2,0-0.4,0-0.5,0.1c-0.2,0.1-0.3,0.2-0.4,0.3   c-0.1,0.1-0.2,0.3-0.3,0.5C45.5,40.7,45.5,41,45.5,41.2z"/>
</g>
<g>
</g>
<g>
</g>
<g>
</g>
<g>
</g>
<g>
</g>
<g>
</g>
<g>
</g>
<g>
</g>
<g>
</g>
<g>
</g>
<g>
</g>
</svg>