<?xml version="1.0" encoding="UTF-8"?>
<svg width="38px" height="38px" viewBox="0 0 38 38" version="1.1" xmlns="http://www.w3.org/2000/svg" xmlns:xlink="http://www.w3.org/1999/xlink">
    <!-- Generator: Sketch 52.5 (67469) - http://www.bohemiancoding.com/sketch -->
    <title>icon-twitter</title>
    <desc>Created with Sketch.</desc>
    <g id="Page-1" stroke="none" stroke-width="1" fill="none" fill-rule="evenodd">
        <g id="Desktop-HD-Copy-2" transform="translate(-554.000000, -2985.000000)">
            <g id="Footer" transform="translate(0.000000, 2789.000000)">
                <g id="Group-2" transform="translate(556.000000, 197.466683)">
                    <g id="icon-twitter">
                        <path d="M34.3338536,17.3434422 C34.3338536,26.8244777 26.6479719,34.5103594 17.1669365,34.5103594 C7.68590101,34.5103594 1.9292356e-05,26.8244777 1.9292356e-05,17.3434422 C1.9292356e-05,7.86240677 7.68590101,0.176525058 17.1669365,0.176525058 C26.6479719,0.176525058 34.3338536,7.86240677 34.3338536,17.3434422" id="Fill-6" stroke="#33AAAA" stroke-width="3"></path>
                        <path d="M25.7322409,12.0305589 C25.1019597,12.3101051 24.424605,12.4989773 23.7136817,12.5840566 C24.4392672,12.1490139 24.9966234,11.4602768 25.2589994,10.63958 C24.5799085,11.0424044 23.8276995,11.3348765 23.0270668,11.4923021 C22.3861747,10.8093527 21.4726816,10.3826058 20.4617622,10.3826058 C18.5209512,10.3826058 16.9472737,11.9560904 16.9472737,13.8970943 C16.9472737,14.1723962 16.9783344,14.4407529 17.0383336,14.69792 C14.117278,14.5512981 11.527665,13.1522165 9.79424685,11.025813 C9.4917427,11.5449703 9.31830442,12.1486281 9.31830442,12.7927999 C9.31830442,14.0120768 9.93874659,15.0878185 10.8819499,15.7180998 C10.3056872,15.6997721 9.76376492,15.5417677 9.28994466,15.278427 C9.28975174,15.2930892 9.28975174,15.3077514 9.28975174,15.3226065 C9.28975174,17.0255428 10.5011188,18.445846 12.1089437,18.7688001 C11.8139636,18.8492492 11.5035496,18.8922711 11.1829106,18.8922711 C10.9566113,18.8922711 10.7362926,18.8700849 10.5217616,18.8291851 C10.9689584,20.2253729 12.2669481,21.2415013 13.8049347,21.2698611 C12.6020563,22.2124856 11.0866418,22.774279 9.44003919,22.774279 C9.15624863,22.774279 8.87650947,22.7576876 8.6015934,22.7252764 C10.1569431,23.7223054 12.0043792,24.3043558 13.9891767,24.3043558 C20.4536594,24.3043558 23.9887907,18.9489907 23.9887907,14.3045489 C23.9887907,14.1521393 23.9853181,14.0006943 23.9785658,13.8498281 C24.6651807,13.3544003 25.2611216,12.7353086 25.7322409,12.0305589" id="Fill-8" fill="#FFFFFF"></path>
                    </g>
                </g>
            </g>
        </g>
    </g>
</svg>