<?xml version="1.0" encoding="UTF-8"?>
<svg width="22px" height="17px" viewBox="0 0 22 17" version="1.1" xmlns="http://www.w3.org/2000/svg" xmlns:xlink="http://www.w3.org/1999/xlink">
    <!-- Generator: Sketch 52.5 (67469) - http://www.bohemiancoding.com/sketch -->
    <title>Group 5</title>
    <desc>Created with Sketch.</desc>
    <g id="Page-1" stroke="none" stroke-width="1" fill="none" fill-rule="evenodd">
        <g id="Desktop-Presse" transform="translate(-312.000000, -736.000000)" fill-rule="nonzero">
            <g id="Presse-Informationen-2" transform="translate(310.000000, 621.000000)">
                <g id="Group-5" transform="translate(4.000000, 116.000000)">
                    <path d="M18.3311794,7.32412774 C17.5995381,4.32847669 14.865566,1.98151323 11.2976786,3.07086109 C10.8564488,2.55233079 10.5302689,2.18440256 9.87648105,1.74519277 C9.22269325,1.30598297 8.17497332,0.929475157 7.19986866,0.929475157 C5.87495964,0.929475157 4.74365303,1.39834368 3.80614585,2.33585086 C2.86857299,3.27312819 2.39993433,4.40450047 2.39993433,5.72950799 C2.39993433,5.81074482 2.40620605,5.94514351 2.41868381,6.13257271 C1.68121494,6.47633519 1.0937748,6.99192967 0.65616637,7.67935613 C0.218722123,8.3669796 6.78568313e-13,9.11682774 6.78568313e-13,9.92949158 C6.78568313e-13,11.0857866 0.411011082,12.0746496 1.23280339,12.8965076 C2.05462854,13.7186283 3.04372144,14.1294423 4.19995075,14.1294423 L13.6498039,14.1294423 C16.9971103,14.1294423 19.0628207,10.3197788 18.3311794,7.32412774 Z" id="Shape-Copy" stroke="#004477" stroke-width="2.5"></path>
                    <path d="M11.5064167,8.65429661 L8.21573403,11.9451763 C8.15955124,12.0012278 8.0876399,12.0294341 8.00009851,12.0294341 C7.91262279,12.0294341 7.84071145,12.0012278 7.78446299,11.9451763 L4.48455329,8.64506963 C4.42830483,8.58888684 4.40022985,8.5169755 4.40022985,8.42943411 C4.40022985,8.34819728 4.42978246,8.27786208 4.48915036,8.21852701 C4.54864961,8.15915911 4.61882063,8.12950799 4.70005746,8.12950799 L6.80006567,8.12950799 L6.80006567,4.82956546 C6.80006567,4.74832863 6.82978246,4.67799342 6.88911753,4.61852701 C6.94851827,4.55925762 7.0187878,4.5296065 7.10002463,4.5296065 L8.90020523,4.5296065 C8.9815734,4.5296065 9.05154741,4.55915911 9.11124367,4.61852701 C9.17048023,4.67799342 9.20013134,4.74832863 9.20013134,4.82956546 L9.20013134,8.12950799 L11.3001396,8.12950799 C11.3876481,8.12950799 11.4595594,8.15758297 11.5156437,8.21376576 C11.571925,8.26994855 11.5997701,8.34185989 11.5997701,8.42940128 C11.5997701,8.50472759 11.5687727,8.57943001 11.5064167,8.65429661 Z" id="Path" fill="#004477"></path>
                </g>
            </g>
        </g>
    </g>
</svg>