<?xml version="1.0" encoding="UTF-8"?>
<svg width="38px" height="38px" viewBox="0 0 38 38" version="1.1" xmlns="http://www.w3.org/2000/svg" xmlns:xlink="http://www.w3.org/1999/xlink">
    <!-- Generator: Sketch 52.5 (67469) - http://www.bohemiancoding.com/sketch -->
    <title>icon-instagram</title>
    <desc>Created with Sketch.</desc>
    <g id="Page-1" stroke="none" stroke-width="1" fill="none" fill-rule="evenodd">
        <g id="Desktop-HD-Copy-2" transform="translate(-642.000000, -2985.000000)">
            <g id="Footer" transform="translate(0.000000, 2789.000000)">
                <g id="Group-2" transform="translate(556.000000, 197.466683)">
                    <g id="icon-instagram" transform="translate(87.587296, 0.192924)">
                        <path d="M34.3338536,17.1734766 C34.3338536,26.654512 26.6479719,34.3403937 17.1669365,34.3403937 C7.68590101,34.3403937 1.9292356e-05,26.654512 1.9292356e-05,17.1734766 C1.9292356e-05,7.69244112 7.68590101,0.00655940105 17.1669365,0.00655940105 C26.6479719,0.00655940105 34.3338536,7.69244112 34.3338536,17.1734766" id="Fill-13" stroke="#33AAAA" stroke-width="3"></path>
                        <g id="Instagram-Logo-Copy" transform="translate(9.839102, 9.839102)" fill="#FFFFFF">
                            <path d="M4.44849221,1.38735451 C4.10690264,1.39877439 3.76214065,1.44050677 3.42758393,1.51048228 C2.79975018,1.6418109 2.2826072,1.96589791 1.91388005,2.5017892 C1.59323611,2.96781996 1.45368777,3.50072216 1.42509775,4.05443306 C1.38102785,4.90804996 1.36279598,5.76331468 1.34918896,6.61811955 C1.34188857,7.07702246 1.36887327,7.53642355 1.37709098,7.99563303 C1.39161533,8.80598467 1.40273791,9.61637464 1.41707114,10.4267263 C1.42433331,10.838915 1.49978344,11.2393006 1.64537085,11.624779 C1.79959642,12.0330972 2.04169425,12.3769966 2.38588291,12.6510737 C2.70820861,12.9077144 3.0717758,13.0831514 3.47157739,13.1423968 C3.99254257,13.2195768 4.52050236,13.2885943 5.04571017,13.2905104 C6.82842013,13.2971017 8.6113212,13.2789755 10.3939547,13.2555609 C10.8470759,13.2496211 11.2942345,13.1565759 11.7142555,12.9763104 C12.5761605,12.6063522 13.0428123,11.9203547 13.1790353,11.0157315 C13.258537,10.4878878 13.2901847,9.94908404 13.2967589,9.41464897 C13.312965,8.09293195 13.3095633,6.77079339 13.2989758,5.4489614 C13.2948096,4.92648272 13.272832,4.40208794 13.2204297,3.88244507 C13.0879142,2.56808582 12.3433506,1.66986242 10.9931984,1.45989757 C10.5234507,1.38685632 10.0435359,1.36236873 9.56740505,1.35114046 C8.82895698,1.33366574 8.0897827,1.34650353 7.35095241,1.34650353 M0.0338952251,5.64072342 C0.03928452,5.33472428 0.0302259179,5.0283036 0.0422276101,4.72264935 C0.065963441,4.11743401 0.0962352252,3.51187378 0.268539775,2.92535946 C0.616550628,1.74071933 1.34383789,0.891126217 2.48552753,0.408195574 C3.08068151,0.156460025 3.70733038,0.0682433653 4.34640138,0.0395786993 C4.47864932,0.0336388287 4.61040038,0.0157042515 4.74238078,0.00328800581 L9.86412205,0.00328800581 C9.97733547,0.0153976775 10.0904724,0.0278139233 10.2037241,0.0395403775 C10.5830769,0.0788201672 10.9680484,0.0893586474 11.3408653,0.162208287 C12.6360543,0.415246775 13.6015025,1.1212483 14.1730736,2.32807673 C14.4846589,2.98598446 14.5749774,3.69497509 14.605746,4.41427426 C14.6133522,4.5919722 14.6295965,4.76928691 14.6418658,4.94679324 L14.6418658,9.73701149 C14.6300552,9.84419742 14.6168304,9.95123005 14.6067398,10.0585693 C14.5672565,10.4770811 14.5651543,10.9029889 14.4834358,11.3130316 C14.1726531,12.87265 13.2747049,13.9238922 11.7395967,14.3954413 C11.0555002,14.6055977 10.3457568,14.6274411 9.64136453,14.6356036 C8.06275978,14.6539214 6.48369637,14.6492462 4.90497695,14.6349522 C4.42945767,14.6306601 3.95049842,14.5906522 3.48025377,14.5195654 C2.64946147,14.3939084 1.90761165,14.0584398 1.29621334,13.4649126 C0.592700131,12.7819041 0.228177396,11.9315446 0.122417261,10.9714316 C0.0632114606,10.4339308 0.0641670093,9.88983862 0.0356534348,9.34885053" id="Fill-1"></path>
                            <path d="M7.32531695,9.73524486 C8.59099859,9.73428682 9.73570777,8.75033767 9.74572192,7.3367251 C9.75531563,5.98377586 8.68468059,4.91161005 7.3400324,4.90846766 C6.05955886,4.90547857 4.91985676,5.85911522 4.91771633,7.32158801 C4.91572879,8.69174372 5.98212119,9.72535785 7.32531695,9.73524486 M7.33143246,11.0812962 C5.42920246,11.1531878 3.55510382,9.51386013 3.55789402,7.33998245 C3.56079889,5.0791144 5.47652123,3.54064958 7.35902871,3.54758582 C9.32734445,3.55479031 11.1653234,5.29961773 11.1005371,7.43555688 C11.0437011,9.30837893 9.43948765,11.1482826 7.33143246,11.0812962" id="Fill-10"></path>
                            <path d="M10.3235384,3.42878841 C10.3250291,2.93574082 10.7362973,2.52811241 11.2278315,2.53251941 C11.7151996,2.53688809 12.1228367,2.94516797 12.1175239,3.42353833 C12.1120199,3.914095 11.6918078,4.3354426 11.2141099,4.32934944 C10.7419159,4.3232946 10.3221242,3.89880462 10.3235384,3.42878841" id="Fill-12"></path>
                        </g>
                    </g>
                </g>
            </g>
        </g>
    </g>
</svg>