<?xml version="1.0" encoding="utf-8"?>
<!-- Generator: Adobe Illustrator 15.0.0, SVG Export Plug-In . SVG Version: 6.00 Build 0)  -->
<!DOCTYPE svg PUBLIC "-//W3C//DTD SVG 1.1//EN" "http://www.w3.org/Graphics/SVG/1.1/DTD/svg11.dtd">
<svg version="1.1" id="Ebene_1" xmlns="http://www.w3.org/2000/svg" xmlns:xlink="http://www.w3.org/1999/xlink" x="0px" y="0px"
	 width="165.655px" height="57.118px" viewBox="0 0 165.655 57.118" enable-background="new 0 0 165.655 57.118"
	 xml:space="preserve">
<path fill="white" d="M19.407,18.864c-0.398,1.507-0.818,3.006-1.264,4.495c-0.408,1.353-0.834,2.714-1.279,4.083
	c-0.082,0.248-0.313,0.414-0.573,0.414h-2.623c-0.239,0-0.455-0.138-0.547-0.36c-0.316-0.756-0.653-1.627-1.012-2.617
	c-0.42-1.151-0.852-2.407-1.299-3.767c-0.449-1.361-0.908-2.8-1.376-4.318c-0.391-1.268-0.769-2.547-1.14-3.838
	c-0.109-0.381,0.179-0.764,0.576-0.764h3.404c0.278,0,0.519,0.192,0.581,0.466c0.131,0.585,0.272,1.208,0.42,1.873
	c0.189,0.843,0.389,1.712,0.601,2.605c0.208,0.894,0.428,1.792,0.659,2.696c0.045,0.181,0.091,0.358,0.138,0.537
	c0.153,0.591,0.991,0.599,1.153,0.01c0.058-0.205,0.115-0.413,0.171-0.621c0.249-0.915,0.488-1.813,0.715-2.696
	c0.228-0.883,0.446-1.738,0.654-2.561c0.165-0.651,0.315-1.267,0.447-1.849c0.064-0.27,0.303-0.46,0.581-0.46h2.263
	c0.28,0,0.519,0.19,0.581,0.461c0.131,0.581,0.275,1.199,0.432,1.848c0.197,0.823,0.408,1.678,0.626,2.561
	c0.218,0.883,0.447,1.781,0.686,2.696c0.053,0.208,0.107,0.414,0.162,0.619c0.159,0.589,0.997,0.587,1.156-0.002
	c0.047-0.179,0.096-0.36,0.144-0.543c0.24-0.904,0.465-1.802,0.675-2.696c0.208-0.893,0.41-1.762,0.599-2.605
	c0.148-0.665,0.289-1.288,0.42-1.873c0.06-0.274,0.303-0.466,0.581-0.466h3.346c0.398,0,0.684,0.383,0.575,0.764
	c-0.371,1.291-0.75,2.57-1.141,3.838c-0.469,1.518-0.927,2.957-1.374,4.318c-0.448,1.36-0.887,2.616-1.313,3.767
	c-0.369,0.99-0.711,1.861-1.028,2.617c-0.092,0.222-0.309,0.36-0.547,0.36h-2.628c-0.257,0-0.488-0.166-0.568-0.412
	c-0.449-1.369-0.89-2.73-1.323-4.085C20.241,21.871,19.806,20.372,19.407,18.864"/>
<path fill="white" d="M38.411,7.667c0,0.814-0.264,1.454-0.791,1.921c-0.525,0.466-1.147,0.698-1.861,0.698
	c-0.715,0-1.335-0.232-1.862-0.698c-0.525-0.467-0.788-1.107-0.788-1.921c0-0.813,0.263-1.454,0.788-1.921
	c0.527-0.465,1.147-0.7,1.862-0.7c0.714,0,1.336,0.235,1.861,0.7C38.147,6.212,38.411,6.854,38.411,7.667 M37.396,27.856h-3.243
	c-0.33,0-0.597-0.265-0.597-0.595V12.79c0-0.329,0.267-0.597,0.597-0.597h3.243c0.329,0,0.597,0.268,0.597,0.597v14.472
	C37.993,27.592,37.725,27.856,37.396,27.856"/>
<path fill="white" d="M42.41,13.185c0-0.274,0.185-0.511,0.451-0.579c0.679-0.173,1.501-0.335,2.467-0.488
	c1.19-0.187,2.442-0.282,3.751-0.282c1.331,0,2.439,0.173,3.322,0.521c0.883,0.346,1.581,0.838,2.098,1.475
	c0.517,0.636,0.884,1.389,1.102,2.263c0.218,0.873,0.327,1.845,0.327,2.917v8.249c0,0.33-0.265,0.597-0.595,0.597h-3.245
	c-0.329,0-0.595-0.267-0.595-0.597v-7.713c0-1.429-0.189-2.442-0.566-3.037c-0.379-0.596-1.083-0.894-2.115-0.894
	c-0.317,0-0.655,0.016-1.013,0.045c-0.148,0.013-0.289,0.027-0.424,0.039c-0.303,0.033-0.53,0.29-0.53,0.593v10.967
	c0,0.33-0.265,0.597-0.595,0.597h-3.245c-0.329,0-0.595-0.267-0.595-0.597V13.185z"/>
<path fill="white" d="M74.001,26.899c0,0.274-0.185,0.508-0.451,0.578c-0.282,0.075-0.587,0.147-0.918,0.217
	c-0.517,0.109-1.058,0.203-1.623,0.282c-0.566,0.08-1.142,0.144-1.727,0.193c-0.585,0.05-1.147,0.075-1.683,0.075
	c-1.291,0-2.442-0.188-3.455-0.565c-1.013-0.379-1.866-0.918-2.559-1.624c-0.696-0.705-1.228-1.559-1.594-2.56
	c-0.369-1.003-0.552-2.131-0.552-3.381c0-1.271,0.158-2.418,0.476-3.439c0.319-1.023,0.776-1.89,1.371-2.607
	c0.595-0.714,1.324-1.26,2.189-1.637c0.863-0.377,1.851-0.566,2.963-0.566c0.616,0,1.166,0.06,1.651,0.179
	c0.229,0.056,0.456,0.122,0.684,0.2c0.389,0.13,0.791-0.153,0.791-0.562v-5.71c0-0.295,0.214-0.544,0.502-0.589L73.31,4.86
	c0.363-0.06,0.692,0.22,0.692,0.589V26.899z M63.965,19.906c0,1.369,0.309,2.471,0.925,3.305c0.615,0.834,1.528,1.252,2.74,1.252
	c0.396,0,0.762-0.017,1.1-0.045c0.105-0.011,0.204-0.019,0.299-0.029c0.304-0.033,0.535-0.288,0.535-0.595V16.6
	c0-0.233-0.132-0.445-0.344-0.541c-0.214-0.099-0.461-0.188-0.741-0.262c-0.449-0.12-0.9-0.179-1.357-0.179
	C65.018,15.617,63.965,17.048,63.965,19.906"/>
<path fill="white" d="M0,47.438c0-1.13,0.183-2.197,0.55-3.198c0.366-1.001,0.895-1.874,1.591-2.616
	c0.692-0.744,1.536-1.332,2.527-1.77c0.99-0.437,2.121-0.655,3.389-0.655c0.834,0,1.596,0.077,2.29,0.225
	c0.523,0.111,1.034,0.26,1.534,0.445c0.282,0.105,0.432,0.411,0.356,0.704l-0.628,2.409c-0.084,0.327-0.424,0.519-0.747,0.418
	c-0.249-0.078-0.509-0.149-0.783-0.216c-0.496-0.118-1.05-0.178-1.665-0.178c-1.308,0-2.284,0.406-2.929,1.22
	c-0.644,0.813-0.966,1.884-0.966,3.212c0,1.405,0.301,2.498,0.907,3.271c0.605,0.773,1.659,1.158,3.167,1.158
	c0.535,0,1.109-0.049,1.725-0.148c0.369-0.06,0.719-0.139,1.052-0.24c0.344-0.106,0.703,0.108,0.762,0.463l0.422,2.444
	c0.05,0.29-0.115,0.573-0.393,0.667c-0.42,0.143-0.906,0.27-1.458,0.384c-0.772,0.157-1.624,0.238-2.555,0.238
	c-1.429,0-2.659-0.215-3.688-0.641c-1.032-0.424-1.878-1.005-2.543-1.738c-0.663-0.732-1.149-1.602-1.456-2.603
	C0.152,49.693,0,48.608,0,47.438"/>
<path fill="white" d="M21.885,55.045c-0.051,0.292-0.309,0.509-0.605,0.496c-1.055-0.045-1.928-0.18-2.62-0.401
	c-0.803-0.258-1.439-0.619-1.904-1.085c-0.466-0.466-0.783-1.031-0.952-1.695c-0.169-0.665-0.251-1.413-0.251-2.247V33.403
	c0-0.292,0.212-0.541,0.501-0.587l3.239-0.523c0.362-0.057,0.689,0.221,0.689,0.589v16.34c0,0.397,0.031,0.754,0.091,1.07
	c0.058,0.317,0.173,0.585,0.342,0.804s0.41,0.396,0.729,0.535c0.189,0.082,0.418,0.147,0.688,0.196
	c0.321,0.057,0.541,0.35,0.488,0.671L21.885,55.045z"/>
<path fill="white" d="M39.639,47.407c0,1.229-0.18,2.354-0.536,3.375c-0.356,1.021-0.873,1.896-1.546,2.617
	c-0.673,0.725-1.483,1.285-2.424,1.681c-0.941,0.397-1.997,0.596-3.167,0.596c-1.149,0-2.195-0.198-3.136-0.596
	c-0.943-0.396-1.75-0.956-2.423-1.681c-0.676-0.722-1.201-1.596-1.578-2.617c-0.376-1.021-0.564-2.146-0.564-3.375
	c0-1.229,0.193-2.349,0.579-3.359c0.387-1.012,0.922-1.872,1.606-2.588c0.684-0.714,1.497-1.268,2.438-1.666
	c0.941-0.395,1.968-0.595,3.078-0.595c1.131,0,2.166,0.2,3.108,0.595c0.941,0.398,1.75,0.952,2.423,1.666
	c0.674,0.716,1.201,1.576,1.578,2.588C39.452,45.059,39.639,46.179,39.639,47.407 M35.119,47.407c0-1.367-0.274-2.441-0.818-3.228
	c-0.545-0.781-1.324-1.172-2.335-1.172s-1.793,0.391-2.349,1.172c-0.556,0.786-0.832,1.86-0.832,3.228s0.276,2.455,0.832,3.256
	c0.556,0.804,1.338,1.204,2.349,1.204s1.79-0.4,2.335-1.204C34.845,49.862,35.119,48.774,35.119,47.407"/>
<path fill="white" d="M55.785,54.267c0,0.275-0.185,0.511-0.451,0.578c-0.677,0.174-1.499,0.336-2.462,0.488
	c-1.189,0.188-2.439,0.283-3.746,0.283c-1.33,0-2.434-0.18-3.318-0.537c-0.881-0.355-1.579-0.855-2.096-1.5
	c-0.514-0.645-0.881-1.413-1.099-2.307c-0.219-0.893-0.327-1.872-0.327-2.942v-8.118c0-0.329,0.267-0.596,0.595-0.596h3.24
	c0.328,0,0.596,0.267,0.596,0.596v7.582c0,1.428,0.187,2.459,0.564,3.094c0.377,0.634,1.081,0.95,2.112,0.95
	c0.316,0,0.653-0.013,1.01-0.045c0.148-0.011,0.29-0.024,0.424-0.039c0.302-0.03,0.529-0.289,0.529-0.592v-10.95
	c0-0.329,0.266-0.596,0.595-0.596h3.239c0.33,0,0.595,0.267,0.595,0.596V54.267z"/>
<path fill="white" d="M74.002,54.302c0,0.271-0.185,0.508-0.449,0.577c-0.282,0.073-0.589,0.145-0.918,0.215
	c-0.515,0.11-1.056,0.204-1.621,0.283c-0.566,0.081-1.141,0.144-1.725,0.192c-0.585,0.05-1.145,0.074-1.681,0.074
	c-1.289,0-2.438-0.186-3.449-0.563c-1.011-0.377-1.863-0.916-2.557-1.62c-0.694-0.704-1.223-1.558-1.59-2.559
	c-0.368-1.001-0.552-2.127-0.552-3.375c0-1.269,0.159-2.413,0.476-3.435c0.317-1.021,0.774-1.888,1.369-2.603
	c0.593-0.715,1.322-1.259,2.185-1.635c0.863-0.377,1.849-0.567,2.959-0.567c0.614,0,1.165,0.063,1.651,0.18
	c0.225,0.056,0.453,0.123,0.682,0.201c0.387,0.13,0.789-0.151,0.789-0.562v-5.704c0-0.292,0.212-0.541,0.5-0.587l3.241-0.522
	c0.363-0.058,0.69,0.221,0.69,0.589V54.302z M63.979,47.318c0,1.367,0.307,2.47,0.922,3.302c0.614,0.832,1.526,1.247,2.737,1.247
	c0.396,0,0.762-0.015,1.1-0.044c0.105-0.01,0.204-0.018,0.296-0.026c0.305-0.034,0.536-0.29,0.536-0.594v-7.186
	c0-0.231-0.132-0.447-0.342-0.543c-0.214-0.098-0.461-0.186-0.744-0.26c-0.446-0.119-0.897-0.179-1.352-0.179
	C65.032,43.036,63.979,44.465,63.979,47.318"/>
<path fill="white" d="M135.224,35.434l-8.239-4.746c-0.184-0.105-0.297-0.301-0.297-0.511v-9.49c0-0.327-0.267-0.592-0.592-0.592
	h-3.51c-0.326,0-0.593,0.265-0.593,0.592v9.49c0,0.21-0.113,0.406-0.296,0.511l-8.24,4.746c-0.281,0.163-0.38,0.524-0.216,0.809
	l1.753,3.029c0.164,0.283,0.527,0.379,0.811,0.217l8.238-4.744c0.185-0.106,0.409-0.106,0.596,0l8.235,4.744
	c0.285,0.162,0.649,0.066,0.813-0.217l1.754-3.029C135.604,35.958,135.508,35.597,135.224,35.434"/>
<path fill="white" d="M152.994,26.08c0.155-1.084,0.234-2.18,0.234-3.277C153.228,10.23,142.973,0,130.37,0
	c-8.549,0-16.225,4.663-20.168,12.064c-1.229-0.412-2.518-0.625-3.817-0.625c-6.64,0-12.043,5.39-12.043,12.012
	c0,1.03,0.134,2.054,0.396,3.045c-8.779,2.739-14.063,12.876-9.049,22.807c2.443,4.837,7.489,7.815,12.916,7.815h19.625
	c0.367,0,0.646-0.327,0.585-0.688l-0.563-3.498c-0.046-0.286-0.294-0.498-0.586-0.498H98.589c-3.386,0-6.591-1.712-8.317-4.62
	c-4.728-7.977,0.325-16.429,7.937-17.283l2.639-0.296c0.422-0.047,0.66-0.51,0.45-0.879l-1.308-2.305
	c-0.625-1.099-0.954-2.344-0.954-3.601c0-4.041,3.297-7.328,7.349-7.328c1.313,0,2.615,0.36,3.756,1.041l1.761,1.048
	c0.313,0.187,0.719,0.05,0.855-0.286l0.764-1.896c2.79-6.893,9.403-11.348,16.852-11.348c10.015,0,18.163,8.13,18.163,18.121
	c0,1.592-0.211,3.179-0.622,4.713l-0.585,2.165c-0.103,0.372,0.176,0.739,0.562,0.745l3.084,0.053
	c3.444,0.059,6.648,1.895,8.325,4.895c4.723,8.45-1.325,17.061-9.354,17.061h-22.364c-0.493,0-0.894-0.397-0.894-0.889V41.534
	c0-0.211-0.11-0.407-0.297-0.514l-1.751-1.01c-0.185-0.104-0.412-0.104-0.594,0l-1.755,1.012c-0.185,0.105-0.297,0.301-0.297,0.513
	v10.009c0,3.079,2.502,5.574,5.587,5.574h23.171c5.264,0,10.168-2.813,12.694-7.418C169.301,39.03,162.722,28.016,152.994,26.08"/>
</svg>